<svg width="129" height="36" viewBox="0 0 129 36" fill="none" xmlns="http://www.w3.org/2000/svg">
<path fill-rule="evenodd" clip-rule="evenodd" d="M53.7549 0.313888C53.5702 0.495012 53.4202 0.51432 53.243 0.37935C52.8967 0.115662 51.3614 0.810371 51.1158 1.34179C50.9756 1.64465 50.9596 1.56778 51.0518 1.0371L51.1753 0.327311L50.2967 0.468533C49.0118 0.675217 48.6392 0.697467 48.4183 0.580702C48.1331 0.430102 46.8521 0.555326 46.5802 0.760355C46.4286 0.87473 46.3187 0.853216 46.2607 0.697283C46.1898 0.506597 46.042 0.503839 45.5126 0.682941C45.0629 0.835012 44.7352 0.848251 44.4832 0.724682C44.2013 0.586218 44.017 0.631821 43.706 0.917023C43.3669 1.22797 43.155 1.26861 42.4482 1.15901C41.9806 1.08638 41.5078 1.05457 41.3975 1.08822C41.2872 1.12168 40.7007 1.17464 40.0942 1.20572C38.3413 1.29564 38.2896 1.30263 38.2896 1.45065C38.2896 1.52807 38.0052 1.55289 37.6576 1.50618C37.0925 1.43006 37.0374 1.46279 37.1374 1.81382C37.2126 2.07751 37.1567 2.20659 36.9674 2.20659C36.8124 2.20659 36.6855 2.08247 36.6855 1.93077C36.6855 1.74689 36.485 1.65494 36.0839 1.65494C35.7364 1.65494 35.4824 1.75203 35.4824 1.8848C35.4822 2.02676 35.1718 2.12403 34.6701 2.13929C33.746 2.16724 33.4534 2.33182 33.8841 2.58153C34.0838 2.69738 34.0983 2.75346 33.9284 2.75548C33.7907 2.75695 33.6778 2.88236 33.6778 3.03406C33.6778 3.18577 33.5424 3.30989 33.377 3.30989C33.2116 3.30989 33.0762 3.18577 33.0762 3.03406C33.0762 2.88236 33.1665 2.75824 33.2768 2.75824C33.387 2.75824 33.4773 2.67549 33.4773 2.57436C33.4773 2.29706 32.9341 2.3537 32.8128 2.6435C32.7482 2.79759 32.5194 2.86379 32.2281 2.81267C31.7857 2.73526 31.7557 2.77792 31.8317 3.37462C31.9099 3.9886 32.4061 4.41852 32.6592 4.09139C32.7231 4.00883 33.0237 3.92663 33.3269 3.90898C33.6301 3.89133 33.9912 3.86742 34.1289 3.85584C34.2669 3.84425 34.5825 3.89188 34.8307 3.96157C35.1676 4.05627 35.2819 4.01416 35.2819 3.79552C35.2819 3.55739 35.3775 3.53625 35.7962 3.68225C36.5702 3.95201 37.287 3.90567 37.287 3.58571C37.287 3.41415 37.4763 3.30989 37.7883 3.30989C38.0812 3.30989 38.2896 3.41562 38.2896 3.56401C38.2896 3.91229 39.8758 3.93435 40.0206 3.5881C40.0783 3.45019 40.3667 3.3417 40.6612 3.34685C41.6816 3.36487 41.8988 3.3086 41.8988 3.02597C41.8988 2.86986 42.0117 2.75548 42.1494 2.77203C42.2874 2.7884 42.6062 2.79208 42.8582 2.77994C43.2506 2.76137 43.2859 2.70602 43.1043 2.3947C42.9312 2.09792 42.9483 2.05084 43.1975 2.13837C43.3655 2.19758 43.5029 2.36124 43.5029 2.50209C43.5029 2.64295 43.6286 2.75824 43.7822 2.75824C43.9358 2.75824 44.1129 2.88107 44.1758 3.03112C44.3434 3.43199 46.7616 3.32552 47.3124 2.89303C47.7361 2.56038 48.2185 2.45539 48.0287 2.73728C47.9683 2.82683 48.1456 2.93973 48.4227 2.98846C48.6996 3.03701 48.9755 3.00372 49.0356 2.91454C49.0958 2.82517 49.2289 2.7998 49.3316 2.85809C49.4343 2.9162 49.5183 2.87611 49.5183 2.76909C49.5183 2.66207 49.7041 2.57436 49.9311 2.57436C50.1581 2.57436 50.2882 2.65711 50.2201 2.75824C50.1439 2.87133 50.4286 2.93146 50.9602 2.91454C51.5364 2.89615 51.6443 2.86177 51.2838 2.81138C50.8986 2.75751 50.7771 2.65527 50.8605 2.45575C50.9249 2.30184 51.0327 2.24484 51.1001 2.32906C51.2898 2.56645 52.0874 2.94212 52.402 2.94212C52.5572 2.94212 53.0998 2.58227 53.6077 2.14223C54.2399 1.59463 54.5311 1.43723 54.5311 1.64299C54.5311 1.80812 54.2588 2.09093 53.9259 2.27114C53.2448 2.64019 53.3023 2.94212 54.0535 2.94212C54.3741 2.94212 54.5044 2.86747 54.4152 2.73507C54.3151 2.58668 54.3769 2.57987 54.6323 2.71098C55.0837 2.94268 55.7342 2.79502 55.7342 2.4609C55.7342 2.32115 55.8244 2.20659 55.9347 2.20659C56.0449 2.20659 56.1352 2.31692 56.1352 2.45171C56.1352 2.83639 58.4968 2.79244 58.6101 2.40574C58.6803 2.16577 58.6993 2.1711 58.7186 2.43645C58.7455 2.80715 59.1525 2.85974 59.5038 2.53758C59.6863 2.37025 59.7444 2.36933 59.7444 2.53372C59.7444 2.77424 63.2658 2.76376 63.6875 2.52214C63.8158 2.4484 63.9668 2.49216 64.0229 2.61923C64.1011 2.79557 64.1729 2.78711 64.3277 2.58318C64.439 2.43626 64.4863 2.25109 64.4328 2.17147C64.3792 2.09203 64.4753 2.07622 64.6465 2.13635C64.8178 2.19666 64.9577 2.3434 64.9577 2.46274C64.9577 2.69977 65.3407 2.75383 66.8626 2.73176C67.414 2.72367 68.587 2.73599 69.4693 2.75898C72.2796 2.83235 72.4531 2.8237 72.5321 2.60672C72.5856 2.45906 72.7011 2.47782 72.9085 2.66795C73.2858 3.01402 74.5274 3.02119 75.4118 2.6823C75.9959 2.45851 76.1435 2.45851 76.4772 2.6823C76.9508 3.00005 77.3642 3.02928 77.0286 2.72146C76.7011 2.42118 76.7262 2.20659 77.0887 2.20659C77.2542 2.20659 77.3895 2.33071 77.3895 2.48242C77.3895 2.63412 77.5475 2.76504 77.7404 2.77314C77.9333 2.78141 78.362 2.8077 78.6928 2.83161C79.0237 2.85551 79.3607 2.78674 79.4417 2.6788C79.5402 2.54751 79.5899 2.55854 79.5921 2.71227C79.5937 2.83878 79.7981 2.94084 80.0463 2.93937C80.3601 2.93734 80.4182 2.89045 80.2374 2.78509C80.0282 2.66354 80.0353 2.58962 80.2735 2.40831C80.5149 2.22461 80.6099 2.25183 80.7874 2.5556C80.9175 2.77865 81.1255 2.88604 81.3051 2.82278C81.4703 2.76468 81.717 2.80109 81.8535 2.90369C82.2573 3.20728 82.9184 3.23597 83.2737 2.96548C83.4893 2.80164 83.6054 2.78545 83.6054 2.91969C83.6054 3.13869 84.2532 3.206 84.468 3.00924C84.7565 2.74463 86.1944 2.76192 86.3592 3.03204C86.5337 3.31798 87.3925 3.39705 88.6756 3.24535C89.093 3.19588 89.7022 3.22585 90.029 3.31173C90.3558 3.39778 90.6233 3.40146 90.6233 3.32C90.6233 3.23854 90.8489 3.17198 91.1246 3.17198C91.4003 3.17198 91.6259 3.27605 91.6259 3.4033C91.6259 3.67968 92.381 3.8985 92.4721 3.64842C92.5067 3.55261 92.8721 3.40459 93.2837 3.31945C93.9552 3.18062 94.032 3.20269 94.032 3.53367C94.032 3.86007 94.1183 3.88765 94.784 3.77364C95.1976 3.70285 95.4659 3.70947 95.3805 3.78835C95.1557 3.99614 96.4901 4.37788 96.7712 4.18627C96.9074 4.09341 97.058 4.10757 97.134 4.22029C97.2054 4.32639 97.6044 4.41319 98.0206 4.41319C98.4369 4.41319 98.8425 4.47276 98.9219 4.54558C99.1465 4.75153 101.12 4.75576 101.401 4.5511C101.581 4.41962 101.652 4.45474 101.652 4.67559C101.652 4.92144 101.842 4.98065 102.604 4.9709C103.128 4.9641 103.86 5.01209 104.23 5.07755C104.666 5.15442 104.957 5.11819 105.053 4.97513C105.168 4.80541 105.268 4.81111 105.482 4.9994C105.889 5.35632 106.802 5.69632 106.962 5.55013C107.211 5.32138 108.054 5.40303 108.165 5.66671C108.25 5.87064 108.335 5.87891 108.563 5.70533C108.852 5.48522 109.357 5.60806 109.189 5.8574C109.111 5.97306 109.677 5.99862 110.424 5.91293C110.562 5.89712 110.682 5.73935 110.69 5.56245C110.703 5.3052 110.73 5.29601 110.823 5.51648C110.888 5.66818 111.075 5.88314 111.239 5.99421C111.403 6.10527 111.479 6.28382 111.407 6.39084C111.325 6.51129 111.421 6.55064 111.658 6.49382C111.868 6.44343 112.368 6.54494 112.769 6.71926C113.17 6.89376 113.946 7.03664 114.493 7.03664C115.039 7.03664 115.487 7.10835 115.487 7.19588C115.487 7.2836 115.622 7.35531 115.788 7.35531C115.953 7.35531 116.088 7.26374 116.088 7.15175C116.088 7.03977 116.224 6.99582 116.389 7.05411C116.555 7.11222 116.69 7.07967 116.69 6.98184C116.69 6.68929 117.239 6.78031 117.37 7.09456C117.55 7.52448 117.537 7.53919 116.976 7.53919C116.486 7.53919 116.478 7.555 116.81 7.85933C117.059 8.08735 117.183 8.11438 117.241 7.95311C117.297 7.7992 117.535 7.87441 117.983 8.18811C118.4 8.47993 118.77 8.60442 118.99 8.52719C119.195 8.45493 119.408 8.50972 119.511 8.66161C119.606 8.80283 119.845 8.9185 120.042 8.9185C120.239 8.91868 120.411 9.02221 120.424 9.14835C120.438 9.27468 120.461 9.44753 120.475 9.5323C120.545 9.9635 122.304 10.3063 122.304 9.88866C122.304 9.76509 122.445 9.84802 122.617 10.0729C122.789 10.298 122.88 10.5552 122.819 10.6446C122.673 10.8616 123.079 11.1381 123.764 11.2882C124.095 11.361 124.541 11.703 124.866 12.1341C125.167 12.5322 125.523 12.8609 125.659 12.8648C125.795 12.8687 125.967 13.0965 126.043 13.3714C126.118 13.6461 126.346 14.0345 126.549 14.2345C126.8 14.4815 126.871 14.7196 126.771 14.9763C126.69 15.1841 126.644 15.6802 126.668 16.0785C126.692 16.477 126.577 16.9911 126.413 17.2214C126.249 17.4516 126.114 17.7667 126.114 17.9221C126.114 18.0773 126.024 18.1836 125.913 18.1584C125.803 18.133 125.598 18.3193 125.459 18.5722C125.319 18.825 125.003 19.1135 124.757 19.2134C124.511 19.3132 124.309 19.5366 124.309 19.7098C124.309 19.8832 124.182 20.091 124.026 20.1719C123.87 20.2528 123.712 20.5673 123.675 20.8707C123.626 21.2725 123.498 21.4275 123.204 21.4411C122.674 21.4657 121.726 21.9278 121.106 22.464C120.833 22.7001 120.586 22.875 120.557 22.8524C120.408 22.7373 118.546 23.505 118.147 23.8457C118.007 23.9649 117.893 24.1607 117.893 24.2808C117.893 24.4058 117.728 24.4597 117.507 24.4068C117.296 24.356 116.842 24.4704 116.5 24.6612C116.158 24.8519 115.748 25.008 115.589 25.008C115.43 25.008 114.967 25.2769 114.559 25.6053C114.151 25.9339 113.651 26.1768 113.449 26.1454C113.19 26.1051 113.081 26.2014 113.081 26.471C113.081 26.7939 112.997 26.8346 112.547 26.7308C112.104 26.6292 112.034 26.6602 112.139 26.9112C112.224 27.1141 112.161 27.2146 111.95 27.2146C111.752 27.2146 111.677 27.112 111.75 26.9388C111.828 26.7513 111.739 26.663 111.47 26.663C111.253 26.663 111.076 26.7319 111.076 26.8162C111.076 26.9006 110.963 26.9835 110.825 27.0008C108.621 27.2764 107.51 27.6655 107.428 28.1911C107.372 28.548 107.337 28.5588 107.074 28.2992C106.776 28.0052 106.766 28.0061 105.026 28.4928C104.622 28.6061 103.953 28.7385 103.539 28.7868C103.126 28.8354 102.684 28.9542 102.557 29.0507C102.431 29.1472 101.791 29.2806 101.137 29.3469C100.477 29.4139 99.5255 29.6737 99.0001 29.9308C98.2394 30.3026 97.9952 30.3498 97.7596 30.1706C97.5452 30.0075 97.3585 30.0003 97.0658 30.1441C96.8454 30.2522 96.3572 30.3406 95.9808 30.3406C95.6047 30.3406 95.017 30.4686 94.6749 30.6251C94.2921 30.8004 93.2681 30.9443 92.0101 30.9999C90.8862 31.0495 89.8111 31.1667 89.6206 31.2602C89.4301 31.3537 88.6529 31.4436 87.8935 31.4601C87.1342 31.4767 86.1497 31.6008 85.706 31.7361C85.2622 31.8713 84.3148 31.9969 83.6006 32.0153C82.6915 32.0388 82.1609 32.1495 81.8311 32.3849C81.4218 32.6767 81.3222 32.6863 81.0723 32.4571C80.863 32.2652 80.6518 32.2396 80.2967 32.3634C80.0284 32.457 79.4676 32.527 79.0503 32.5191C78.6331 32.5112 78.2016 32.5226 78.0913 32.5445C77.981 32.5665 77.6067 32.5704 77.2594 32.5533C76.9121 32.5362 76.5684 32.6107 76.4956 32.7186C76.4228 32.8266 76.1541 32.915 75.8983 32.915C75.6426 32.915 75.3232 33.0367 75.1885 33.1857C74.9866 33.4089 74.8975 33.4141 74.6808 33.2155C74.3551 32.9167 72.0579 32.9911 71.6336 33.3142C71.4062 33.4873 71.308 33.4823 71.179 33.2907C71.0559 33.1081 70.452 33.0544 68.7863 33.0779C66.3507 33.1123 65.5625 33.2844 65.5533 33.7839C65.5474 34.0862 65.531 34.0849 65.3293 33.7664C65.153 33.4882 65.0776 33.4707 64.9343 33.6744C64.7953 33.8721 64.7329 33.8456 64.6445 33.5509C64.5679 33.296 64.3426 33.1621 63.9427 33.1342C63.6187 33.1116 63.3536 33.1662 63.3536 33.2557C63.3536 33.3453 63.0829 33.3894 62.7521 33.3541C62.4212 33.3188 62.1506 33.365 62.1506 33.4567C62.1506 33.6952 61.5362 33.7861 60.9308 33.6373C60.5412 33.5415 60.3546 33.5957 60.1773 33.8561C60.0476 34.0464 59.7889 34.2022 59.6024 34.2022C59.3386 34.2022 59.3167 34.1531 59.5038 33.9815C60.0139 33.5137 59.7362 33.3749 58.3374 33.3981C57.5636 33.4108 56.8835 33.3519 56.8263 33.267C56.674 33.0408 55.7672 33.4683 55.6664 33.814C55.597 34.0527 55.5756 34.0446 55.5569 33.7723C55.536 33.4705 55.367 33.4394 53.9797 33.4838C53.1251 33.511 52.2258 33.5979 51.9816 33.6768C51.7201 33.7614 51.4851 33.7425 51.4099 33.631C51.3397 33.5268 51.1446 33.49 50.9764 33.5492C50.8082 33.6084 50.5691 33.5847 50.4452 33.4964C49.795 33.0331 48.935 33.1963 48.6643 33.8344C48.5714 34.0536 48.5442 34.0435 48.5315 33.7855C48.5203 33.5555 48.3551 33.463 47.9643 33.4685C47.6611 33.4725 47.1901 33.4532 46.9178 33.4253C46.3722 33.3696 46.0719 33.9536 46.5166 34.2055C46.6517 34.2822 46.7005 34.437 46.6247 34.5494C46.4258 34.8445 46.1096 34.8007 46.1096 34.478C46.1096 34.3263 46.0161 34.2022 45.902 34.2022C45.7647 34.2022 45.7707 34.0714 45.9201 33.8155C46.1374 33.4429 46.1086 33.4314 45.1248 33.4937C44.3591 33.5424 44.1042 33.4955 44.1042 33.3063C44.1044 33.1028 44.0461 33.0982 43.8037 33.2828C43.6212 33.4216 43.5029 33.4363 43.5029 33.3201C43.5029 33.2079 42.9834 33.1276 42.2497 33.1263C41.5605 33.125 39.9891 33.0963 38.7582 33.0627C37.527 33.0292 36.5616 33.0639 36.6129 33.1401C36.7372 33.3243 36.1008 33.1033 35.5129 32.7578C35.1714 32.5574 34.951 32.5334 34.7108 32.6708C34.5261 32.7765 34.2021 32.7968 33.9785 32.7168C33.3878 32.5051 31.8848 32.5208 30.9933 32.7479C30.4058 32.8974 30.177 32.892 30.0651 32.7262C29.9807 32.6007 29.4093 32.4948 28.7394 32.4805C27.7639 32.4597 27.485 32.5261 27.111 32.869C26.5498 33.3837 26.1634 33.4181 26.5002 32.9233C26.7842 32.5064 26.5658 32.1922 26.2153 32.5136C25.8698 32.8304 25.5636 32.7804 25.8578 32.4553C25.9951 32.3036 26.0737 32.1752 26.0326 32.1701C25.9917 32.1651 25.3876 32.1149 24.6904 32.0587C23.5537 31.9669 23.3696 32.0009 22.9077 32.3897L22.3925 32.8231L22.5249 32.3174C22.669 31.7665 22.6823 31.7729 21.2961 31.719C20.8273 31.7006 20.444 31.7613 20.444 31.8538C20.444 31.9463 20.3022 31.8919 20.129 31.7328C19.9555 31.5739 19.6547 31.4439 19.4604 31.4439C19.2661 31.4439 19.0496 31.391 18.979 31.3264C18.9086 31.2617 18.51 31.1878 18.0936 31.1622C16.17 31.0434 14.9423 30.8704 14.6965 30.6834C14.498 30.5323 14.345 30.5431 14.1062 30.725C13.8331 30.9327 13.744 30.9206 13.5249 30.6457C13.3304 30.4019 13.2397 30.3807 13.1607 30.5608C13.0781 30.7487 13.0178 30.7514 12.8804 30.5738C12.784 30.4493 12.4954 30.3844 12.2392 30.4296C11.9827 30.4751 11.2685 30.3495 10.6517 30.1507C10.0352 29.9517 9.36925 29.8361 9.17235 29.8934C8.95279 29.9573 8.81303 29.9039 8.81123 29.7554C8.80882 29.577 8.75568 29.5858 8.60911 29.789C8.43888 30.0251 8.35987 30.0063 8.06091 29.6594C7.86862 29.4365 7.19269 29.0733 6.55847 28.8523C5.92425 28.6315 5.40552 28.3961 5.40552 28.3293C5.40552 28.2626 5.08971 28.2416 4.70373 28.283C4.05848 28.3521 4.00193 28.319 4.00193 27.8737C4.00193 27.48 3.88664 27.3682 3.38516 27.2762C2.94985 27.1964 2.61539 26.9408 2.24825 26.4074C1.96212 25.9916 1.74938 25.6235 1.77544 25.5889C1.80171 25.5544 1.69243 25.4302 1.53262 25.3131C1.37302 25.196 1.18594 24.6252 1.11676 24.0451C1.00648 23.1172 1.03976 22.9624 1.39387 22.7595C1.61523 22.6328 1.7963 22.3421 1.7963 22.1136C1.7963 21.8852 1.88232 21.6982 1.98739 21.6982C2.09245 21.6982 2.32846 21.4085 2.51153 21.0546C2.69459 20.7006 2.9697 20.411 3.12249 20.411C3.27528 20.411 3.4004 20.3067 3.4004 20.1795C3.4004 20.052 3.58086 19.8444 3.80142 19.7181C4.02199 19.5918 4.20245 19.3332 4.20245 19.1437C4.20245 18.9469 4.38511 18.7551 4.62834 18.6968C4.97081 18.6146 5.02896 18.5026 4.92529 18.1237C4.79937 17.664 5.05743 17.469 5.30527 17.8366C5.37344 17.9378 5.50437 18.0205 5.59641 18.0205C5.84565 18.0205 6.02992 17.4672 5.86229 17.2225C5.78208 17.1051 5.74218 16.8644 5.77406 16.6874C5.80575 16.5105 5.73055 16.3656 5.60684 16.3656C5.48312 16.3656 5.436 16.4459 5.50217 16.5441C5.56834 16.6423 5.3965 16.7745 5.12019 16.8381C4.84389 16.9018 4.56337 17.111 4.4968 17.3032C4.43043 17.4955 4.29188 17.6527 4.18901 17.6527C4.08615 17.6527 4.00193 17.7535 4.00193 17.8767C4.00193 17.9999 3.76192 18.2899 3.46877 18.521C3.17542 18.752 2.83656 19.1271 2.71585 19.3542C2.59514 19.5815 2.20534 19.8915 1.84983 20.0432C1.49372 20.1951 1.20158 20.461 1.19917 20.6351C1.19636 20.8398 1.08869 20.9137 0.893991 20.8453C0.545099 20.7225 0.515023 20.9338 0.787319 21.591C0.94813 21.9784 0.912438 22.0931 0.581191 22.2557C0.361029 22.3638 0.23631 22.5343 0.304083 22.6349C0.371856 22.7353 0.312104 22.9447 0.171344 23.1003C-0.0189423 23.3106 -0.0281658 23.4656 0.135653 23.7063C0.270598 23.9042 0.286438 24.1302 0.176958 24.2889C-0.0668648 24.6421 -0.0558366 25.5597 0.192197 25.5597C0.302479 25.5597 0.399928 25.7873 0.40855 26.0654C0.417172 26.3434 0.469907 26.4677 0.525449 26.3412C0.656785 26.0431 0.95615 26.0431 0.927677 26.3412C0.890582 26.7292 1.65393 27.9502 1.93365 27.9502C2.07862 27.9502 2.19732 28.0666 2.19732 28.2087C2.19732 28.3711 2.33728 28.4338 2.57288 28.3773C2.82994 28.3157 3.087 28.466 3.38857 28.8543C3.63059 29.1662 4.00314 29.4212 4.21608 29.4212C4.42923 29.4212 4.60347 29.5454 4.60347 29.6971C4.60347 29.8488 4.73882 29.9729 4.90424 29.9729C5.06966 29.9729 5.20501 30.0626 5.20501 30.172C5.20501 30.2816 5.3179 30.3333 5.45565 30.287C5.5936 30.2406 5.68484 30.1126 5.65857 30.0025C5.6323 29.8923 5.74519 29.8495 5.90921 29.9072C6.07323 29.965 6.20757 30.1181 6.20757 30.2474C6.20757 30.4769 7.3531 31.0762 7.79182 31.0762C7.91313 31.0762 8.01218 31.1464 8.01218 31.2321C8.01218 31.3178 8.2919 31.3952 8.63397 31.4042C8.97585 31.4131 9.41637 31.5539 9.61288 31.717C9.85269 31.916 10.1426 31.9737 10.4949 31.8926C10.8029 31.8218 11.0199 31.849 11.0199 31.9584C11.0199 32.0611 11.2003 32.1017 11.4209 32.0489C11.8735 31.9402 11.9468 31.7047 11.5713 31.5657C11.4335 31.5147 11.5238 31.4664 11.7718 31.4585C12.0327 31.45 12.2229 31.5526 12.2229 31.7017C12.2229 32.0088 13.3396 32.4467 13.9774 32.3897C14.2255 32.3676 14.4286 32.4264 14.4286 32.5206C14.4286 32.805 15.0622 32.9356 15.3564 32.7118C15.5695 32.5494 15.6317 32.5662 15.6317 32.7859C15.6317 33.0003 15.9378 33.0948 16.8849 33.1728C17.5742 33.2296 18.3951 33.2671 18.7095 33.2565C19.2244 33.2388 19.27 33.186 19.1693 32.7247C19.0907 32.3645 19.149 32.1806 19.3662 32.1041C19.8346 31.9393 19.8964 31.9691 19.7606 32.2937C19.6648 32.5228 19.7293 32.5691 20.0399 32.4947C20.5548 32.3713 20.5589 32.5739 20.0483 32.9113C19.684 33.1522 19.6782 33.1986 19.9734 33.4977C20.1995 33.7268 20.393 33.7739 20.6304 33.6575C20.8211 33.5637 21.0882 33.5612 21.2472 33.6513C21.4014 33.7386 21.5921 33.7737 21.6707 33.7291C21.7495 33.6844 22.0695 33.7379 22.3821 33.848C22.6947 33.9582 23.4015 34.0852 23.9529 34.1307C24.5043 34.1759 25.1247 34.2608 25.3315 34.3193C25.5763 34.3885 25.6597 34.3544 25.5703 34.2219C25.3645 33.9166 25.771 33.9767 26.0583 34.2941C26.4108 34.6838 26.6598 34.6363 26.6598 34.1798C26.6598 33.8942 26.7272 33.8377 26.9105 33.969C27.0484 34.068 27.4545 34.2393 27.8128 34.3498C28.4244 34.5385 28.4645 34.5243 28.4645 34.1222C28.4645 33.8482 28.609 33.6588 28.8649 33.5974C29.1799 33.5218 29.2284 33.5617 29.0925 33.7846C28.7897 34.2805 29.5169 34.7334 30.6085 34.729C31.1387 34.7268 31.9564 34.8057 32.4258 34.9041C32.9241 35.0085 33.3253 35.0146 33.39 34.9184C33.451 34.8279 33.4053 34.7538 33.2886 34.7538C33.1719 34.7538 33.0762 34.6893 33.0762 34.6102C33.0762 34.3831 34.2117 34.0503 34.4758 34.2C34.6322 34.2886 34.5532 34.3765 34.2462 34.4558L33.778 34.5764L34.2344 34.9283C34.8139 35.3752 37.6439 35.4408 37.8236 35.0116C37.9669 34.6691 38.2896 34.6816 38.2896 35.0297C38.2896 35.1992 38.4774 35.3055 38.7774 35.3055C39.1879 35.3055 39.2627 35.2192 39.2484 34.763C39.2362 34.3666 39.1229 34.2057 38.8277 34.1654C38.4756 34.1172 38.4626 34.081 38.7269 33.8815C38.9831 33.6879 39.1038 33.7848 39.5119 34.5126L39.9939 35.3724L40.1076 34.8333C40.1702 34.5367 40.1513 34.1119 40.0661 33.8892C39.9458 33.5755 39.9767 33.5075 40.2031 33.5871C40.3637 33.6435 40.4966 33.7844 40.4982 33.9001C40.5 34.0258 40.5716 34.0084 40.6765 33.8569C40.9227 33.5003 41.339 33.7918 41.1916 34.2176C41.1246 34.4114 41.1599 34.57 41.2702 34.57C41.3805 34.57 41.528 34.7354 41.598 34.9377C41.668 35.14 41.8545 35.3055 42.0125 35.3055C42.1705 35.3055 42.2998 35.3882 42.2998 35.4894C42.2998 35.7345 43.0261 35.7234 43.5416 35.4704C43.859 35.3147 43.9948 35.3253 44.1269 35.5164C44.2604 35.7097 44.2995 35.6935 44.3019 35.4434C44.3055 35.0598 44.8483 35.021 45.2917 35.3726C45.4659 35.5105 45.9467 35.6709 46.3602 35.7288C46.9467 35.8108 47.1121 35.7731 47.1121 35.5574C47.1121 35.2799 47.5994 35.329 48.3046 35.6771C48.4642 35.756 48.7994 35.7492 49.0495 35.6618C49.3224 35.5668 49.5518 35.5741 49.6233 35.6802C49.7982 35.9397 51.0746 35.8961 51.1733 35.6273C51.2343 35.4614 51.3363 35.4515 51.5408 35.5916C51.6966 35.6986 52.3425 35.8067 52.9761 35.8321C53.9949 35.8728 54.1842 35.8226 54.6147 35.3965L55.1015 34.9149L55.1671 35.34C55.2289 35.7394 55.3119 35.7628 56.5362 35.7253C57.253 35.7034 57.9298 35.6769 58.04 35.6663C58.1503 35.6558 59.4725 35.7043 60.9784 35.7738C63.5469 35.8926 63.7222 35.8794 63.8124 35.557C63.8974 35.2538 63.9115 35.2512 63.9319 35.5353C63.9526 35.8224 64.1761 35.9386 64.5982 35.8816C64.9034 35.8402 70.7042 35.6339 71.2237 35.6458C71.5269 35.6528 71.7752 35.5811 71.7752 35.4864C71.7752 35.3823 71.9596 35.3788 72.243 35.4778C72.5004 35.5675 72.8307 35.573 72.977 35.4901C73.1246 35.4064 73.3933 35.4252 73.58 35.5322C73.7895 35.6521 74.2134 35.6688 74.7008 35.5763C75.1319 35.4945 75.5666 35.4458 75.6667 35.468C75.767 35.4905 75.9133 35.4131 75.9921 35.2963C76.1002 35.1358 76.2412 35.1356 76.566 35.295C76.803 35.4112 77.0789 35.4598 77.1792 35.4029C77.2796 35.3461 77.9267 35.2591 78.6174 35.21C79.308 35.1608 79.9314 35.0339 80.0028 34.928C80.0742 34.8221 80.3048 34.7384 80.5155 34.7422C81.043 34.7516 81.6339 34.7507 82.0514 34.74C82.2443 34.7351 82.4023 34.6121 82.4023 34.4666C82.4023 34.3212 82.5377 34.2022 82.7031 34.2022C82.8685 34.2022 83.0039 34.2849 83.0039 34.3861C83.0039 34.4872 83.1336 34.57 83.292 34.57C83.4971 34.57 83.5771 34.355 83.5691 33.8256C83.5629 33.4161 83.6136 33.0299 83.6818 32.9674C83.7502 32.9049 83.8059 33.0704 83.8059 33.3354C83.8059 33.8734 84.1891 34.7538 84.4233 34.7538C84.7988 34.7538 85.2095 34.5091 85.2095 34.2853C85.2095 33.8712 85.6566 33.7598 85.9321 34.1053C86.2411 34.4927 86.9151 34.3423 86.7404 33.9249C86.6734 33.7645 86.739 33.6505 86.8986 33.6505C87.0488 33.6505 87.2236 33.7747 87.2872 33.9264C87.3506 34.0781 87.6084 34.1926 87.8601 34.1809C88.1995 34.165 88.227 34.1378 87.9665 34.0755C87.5591 33.9778 87.4909 33.6505 87.8781 33.6505C88.0225 33.6505 88.3154 33.7679 88.5292 33.9111C88.8035 34.0952 88.9918 34.1156 89.169 33.9806C89.3459 33.846 89.4202 33.853 89.4202 34.0041C89.4202 34.1467 89.6392 34.1812 90.0719 34.1071C90.7679 33.9878 91.0039 33.951 93.0295 33.6465C93.7463 33.5386 94.5133 33.3743 94.7338 33.2811C94.9544 33.1881 95.3604 33.1206 95.6361 33.1313C96.3528 33.1592 97.7078 32.9139 97.932 32.7157C98.0367 32.623 98.2935 32.5472 98.5027 32.5472C98.7116 32.5472 99.1223 32.3928 99.415 32.2037C99.7775 31.9698 100.075 31.9071 100.348 32.007C100.982 32.2389 101.248 32.2034 101.123 31.9037C101.049 31.729 101.125 31.6278 101.329 31.6278C101.507 31.6278 101.652 31.7106 101.652 31.8117C101.652 31.9128 101.787 31.9956 101.952 31.9956C102.308 31.9956 102.311 31.9754 102.058 31.364C101.93 31.0574 101.93 30.8923 102.058 30.8923C102.165 30.8923 102.253 31.0164 102.253 31.1681C102.253 31.3198 102.426 31.4439 102.637 31.4439C102.849 31.4439 103.052 31.5241 103.089 31.6221C103.128 31.7266 103.538 31.6742 104.078 31.4956C104.776 31.2648 105.057 31.0547 105.231 30.6323L105.46 30.074L105.766 30.4736C106.056 30.854 106.111 30.8605 106.89 30.6082C107.341 30.4624 107.777 30.3815 107.86 30.4284C107.942 30.4751 107.969 30.3188 107.92 30.0808C107.831 29.6559 108.278 29.1726 108.414 29.5465C108.452 29.6513 108.6 29.8837 108.744 30.0632C108.973 30.3511 109.096 30.3631 109.789 30.165C110.221 30.0417 110.957 29.7826 111.424 29.5891C111.892 29.3957 112.412 29.2374 112.581 29.2374C112.75 29.2374 113.246 29.0305 113.682 28.7776C114.119 28.5248 114.607 28.3179 114.767 28.3179C114.926 28.3179 115.176 28.2144 115.322 28.0881C115.468 27.9618 115.89 27.836 116.26 27.809C116.631 27.7817 117.124 27.637 117.358 27.4872C117.591 27.3373 117.942 27.2146 118.138 27.2146C118.334 27.2146 118.495 27.0905 118.495 26.9388C118.495 26.7842 118.673 26.663 118.902 26.663C119.126 26.663 119.361 26.5389 119.425 26.3872C119.488 26.2355 119.758 26.1113 120.025 26.1113C120.358 26.1113 120.569 25.967 120.7 25.6516C120.887 25.2019 121.302 25.0115 121.302 25.3758C121.302 25.6478 121.689 25.599 122.032 25.2839C122.198 25.1322 122.486 25.008 122.672 25.008C122.859 25.008 123.1 24.8286 123.209 24.6094C123.318 24.39 123.587 24.1212 123.807 24.0118C124.027 23.9024 124.406 23.6267 124.649 23.3991C124.893 23.1716 125.164 22.9818 125.252 22.9776C125.34 22.9732 125.638 22.7099 125.914 22.3921C126.189 22.0744 126.664 21.5976 126.968 21.3328C127.705 20.6901 128.878 18.5317 128.316 18.85C127.91 19.08 128.053 18.2108 128.57 17.2999C128.881 16.7517 129.065 16.2552 128.979 16.1966C128.892 16.1377 128.821 15.5173 128.821 14.8178C128.82 13.9652 128.738 13.5205 128.57 13.4692C128.432 13.4271 128.32 13.2844 128.32 13.152C128.32 13.0194 128.193 12.8665 128.038 12.812C127.883 12.7574 127.695 12.4599 127.621 12.1508C127.547 11.8417 127.404 11.5416 127.302 11.4838C127.2 11.4263 127.113 11.1977 127.109 10.9761C127.105 10.7546 126.902 10.3631 126.658 10.1062C126.05 9.46647 124.71 8.57978 124.71 8.81699C124.71 8.92328 124.575 9.01025 124.41 9.01025C124.244 9.01025 124.109 8.94075 124.109 8.85598C124.109 8.77102 123.883 8.60718 123.608 8.49207C123.332 8.37678 123.104 8.13608 123.101 7.95679C123.096 7.62396 121.957 6.98754 121.366 6.98754C121.189 6.98754 120.917 6.84264 120.76 6.66575C120.564 6.44454 120.443 6.41217 120.374 6.56241C120.306 6.71025 120.143 6.6606 119.868 6.4085C119.586 6.14996 119.314 6.07034 118.978 6.14757C118.707 6.21009 118.495 6.17772 118.495 6.07401C118.495 5.77392 117.056 5.03213 116.189 4.88448C115.748 4.80945 115.294 4.67798 115.181 4.59247C114.766 4.27803 112.671 3.73594 111.207 3.5642C110.749 3.5105 110.081 3.3965 109.722 3.31099C109.281 3.20581 109.07 3.22052 109.07 3.35678C109.07 3.46729 108.867 3.38583 108.619 3.17547C108.336 2.9355 107.795 2.75934 107.166 2.70216C106.614 2.65196 105.712 2.51827 105.16 2.40482C104.609 2.29155 103.635 2.16651 102.997 2.12679C102.358 2.08725 101.726 1.97527 101.593 1.87799C101.46 1.78072 100.719 1.69356 99.9472 1.68418C98.564 1.66745 98.2352 1.62975 97.6413 1.42068C97.1015 1.23073 95.2351 1.15313 95.2351 1.32065C95.2351 1.41056 95.0685 1.40229 94.8648 1.30226C94.6101 1.17722 94.4224 1.1866 94.2632 1.3326C94.0886 1.49276 94.032 1.48191 94.032 1.28883C94.032 1.10256 93.9635 1.11911 93.7796 1.34952C93.4949 1.70662 92.6878 1.6726 92.4318 1.29288C92.3221 1.13014 92.0592 1.08822 91.6363 1.16582C91.2066 1.24452 91.0474 1.21786 91.1388 1.08215C91.2231 0.95711 91.1018 0.966855 90.8138 1.10826C90.4334 1.2949 90.3151 1.2846 90.1271 1.04887C89.9233 0.79327 89.8764 0.79566 89.6719 1.07148C89.4606 1.35669 89.4429 1.35558 89.4321 1.05733C89.4255 0.88043 89.3976 0.727992 89.3701 0.718798C89.3427 0.709787 88.4233 0.665656 87.3275 0.620972C86.2315 0.576105 85.2245 0.455478 85.0896 0.352871C84.9216 0.224889 84.7996 0.23206 84.7032 0.375305C84.6112 0.511746 84.3084 0.538225 83.833 0.451248C82.5914 0.223969 81.8008 0.242541 81.8008 0.499058C81.8008 0.629063 81.7105 0.735531 81.6003 0.735531C81.49 0.735531 81.4224 0.642486 81.4499 0.528663C81.4776 0.414839 81.2744 0.299361 80.9987 0.271963C80.723 0.244564 80.2945 0.162552 80.0463 0.0895508C79.7048 -0.0106653 79.5951 0.0294211 79.5951 0.25431C79.5951 0.417965 79.7004 0.551648 79.8291 0.551648C79.9577 0.551648 79.9956 0.613616 79.9129 0.689192C79.8303 0.764952 79.6493 0.684595 79.5107 0.510642C79.1681 0.0807246 78.2337 0.0505678 77.4166 0.442974C76.8852 0.698019 76.6935 0.718798 76.5143 0.540247C76.3424 0.36942 76.348 0.3457 76.5373 0.443525C76.6911 0.523146 76.788 0.462649 76.788 0.286673C76.788 0.129086 76.6727 0 76.5319 0C76.2201 0 75.3764 0.500897 75.0335 0.889441C74.8155 1.13658 74.7828 1.11948 74.7828 0.758332C74.7828 0.426608 74.702 0.366478 74.3818 0.459707C74.0961 0.542822 73.9808 0.492806 73.9808 0.285386C73.9808 0.0722659 73.8059 0.0034937 73.3291 0.0288695C72.9706 0.0481772 72.5315 0.12927 72.3528 0.209259C72.1744 0.289248 71.9737 0.304694 71.9069 0.243461C71.8401 0.182044 70.9577 0.108307 69.9461 0.0794372C68.5551 0.0399024 67.9923 0.0958027 67.6372 0.309291C67.243 0.546131 67.1503 0.550361 67.0605 0.33577C66.948 0.0671172 66.2111 0.0200431 65.7965 0.255045C65.6623 0.330989 65.5956 0.456765 65.6479 0.534363C65.7002 0.611962 65.6198 0.837034 65.4692 1.03416C65.2354 1.34014 64.5683 1.45304 63.9552 1.29049C63.7857 1.24562 64.8458 0.859468 65.0325 0.898267C65.1288 0.918126 65.1512 0.800258 65.0826 0.63605C65.0139 0.472027 64.9577 0.261114 64.9577 0.167701C64.9577 0.0689561 64.3059 0.0428447 63.4038 0.105365C61.5709 0.232244 61.6036 0.232612 60.8974 0.0779662C60.4755 -0.0145268 60.3459 0.0244563 60.3459 0.243461C60.3459 0.497219 60.2832 0.499793 59.7945 0.266078C59.0396 -0.0950673 57.5392 -0.0717143 56.9442 0.310394C56.6016 0.530502 56.438 0.557165 56.3816 0.402335C56.2651 0.0818278 55.2251 0.136073 54.9151 0.478647C54.6724 0.746748 54.6197 0.741048 54.3322 0.415391C54.0635 0.111065 53.9771 0.095803 53.7549 0.313888ZM56.3357 0.827472C56.3357 0.979175 56.2455 1.11359 56.1352 1.12628C56.0249 1.13897 55.8412 1.15956 55.7269 1.17225C55.6124 1.18494 55.4334 1.31936 55.3289 1.47106C55.0592 1.86218 55.0691 1.37177 55.3401 0.907277C55.5846 0.488392 56.3357 0.428263 56.3357 0.827472ZM45.7085 1.18439C45.7085 1.22907 45.6183 1.3166 45.508 1.37912C45.3977 1.44164 45.3075 1.40505 45.3075 1.29803C45.3075 1.19101 45.3977 1.1033 45.508 1.1033C45.6183 1.1033 45.7085 1.13971 45.7085 1.18439ZM39.8022 2.19354C39.6051 2.48609 39.2875 2.24778 39.4277 1.91256C39.5049 1.72813 39.6142 1.69282 39.7425 1.81051C39.8506 1.90962 39.8774 2.08192 39.8022 2.19354ZM88.8187 1.93077C88.8187 2.08247 88.6862 2.20659 88.5242 2.20659C88.3449 2.20659 88.2749 2.09884 88.3451 1.93077C88.4087 1.77907 88.5412 1.65494 88.6397 1.65494C88.7381 1.65494 88.8187 1.77907 88.8187 1.93077ZM90.9097 1.79286C90.81 1.8688 90.6608 2.01352 90.5786 2.11465C90.4932 2.21965 90.4276 2.16044 90.4258 1.97674C90.4242 1.79782 90.5712 1.65494 90.7571 1.65494C90.9407 1.65494 91.0095 1.71691 90.9097 1.79286ZM38.8911 2.20659C38.8911 2.30773 38.8009 2.39048 38.6906 2.39048C38.5803 2.39048 38.4901 2.30773 38.4901 2.20659C38.4901 2.10546 38.5803 2.02271 38.6906 2.02271C38.8009 2.02271 38.8911 2.10546 38.8911 2.20659ZM45.2532 2.13377C45.1866 2.19482 45.0136 2.20144 44.869 2.1483C44.709 2.08964 44.7565 2.04606 44.9901 2.03724C45.2014 2.02933 45.3197 2.07273 45.2532 2.13377ZM94.032 2.40445C94.032 2.49143 93.8967 2.51515 93.7313 2.45704C93.5658 2.39875 93.4305 2.27978 93.4305 2.19262C93.4305 2.10564 93.5658 2.08192 93.7313 2.14003C93.8967 2.19832 94.032 2.31729 94.032 2.40445ZM98.2428 2.20659C98.2428 2.30773 98.0848 2.38919 97.8919 2.38772C97.5919 2.38533 97.5847 2.35885 97.8418 2.20659C98.2201 1.98226 98.2428 1.98226 98.2428 2.20659ZM35.1816 2.57436C35.2498 2.67549 35.2099 2.75824 35.0932 2.75824C34.9765 2.75824 34.8809 2.67549 34.8809 2.57436C34.8809 2.47322 34.9206 2.39048 34.9693 2.39048C35.018 2.39048 35.1134 2.47322 35.1816 2.57436ZM87.6156 2.57436C87.6156 2.67549 87.52 2.75824 87.4033 2.75824C87.2866 2.75824 87.2467 2.67549 87.3149 2.57436C87.383 2.47322 87.4785 2.39048 87.5272 2.39048C87.5759 2.39048 87.6156 2.47322 87.6156 2.57436ZM92.6194 3.02395C92.8017 3.22549 92.8097 3.30989 92.6467 3.30989C92.5194 3.30989 92.3634 3.18577 92.3 3.03406C92.2365 2.88236 92.0588 2.75824 91.9052 2.75824C91.7516 2.75824 91.6259 2.67255 91.6259 2.56792C91.6259 2.32979 92.2507 2.61647 92.6194 3.02395ZM89.9675 2.68542C89.9009 2.74647 89.7278 2.75309 89.5833 2.69995C89.4233 2.64129 89.4708 2.59771 89.7044 2.58888C89.9157 2.58098 90.034 2.62437 89.9675 2.68542ZM31.2049 3.24866C30.9436 3.48807 31.0765 3.86154 31.422 3.85878C31.6995 3.85657 31.7152 3.82237 31.4966 3.69531C31.3446 3.60704 31.2823 3.44284 31.3581 3.33048C31.5096 3.1056 31.4156 3.0554 31.2049 3.24866ZM97.3864 3.78872C97.3198 3.84977 97.1468 3.85639 97.0022 3.80325C96.8422 3.74459 96.8897 3.70101 97.1233 3.69218C97.3347 3.68427 97.453 3.72767 97.3864 3.78872ZM98.0423 4.04542C98.0423 4.14656 97.9521 4.2293 97.8418 4.2293C97.7315 4.2293 97.6413 4.14656 97.6413 4.04542C97.6413 3.94428 97.7315 3.86154 97.8418 3.86154C97.9521 3.86154 98.0423 3.94428 98.0423 4.04542ZM100.248 4.13736C100.248 4.28906 100.158 4.41319 100.047 4.41319C99.9371 4.41319 99.8469 4.28906 99.8469 4.13736C99.8469 3.98566 99.9371 3.86154 100.047 3.86154C100.158 3.86154 100.248 3.98566 100.248 4.13736ZM105.862 4.51597C105.862 4.67356 105.772 4.75153 105.662 4.68901C105.551 4.62649 105.461 4.49759 105.461 4.40234C105.461 4.30709 105.551 4.2293 105.662 4.2293C105.772 4.2293 105.862 4.35839 105.862 4.51597ZM113.281 6.16007C113.281 6.31177 113.146 6.43589 112.98 6.43589C112.815 6.43589 112.68 6.31177 112.68 6.16007C112.68 6.00837 112.815 5.88425 112.98 5.88425C113.146 5.88425 113.281 6.00837 113.281 6.16007ZM120.231 7.76904C120.176 7.89556 120.13 7.79203 120.13 7.53919C120.13 7.28635 120.176 7.18301 120.231 7.30934C120.287 7.43585 120.287 7.64272 120.231 7.76904ZM25.7575 9.92967C25.6894 10.0308 25.7293 10.1135 25.846 10.1135C25.9627 10.1135 26.0583 10.0308 26.0583 9.92967C26.0583 9.82853 26.0186 9.74578 25.9699 9.74578C25.9212 9.74578 25.8257 9.82853 25.7575 9.92967ZM23.0823 10.6652C23.0823 10.918 23.1278 11.0216 23.1834 10.8951C23.2391 10.7687 23.2391 10.5619 23.1834 10.4353C23.1278 10.309 23.0823 10.4124 23.0823 10.6652ZM18.8772 10.8884C18.5648 11.1749 18.5724 11.4537 18.89 11.3481C19.0279 11.3024 19.2928 11.3862 19.4789 11.5346C19.665 11.6832 19.913 11.7501 20.0303 11.6837C20.316 11.5217 20.3018 11.2168 20.0086 11.2168C19.8795 11.2168 19.6255 11.0938 19.4444 10.9436C19.1904 10.7327 19.0606 10.7202 18.8772 10.8884ZM16.1803 11.6946C16.1143 11.7551 16.1087 11.92 16.1678 12.0614C16.2541 12.2676 16.0977 12.2961 15.3784 12.2056C14.8074 12.1339 14.4312 12.1677 14.343 12.2984C14.2668 12.4115 14.3001 12.504 14.4168 12.504C14.5335 12.504 14.6291 12.7006 14.6291 12.9407C14.6291 13.2841 14.7364 13.3775 15.1304 13.3775C15.4835 13.3775 15.6317 13.2774 15.6317 13.0391C15.6317 12.6668 16.1901 12.3227 16.5843 12.4524C16.7519 12.5075 16.7904 12.4283 16.7006 12.2135C16.6088 11.9943 16.6406 11.9344 16.8006 12.025C16.9298 12.0982 17.0352 12.0793 17.0352 11.9829C17.0352 11.8865 16.8925 11.7576 16.718 11.6962C16.3288 11.5592 16.3276 11.5592 16.1803 11.6946ZM17.4363 12.0886C17.4363 12.4277 17.8068 12.5401 18.1866 12.3163C18.4709 12.1486 18.4759 12.1261 18.2127 12.1999C18.033 12.2503 17.785 12.1986 17.6612 12.0851C17.495 11.9327 17.4363 11.9336 17.4363 12.0886ZM13.1253 12.6879C13.0571 12.789 13.097 12.8718 13.2137 12.8718C13.3304 12.8718 13.426 12.9891 13.426 13.1324C13.426 13.5099 13.8892 13.595 14.1535 13.266C14.3241 13.0536 14.3153 12.9255 14.1176 12.7444C13.8066 12.459 13.2989 12.4301 13.1253 12.6879ZM11.7718 13.1824C11.5787 13.2287 11.4209 13.4159 11.4209 13.5983C11.4209 13.7807 11.2687 14.0437 11.0826 14.1825C10.7881 14.4021 10.7604 14.3951 10.8695 14.1283C10.9439 13.9457 10.8781 13.7807 10.7065 13.7202C10.5481 13.6645 10.4183 13.6991 10.4183 13.7969C10.4183 13.8949 10.283 13.9751 10.1176 13.9751C9.95214 13.9751 9.8168 14.0553 9.8168 14.1533C9.8168 14.2511 9.69067 14.287 9.53628 14.2325C9.08834 14.0749 9.03219 14.403 9.44144 14.7888C9.77248 15.101 9.8168 15.1065 9.8168 14.8347C9.8168 14.6654 9.95214 14.5267 10.1176 14.5267C10.283 14.5267 10.4183 14.6566 10.4183 14.8154C10.4183 15.2983 11.2837 15.0545 11.4428 14.5267C11.53 14.2375 11.5889 14.1864 11.6014 14.3888C11.6238 14.7481 11.9268 14.8176 12.1335 14.5107C12.2075 14.4008 12.4369 14.3513 12.6432 14.4008C12.9496 14.4741 12.9833 14.4311 12.8281 14.165C12.7236 13.9861 12.6929 13.7894 12.7599 13.7279C12.8933 13.6055 12.4511 13.0426 12.2486 13.077C12.1792 13.0888 11.9649 13.1362 11.7718 13.1824ZM13.025 13.7912C12.7679 13.9435 12.7752 13.9699 13.0751 13.9723C13.2682 13.9738 13.426 13.8923 13.426 13.7912C13.426 13.5669 13.4034 13.5669 13.025 13.7912ZM7.77237 15.165C6.74013 15.7757 6.63186 15.9323 7.16001 16.0513C7.3529 16.0947 7.21775 16.0967 6.85924 16.0557C6.18471 15.9785 5.96174 16.2398 6.531 16.44C6.73632 16.5123 6.81653 16.6875 6.75036 16.9194C6.69301 17.1204 6.7279 17.285 6.82796 17.285C6.92781 17.285 7.00962 17.1195 7.00962 16.9172C7.00962 16.5163 7.1574 16.4663 7.59331 16.7194C7.92175 16.91 8.61372 16.5816 8.61372 16.2352C8.61372 16.1032 8.7597 16.0524 8.96462 16.1129C9.24754 16.1964 9.25977 16.1802 9.02758 16.0292C8.79278 15.8764 8.78676 15.79 8.9949 15.56C9.20203 15.3312 9.19962 15.2148 8.98206 14.943C8.72721 14.6246 8.66746 14.6354 7.77237 15.165ZM3.70117 19.1238C3.77034 19.2264 3.62036 19.3064 3.3621 19.3049C2.98955 19.3025 2.95787 19.2672 3.19988 19.1238C3.57304 18.9028 3.55219 18.9028 3.70117 19.1238ZM120.8 23.9048C120.869 24.0059 120.778 24.0886 120.6 24.0886C120.421 24.0886 120.331 24.0059 120.399 23.9048C120.468 23.8036 120.558 23.7209 120.6 23.7209C120.642 23.7209 120.732 23.8036 120.8 23.9048ZM117.361 25.8434C117.295 25.9995 117.199 26.0878 117.146 26.0396C117.094 25.9915 117.11 25.8637 117.183 25.7559C117.381 25.4624 117.496 25.5194 117.361 25.8434ZM116.759 26.9467C116.694 27.1028 116.597 27.1911 116.545 27.1429C116.492 27.0947 116.509 26.967 116.581 26.8592C116.779 26.5657 116.895 26.6227 116.759 26.9467ZM112.078 27.5824C112.078 27.6835 111.983 27.7663 111.866 27.7663C111.749 27.7663 111.709 27.6835 111.777 27.5824C111.846 27.4813 111.941 27.3985 111.99 27.3985C112.038 27.3985 112.078 27.4813 112.078 27.5824ZM112.78 27.5824C112.848 27.6835 112.763 27.7663 112.591 27.7663C112.419 27.7663 112.279 27.6835 112.279 27.5824C112.279 27.4813 112.363 27.3985 112.467 27.3985C112.571 27.3985 112.712 27.4813 112.78 27.5824ZM99.4459 31.2601C99.4459 31.3612 99.3556 31.4439 99.2454 31.4439C99.1351 31.4439 99.0449 31.3612 99.0449 31.2601C99.0449 31.1589 99.1351 31.0762 99.2454 31.0762C99.3556 31.0762 99.4459 31.1589 99.4459 31.2601ZM21.9145 32.9332C22.0064 32.9963 21.9388 33.098 21.7641 33.1594C21.5353 33.2399 21.4465 33.1612 21.4465 32.8786C21.4465 32.6627 21.5143 32.5608 21.5969 32.6524C21.6795 32.7438 21.8225 32.8703 21.9145 32.9332ZM25.4024 33.21C25.3359 33.271 25.1628 33.2776 25.0183 33.2245C24.8582 33.1658 24.9058 33.1222 25.1394 33.1134C25.3507 33.1055 25.469 33.1489 25.4024 33.21ZM74.5823 33.9264C74.5823 34.0849 74.4015 34.2022 74.1568 34.2022C73.8011 34.2022 73.7723 34.1568 73.9808 33.9264C74.1181 33.7747 74.3096 33.6505 74.4063 33.6505C74.5031 33.6505 74.5823 33.7747 74.5823 33.9264ZM52.6262 34.0183C52.6944 34.1194 52.6042 34.2022 52.4257 34.2022C52.2472 34.2022 52.157 34.1194 52.2252 34.0183C52.2934 33.9172 52.3836 33.8344 52.4257 33.8344C52.4678 33.8344 52.558 33.9172 52.6262 34.0183ZM44.706 34.0878C44.706 34.1259 44.5706 34.2601 44.4052 34.3861C44.1588 34.5736 44.1044 34.5609 44.1044 34.3166C44.1044 34.1525 44.2398 34.0183 44.4052 34.0183C44.5706 34.0183 44.706 34.0496 44.706 34.0878ZM57.9398 34.0994C57.9398 34.1441 57.8496 34.2316 57.7393 34.2941C57.629 34.3566 57.5388 34.3201 57.5388 34.213C57.5388 34.106 57.629 34.0183 57.7393 34.0183C57.8496 34.0183 57.9398 34.0547 57.9398 34.0994ZM49.0336 34.57C49.19 34.57 49.3178 34.7354 49.3178 34.9377C49.3178 35.14 49.2662 35.3055 49.2033 35.3055C48.9729 35.3055 48.6148 34.8362 48.5716 34.478C48.5474 34.2757 48.5775 34.2138 48.6384 34.3401C48.6996 34.4666 48.8774 34.57 49.0336 34.57ZM40.6957 34.9377C40.6957 35.1747 40.7972 35.3051 40.9464 35.2595C41.0843 35.2174 41.197 35.0725 41.197 34.9377C41.197 34.8029 41.0843 34.658 40.9464 34.6159C40.7972 34.5703 40.6957 34.7007 40.6957 34.9377ZM53.465 34.9723C53.401 35.1188 53.3535 35.0753 53.3438 34.861C53.3352 34.6672 53.3825 34.5587 53.4491 34.6198C53.5157 34.6808 53.5229 34.8395 53.465 34.9723ZM54.0298 35.4894C54.098 35.5905 54.013 35.6732 53.8411 35.6732C53.6693 35.6732 53.5285 35.5905 53.5285 35.4894C53.5285 35.3882 53.6133 35.3055 53.7172 35.3055C53.8211 35.3055 53.9616 35.3882 54.0298 35.4894Z" fill="#6966FF"/>
</svg>
