<svg width="30" height="90" viewBox="0 0 30 90" fill="none" xmlns="http://www.w3.org/2000/svg">
<path fill-rule="evenodd" clip-rule="evenodd" d="M29.9072 39.4591C29.8602 39.2564 29.779 39.0367 29.7266 38.9709C29.6741 38.9051 29.6928 38.8219 29.768 38.7858C29.9428 38.702 29.947 38.3155 29.7729 38.3155C29.6931 38.3155 29.7018 38.2127 29.7951 38.0538C29.9155 37.8491 29.9076 37.732 29.7586 37.5153C29.6156 37.3072 29.6085 37.228 29.7295 37.1964C29.8524 37.1644 29.8543 37.0923 29.7372 36.8931C29.6324 36.7147 29.6278 36.6094 29.7231 36.561C29.7997 36.5221 29.8714 36.2932 29.8823 36.0523C29.8979 35.7079 29.8386 35.5798 29.6044 35.4526C29.4408 35.3638 29.37 35.291 29.4471 35.291C29.6018 35.291 29.6873 34.0843 29.5454 33.9063C29.4973 33.8459 29.4721 33.4941 29.4893 33.1245C29.516 32.554 29.4756 32.4153 29.2223 32.2061C28.9904 32.0147 28.9581 31.9275 29.0778 31.8157C29.2997 31.6085 29.2306 30.7792 28.9794 30.6352C28.8106 30.5385 28.8034 30.4865 28.9403 30.3585C29.0607 30.246 29.0657 30.1897 28.9577 30.1619C28.862 30.1371 28.8056 29.7989 28.8039 29.2391C28.8024 28.7532 28.7061 28.0974 28.5898 27.7819C28.4735 27.4664 28.3939 27.0534 28.4127 26.8642C28.4317 26.6749 28.3845 26.4615 28.3081 26.39C28.2316 26.3186 28.1669 26.1684 28.1643 26.0563C28.1545 25.6302 27.9779 25.0109 27.809 24.81C27.7123 24.6951 27.6369 24.4086 27.6415 24.1735C27.6459 23.9383 27.5881 23.6567 27.5129 23.5478C27.4376 23.4387 27.333 23.1266 27.2802 22.8541C27.2275 22.5816 27.1308 22.3587 27.0652 22.3587C26.9997 22.3587 26.9461 22.2753 26.9461 22.1734C26.9461 22.0714 26.8553 21.8874 26.7443 21.7647C26.6334 21.6418 26.5792 21.4674 26.624 21.3771C26.6686 21.2868 26.58 21.0266 26.427 20.7989C26.2531 20.5403 26.1998 20.3604 26.285 20.3196C26.3678 20.2799 26.3736 20.2069 26.2995 20.1332C26.2325 20.0666 25.9872 19.6203 25.7543 19.1414C25.5215 18.6625 25.2136 18.155 25.0702 18.0136C24.9267 17.8723 24.8428 17.6891 24.8836 17.6067C24.9343 17.5042 24.8631 17.457 24.6579 17.457C24.4336 17.457 24.393 17.4241 24.4969 17.3266C24.5936 17.2359 24.5788 17.0696 24.4481 16.7791C24.345 16.5496 24.2596 16.3501 24.2585 16.3358C24.2574 16.3215 24.1203 16.309 23.9539 16.3082C23.7354 16.3071 23.7015 16.2819 23.8318 16.2179C23.9824 16.1438 23.9826 16.0922 23.8331 15.9066C23.7346 15.7841 23.6157 15.684 23.5689 15.684C23.5222 15.684 23.444 15.4846 23.395 15.2408C23.2656 14.5958 22.9035 13.911 22.6917 13.911C22.5908 13.911 22.5083 13.843 22.5083 13.76C22.5083 13.6769 22.358 13.4832 22.1746 13.3297C21.9911 13.1761 21.8726 13.0107 21.9113 12.9621C21.95 12.9135 21.8582 12.7916 21.7072 12.6912C21.556 12.591 21.4324 12.402 21.4324 12.2714C21.4324 12.128 21.3511 12.0338 21.2273 12.0338C21.1147 12.0338 20.9648 11.9164 20.8945 11.773C20.8242 11.6296 20.6593 11.5116 20.5281 11.5107C20.3513 11.5095 20.3347 11.4869 20.4638 11.4234C20.6027 11.3549 20.5891 11.2709 20.3965 11.0085C20.2635 10.8274 20.0792 10.679 19.9868 10.6786C19.8943 10.6783 19.8187 10.5841 19.8187 10.4694C19.8187 10.3547 19.7703 10.2608 19.711 10.2608C19.6518 10.2608 19.4711 10.0496 19.3093 9.79149C19.1476 9.53337 18.954 9.32218 18.8791 9.32218C18.8042 9.32218 18.7428 9.25178 18.7428 9.16574C18.7428 9.07886 18.6233 9.0093 18.4739 9.0093C18.3245 9.0093 18.2049 8.93973 18.2049 8.85286C18.2049 8.76682 18.1444 8.69642 18.0705 8.69642C17.9965 8.69642 17.9358 8.63781 17.9357 8.56606C17.9352 8.37134 17.131 7.67425 17.1235 7.86208C17.1201 7.94812 17.041 7.85426 16.9478 7.6535C16.8548 7.45273 16.6153 7.15258 16.4158 6.98644C16.2164 6.82031 16.0533 6.64437 16.0533 6.59535C16.0533 6.54633 15.9641 6.50628 15.855 6.50628C15.746 6.50628 15.5695 6.3755 15.4629 6.21552C15.3563 6.05563 14.9916 5.7414 14.6525 5.51728C14.3135 5.29315 14.0361 5.05902 14.0361 4.99696C14.0361 4.85492 13.2546 4.31635 13.0473 4.31552C12.9624 4.3151 12.7912 4.17597 12.6667 4.00639C12.5423 3.83671 12.285 3.66765 12.0951 3.63063C11.9053 3.59371 11.7499 3.51247 11.7499 3.4501C11.7499 3.26696 11.0476 2.75176 10.7978 2.75176C10.6717 2.75176 10.5336 2.68136 10.4909 2.59532C10.4485 2.50928 10.3129 2.43888 10.1898 2.43888C10.0667 2.43888 9.8675 2.3568 9.74714 2.25637C9.4482 2.00711 8.98075 1.81313 8.67938 1.81313C8.54168 1.81313 8.29397 1.72218 8.12869 1.61101C7.96342 1.49994 7.74838 1.43277 7.65089 1.46176C7.54303 1.49389 7.48131 1.44466 7.49368 1.33609C7.52461 1.06222 7.2418 1.04825 7.0612 1.31482C6.97271 1.4455 6.92725 1.4772 6.95993 1.38521C7.0113 1.24119 6.63355 0.874494 6.43385 0.874494C6.3962 0.874494 6.11352 0.751221 5.80583 0.600518C5.34188 0.37337 5.20243 0.347609 4.99103 0.450024C4.80814 0.538673 4.6867 0.541906 4.56177 0.461497C4.37525 0.341352 3.95016 0.418737 3.95016 0.572777C3.95016 0.623984 3.89529 0.66591 3.82832 0.66591C3.76122 0.66591 3.73808 0.572046 3.77668 0.457325C3.82388 0.317469 3.78085 0.24874 3.6461 0.24874C3.53556 0.24874 3.37055 0.178969 3.27938 0.0937617C3.13427 -0.0418183 3.07134 -0.0353522 2.77414 0.145908C2.40379 0.371909 1.93297 0.422283 1.93297 0.236016C1.93297 0.151644 1.88402 0.150392 1.75788 0.231636C1.66159 0.293586 1.45194 0.317782 1.29205 0.285347C0.905287 0.206919 0.540714 0.490073 0.658382 0.777398C0.711636 0.907659 0.822447 0.971382 0.936483 0.937487C1.04205 0.906094 1.1261 0.943536 1.1261 1.02207C1.1261 1.17454 0.759108 1.28478 0.487326 1.21386C0.394804 1.18977 0.319225 1.10352 0.319225 1.02228C0.319225 0.834237 0.101236 0.829544 0.00925255 1.0156C-0.0292072 1.0932 0.0557823 1.23399 0.198061 1.32848C0.480331 1.51589 0.857141 1.55823 0.857141 1.40242C0.857141 1.28426 1.43056 1.29855 1.53935 1.41942C1.58185 1.46656 1.7603 1.52663 1.93607 1.55281C2.11183 1.57909 2.30709 1.67191 2.3699 1.759C2.43283 1.84608 2.65136 1.91742 2.8555 1.91742C3.09124 1.91742 3.38629 2.0384 3.66372 2.24875C3.97557 2.48519 4.23337 2.58239 4.56298 2.58771C4.90967 2.59344 5.02532 2.64089 5.02559 2.77783C5.02599 2.94418 5.15764 3.00227 5.38034 2.93427C5.42741 2.91988 5.51348 3.008 5.57157 3.12992C5.65266 3.29971 5.75863 3.33965 6.02409 3.30033C6.28108 3.26216 6.37078 3.29251 6.37078 3.41746C6.37078 3.51028 6.4313 3.5861 6.50526 3.5861C6.57922 3.5861 6.63974 3.65649 6.63974 3.74253C6.63974 3.82858 6.70456 3.89897 6.78377 3.89897C6.86311 3.89897 7.0226 3.97239 7.13825 4.06209C7.28699 4.17743 7.39054 4.19276 7.4918 4.11423C7.7079 3.94663 7.86673 3.98095 7.82235 4.18578C7.79935 4.29205 7.86699 4.36829 7.98453 4.36829C8.09547 4.36829 8.22188 4.46215 8.26546 4.57687C8.30889 4.69159 8.41486 4.77378 8.50079 4.75938C8.58659 4.7451 8.65692 4.79557 8.65692 4.8716C8.65692 4.94763 8.8027 5.11606 8.98088 5.24591C9.28319 5.46607 9.30928 5.46909 9.36872 5.29013C9.4131 5.15695 9.43731 5.18333 9.4482 5.37638C9.45909 5.57109 9.63445 5.75861 10.0329 6.00213C10.8874 6.52412 11.091 6.70433 11.0488 6.90113C11.0235 7.01877 11.1137 7.09126 11.3129 7.11326C11.4954 7.13329 11.6155 7.21912 11.6155 7.32956C11.6155 7.4348 11.8296 7.59989 12.1198 7.71847C12.3971 7.83173 12.6323 7.96909 12.6422 8.02363C12.7064 8.37572 12.9091 8.6231 13.214 8.72124C13.4073 8.78351 13.6109 8.82679 13.6663 8.8175C13.7217 8.80833 13.7764 8.85933 13.7876 8.93108C13.7989 9.00273 13.8221 9.10838 13.8393 9.16574C13.8566 9.2231 13.8775 9.35763 13.8861 9.46474C13.8973 9.60596 13.9754 9.64444 14.1706 9.60481C14.3845 9.56142 14.4395 9.60168 14.4395 9.80129C14.4395 9.93927 14.5082 10.0522 14.5922 10.0522C14.7898 10.0522 15.3268 10.503 15.5779 10.8796C15.686 11.0415 15.8674 11.2018 15.9811 11.2356C16.0947 11.2695 16.1877 11.3898 16.1877 11.5029C16.1877 11.616 16.2343 11.7309 16.291 11.7581C16.3479 11.7854 16.378 11.6121 16.358 11.3732C16.3256 10.9851 16.3384 10.9639 16.478 11.1751C16.5857 11.338 16.7111 11.3926 16.8817 11.3506C17.1844 11.2761 17.1992 11.3837 16.9193 11.6235C16.7275 11.7879 16.7395 11.8264 17.06 12.075C17.2527 12.2244 17.347 12.3467 17.2696 12.3467C17.0859 12.3467 17.087 12.6313 17.2708 12.6788C17.3488 12.699 17.4306 12.8085 17.4524 12.9221C17.4773 13.0514 17.596 13.1288 17.7692 13.1288C18.1542 13.1288 18.2742 13.2513 18.0731 13.4392C17.96 13.545 17.9528 13.5982 18.0515 13.5982C18.133 13.5982 18.2377 13.7155 18.2841 13.8589C18.3305 14.0023 18.4528 14.1196 18.5557 14.1196C18.6749 14.1196 18.7428 14.2358 18.7428 14.4398C18.7428 14.7505 19.2962 15.4952 19.7387 15.7801C19.855 15.8549 19.9194 15.9549 19.8819 16.002C19.8442 16.0491 19.9347 16.255 20.0828 16.4594C20.2309 16.6639 20.3212 16.8312 20.2836 16.8312C20.1443 16.8312 20.6744 17.5139 20.9168 17.6466C21.0549 17.7223 21.1315 17.8299 21.087 17.8858C21.0423 17.9418 21.0648 18.0441 21.1367 18.1134C21.2087 18.1825 21.3101 18.4504 21.362 18.7085C21.414 18.9666 21.6024 19.3528 21.7806 19.5667C21.9589 19.7805 22.1048 20.0519 22.1048 20.1697C22.1048 20.2875 22.2049 20.5583 22.3273 20.7716C22.4496 20.9849 22.5377 21.201 22.5229 21.2519C22.5081 21.3028 22.623 21.4492 22.778 21.5773C22.9822 21.7458 23.0361 21.8843 22.9732 22.0787C22.9175 22.2508 22.9633 22.4328 23.1006 22.5848C23.2186 22.7154 23.3151 23.0245 23.3151 23.2717C23.3151 23.564 23.382 23.7409 23.5065 23.778C23.6117 23.8093 23.732 23.9041 23.7738 23.9887C23.8162 24.0742 23.7916 24.1146 23.7186 24.0795C23.6441 24.0439 23.6219 24.0866 23.6672 24.1784C23.7113 24.2675 23.8467 24.344 23.9683 24.3485C24.0899 24.353 24.1271 24.3769 24.0513 24.4015C23.8876 24.4547 23.9633 25.2789 24.132 25.2789C24.1958 25.2789 24.2114 25.3528 24.1667 25.4434C24.0982 25.5818 24.2161 25.965 24.6297 26.9476C24.7202 27.1626 24.7758 27.5097 24.8452 28.2913C24.8776 28.6576 24.9628 28.9861 25.0343 29.0213C25.1579 29.0823 25.1939 29.3448 25.2436 30.5457C25.2554 30.8325 25.3214 31.0986 25.3903 31.1371C25.4591 31.1756 25.5315 31.4103 25.551 31.6586C25.5706 31.9069 25.5898 32.138 25.5939 32.172C25.5979 32.2061 25.7475 32.366 25.9262 32.5272C26.1982 32.7727 26.2216 32.8432 26.0702 32.9607C25.9708 33.0377 25.8281 33.1008 25.7532 33.1008C25.5611 33.1008 25.7298 34.5618 25.9508 34.8117C26.0787 34.9563 26.0882 35.0656 25.986 35.2138C25.9053 35.3306 25.8866 35.579 25.942 35.7973C25.995 36.0064 26.0574 37.3273 26.0806 38.7326C26.1038 40.138 26.1271 41.3938 26.1323 41.5235C26.1377 41.6532 26.2776 41.8644 26.4431 41.9928L26.7443 42.2264L26.426 42.2614C26.1419 42.2925 26.1161 42.3359 26.1849 42.6654C26.2274 42.8683 26.3648 43.1225 26.4905 43.2301C26.7066 43.4153 26.7043 43.4258 26.4466 43.4258C26.2253 43.4258 26.1705 43.499 26.1539 43.8169C26.1057 44.7352 26.149 45.2388 26.2873 45.3679C26.3969 45.4702 26.3815 45.5472 26.2278 45.6664C25.971 45.8656 25.9359 47.8099 26.1869 47.9349C26.2855 47.9839 26.2563 48.012 26.1056 48.0131C25.8533 48.0147 25.8041 48.3148 25.9941 48.6924C26.062 48.8275 26.0354 48.9377 25.9186 49.0053C25.8195 49.0628 25.704 49.3913 25.6619 49.7355C25.6198 50.0796 25.5638 50.5016 25.5373 50.6733C25.5108 50.8449 25.5491 51.0141 25.6224 51.0492C25.7052 51.089 25.6883 51.1681 25.5776 51.2587C25.3692 51.429 25.2731 52.1863 25.4601 52.1863C25.5301 52.1863 25.4945 52.3589 25.3809 52.57C25.2672 52.781 25.1956 53.1273 25.2216 53.3395C25.2559 53.6185 25.2219 53.7113 25.099 53.6747C24.9478 53.6297 24.8577 53.8406 24.9173 54.0999C24.9285 54.1486 24.8372 54.4771 24.7144 54.8299C24.5916 55.1829 24.4753 55.7062 24.4559 55.993C24.4366 56.2798 24.3809 56.6083 24.3319 56.723C24.2616 56.8884 24.3435 56.9735 24.727 57.1332C25.1176 57.296 25.1704 57.3525 25.0015 57.4257C24.8864 57.4756 24.7323 57.4877 24.6588 57.4526C24.5854 57.4174 24.5254 57.4441 24.5254 57.5118C24.5254 57.6047 24.4797 57.6057 24.3401 57.5158C24.1937 57.4215 24.1377 57.4461 24.0731 57.6334C23.946 58.0013 23.9684 58.0455 24.2476 57.9767C24.4675 57.9226 24.5059 57.962 24.4961 58.2304C24.4866 58.4917 24.4285 58.5482 24.1688 58.5482C23.7032 58.5482 23.2919 58.9093 23.3949 59.2276C23.4417 59.3723 23.3869 59.6649 23.2709 59.8897C23.1162 60.1895 23.102 60.3227 23.2152 60.4105C23.3284 60.4983 23.2917 60.5832 23.0717 60.7422C22.8469 60.9046 22.7899 61.042 22.8337 61.3157C22.8669 61.5237 22.8247 61.7087 22.7334 61.7544C22.6465 61.7978 22.4992 61.9976 22.4059 62.1984C22.263 62.5063 22.2675 62.5812 22.435 62.6766C22.586 62.7627 22.5959 62.8187 22.4767 62.9112C22.3905 62.9781 22.248 63.0327 22.16 63.0327C21.9305 63.0327 21.4404 63.8944 21.3418 64.4711C21.2957 64.7411 21.1761 65.0548 21.0762 65.1679C20.9763 65.281 20.8945 65.4422 20.8945 65.5261C20.8945 65.6099 20.759 65.8927 20.5933 66.1546C20.4019 66.457 20.2915 66.8248 20.2907 67.1621C20.2896 67.5688 20.242 67.6911 20.0876 67.6835C19.9634 67.6775 19.8695 67.784 19.8434 67.9605C19.82 68.1183 19.7509 68.2474 19.6898 68.2474C19.538 68.2474 19.1463 69.0289 19.1463 69.3318C19.1463 69.4669 19.0555 69.636 18.9446 69.7074C18.7246 69.849 18.6674 70.2289 18.8662 70.2289C18.9339 70.2289 19.0199 70.1703 19.0573 70.0985C19.0989 70.0183 19.1292 70.0362 19.1357 70.1447C19.1414 70.2419 18.9635 70.4052 18.7402 70.5075C18.5168 70.6098 18.3636 70.7532 18.3998 70.8262C18.4358 70.8992 18.4128 70.959 18.3486 70.959C18.2841 70.959 18.2379 71.1318 18.2455 71.343C18.2535 71.5584 18.1885 71.7454 18.0978 71.7689C18.0089 71.7918 17.936 71.8714 17.936 71.9457C17.936 72.0199 17.8452 72.139 17.7343 72.2105C17.6233 72.2819 17.5325 72.4284 17.5325 72.5361C17.5325 72.6438 17.4056 72.8304 17.2504 72.9507C17.0686 73.0917 16.9899 73.2572 17.0292 73.4164C17.0627 73.5522 17.0231 73.6848 16.9415 73.7111C16.842 73.7431 16.8534 73.7918 16.9762 73.8586C17.131 73.9426 17.131 73.9683 16.9762 74.023C16.8354 74.0727 16.8315 74.1017 16.9598 74.1482C17.0881 74.1947 17.0815 74.2438 16.932 74.3598C16.8248 74.4429 16.7704 74.5917 16.8113 74.6904C16.8682 74.828 16.855 74.8369 16.7551 74.7284C16.6454 74.6093 16.6062 74.6093 16.5071 74.7284C16.4424 74.8062 16.3833 74.9403 16.3757 75.0264C16.3682 75.1124 16.353 75.265 16.3421 75.3653C16.3312 75.4656 16.2315 75.5478 16.1205 75.5478C15.9801 75.5478 15.9188 75.6573 15.9188 75.9076C15.9188 76.1255 15.8358 76.3035 15.7086 76.3587C15.5931 76.4089 15.4844 76.5238 15.4673 76.6141C15.4503 76.7044 15.3583 76.8512 15.2631 76.9402C15.1677 77.0293 15.1263 77.1917 15.1711 77.3011C15.2191 77.4185 15.1685 77.5539 15.0478 77.6317C14.9351 77.7042 14.8426 77.8399 14.842 77.9332C14.8416 78.0266 14.721 78.2438 14.574 78.4159C14.427 78.5879 14.3064 78.8109 14.306 78.9112C14.3054 79.0116 14.2574 79.0938 14.1993 79.0938C14.0939 79.0938 14.0393 79.3377 14.0377 79.8153C14.0372 79.954 13.9399 80.1504 13.8216 80.2519C13.7031 80.3534 13.6392 80.4777 13.6794 80.5283C13.7198 80.5788 13.6349 80.686 13.4909 80.7665C13.347 80.8469 13.2292 80.9671 13.2292 81.0334C13.2292 81.0998 13.1384 81.2125 13.0275 81.2839C12.7674 81.4513 12.7674 81.7011 13.0275 81.7011C13.1384 81.7011 13.2292 81.6541 13.2292 81.5968C13.2292 81.5394 13.2841 81.4925 13.351 81.4925C13.418 81.4925 13.4036 81.6063 13.319 81.7454C13.205 81.9327 13.1211 81.9699 12.9955 81.889C12.9022 81.8289 12.8196 81.8208 12.8119 81.8709C12.8043 81.9208 12.7787 82.1402 12.7552 82.3584C12.7089 82.7885 12.4971 83.0569 12.2042 83.0569C12.1023 83.0569 12.0189 83.1055 12.0189 83.1648C12.0189 83.2243 11.9152 83.3955 11.7885 83.5455C11.6617 83.6956 11.5447 83.8886 11.5285 83.9746C11.5122 84.0607 11.4254 84.1662 11.3359 84.2092C11.2462 84.2522 11.2103 84.3629 11.2559 84.4552C11.3076 84.5597 11.2389 84.6716 11.0738 84.7516C10.9279 84.8222 10.8086 84.9575 10.8086 85.0522C10.8086 85.1489 10.6612 85.2531 10.4724 85.2899C10.2875 85.3259 10.1362 85.4282 10.1362 85.5171C10.1362 85.661 10.1137 85.6617 9.93447 85.5227C9.82353 85.4366 9.73276 85.3159 9.73276 85.2544C9.73276 85.193 9.67063 85.1427 9.59478 85.1427C9.51638 85.1427 9.54717 85.0075 9.66619 84.8289C9.81654 84.6034 9.83778 84.4605 9.74163 84.3211C9.66794 84.2145 9.64924 84.095 9.69994 84.0557C9.75064 84.0164 9.70492 83.9423 9.59814 83.8911C9.42977 83.8104 9.43031 83.7904 9.60204 83.7395C9.76799 83.6903 9.7891 83.4406 9.73276 82.1955C9.69577 81.3787 9.6124 80.6464 9.54744 80.5682C9.47146 80.4769 9.4954 80.3938 9.61468 80.3353C9.76234 80.2627 9.76395 80.2439 9.62235 80.2425C9.52458 80.2417 9.3659 80.18 9.26974 80.1054C9.12639 79.9942 9.13715 79.9295 9.32972 79.7451C9.51853 79.5642 9.5426 79.4327 9.45264 79.0724C9.39131 78.826 9.33846 78.5893 9.33524 78.5462C9.33201 78.5032 9.23854 78.468 9.1276 78.468C9.01665 78.468 8.92588 78.4196 8.92588 78.3605C8.92588 78.3012 9.01665 78.2258 9.1276 78.1929C9.36711 78.1215 9.38903 77.9303 9.17655 77.7655C8.99863 77.6275 8.62841 77.8516 8.6662 78.0746C8.71865 78.3834 8.63984 78.4819 8.35435 78.4639C7.65183 78.4198 7.4528 78.4635 7.54142 78.6426C7.60691 78.7748 7.57329 78.8009 7.40277 78.7501C7.26843 78.7102 7.17685 78.7344 7.17577 78.8102C7.17483 78.8802 7.13745 79.043 7.09293 79.172C7.03322 79.3445 7.0694 79.4066 7.22916 79.4066C7.47701 79.4066 7.50551 79.5435 7.31536 79.8191C7.21154 79.9697 7.23952 80.0206 7.44984 80.0633C7.59602 80.0929 7.71557 80.1716 7.71557 80.2383C7.71557 80.3117 7.61014 80.3334 7.44742 80.2933C7.23629 80.2414 7.19756 80.2642 7.26533 80.4012C7.31267 80.4967 7.27609 80.6109 7.18424 80.655C7.09239 80.699 7.00687 80.9054 6.99422 81.1138C6.97607 81.413 7.02112 81.4925 7.20899 81.4925C7.53335 81.4925 7.51062 81.768 7.18061 81.835C6.93976 81.8838 6.91999 81.9601 6.97029 82.6474C7.00808 83.1629 6.96652 83.495 6.84078 83.6837C6.68344 83.9196 6.68358 84.0032 6.84146 84.2392C6.94366 84.3919 6.98078 84.517 6.92403 84.517C6.86728 84.517 6.84751 84.6578 6.88005 84.8298C6.9126 85.0019 7.01668 85.1427 7.11136 85.1427C7.36875 85.1427 7.46046 85.4291 7.22539 85.4991C6.93748 85.5848 6.88059 85.5752 6.97499 85.4567C7.023 85.3966 6.96572 85.3809 6.83715 85.4192C6.66085 85.4717 6.65278 85.5024 6.79654 85.5744C6.94339 85.6479 6.93936 85.6831 6.77422 85.7685C6.60693 85.8549 6.6037 85.8883 6.75499 85.964C6.8779 86.0256 6.89027 86.0778 6.79291 86.1245C6.71343 86.1627 6.65359 86.3445 6.66018 86.5287C6.66663 86.7128 6.65749 86.9105 6.63987 86.9678C6.57344 87.1843 6.64606 87.25 6.82465 87.1351C6.97298 87.0397 7.00956 87.0664 7.00956 87.27C7.00956 87.4306 6.9169 87.5427 6.75741 87.575C6.41045 87.6454 6.44044 87.8301 6.80784 87.885L7.11041 87.9302L6.80784 87.9444C6.3966 87.9637 6.36419 88.4801 6.77422 88.4801C6.92214 88.4801 7.04317 88.5226 7.04317 88.5746C7.04317 88.6266 6.93304 88.6468 6.79842 88.6195C6.5019 88.5593 6.19703 88.8169 6.25957 89.0747C6.28458 89.1779 6.44031 89.3084 6.60558 89.3648C6.77085 89.4212 6.89955 89.5151 6.89148 89.5734C6.8545 89.8412 6.93721 89.9185 7.32491 89.9787C7.65492 90.0299 7.79155 89.9948 7.98547 89.8092C8.20507 89.599 8.27325 89.5878 8.6537 89.6989C9.02943 89.8088 9.11039 89.7971 9.36953 89.5961C9.53023 89.4715 9.78359 89.3826 9.93259 89.3988C10.1347 89.4206 10.157 89.4037 10.0209 89.3321C9.89359 89.2652 9.88337 89.2147 9.98732 89.1649C10.0692 89.1256 10.1362 89.0075 10.1362 88.9022C10.1362 88.6824 10.3909 88.5844 10.962 88.5844C11.1822 88.5844 11.3317 88.5458 11.2941 88.4986C11.2177 88.4028 11.6793 88.0629 11.8859 88.0629C11.9591 88.0629 12.0189 87.999 12.0189 87.921C12.0189 87.8262 12.1294 87.7953 12.3512 87.8282C12.6058 87.866 12.771 87.7964 13.0572 87.5313C13.7599 86.8805 14.1746 86.5924 14.313 86.6587C14.5002 86.7485 15.1119 86.4268 15.1119 86.2386C15.1119 86.1475 15.1917 86.1116 15.3136 86.1479C15.4477 86.1878 15.5168 86.143 15.5197 86.0143C15.5264 85.7075 15.8499 85.4556 16.2374 85.4556C16.5607 85.4556 16.5779 85.4362 16.4243 85.2456C16.2757 85.061 16.3041 85.0035 16.6586 84.7709C16.8803 84.6254 17.2586 84.4377 17.4989 84.3538C17.9892 84.1827 18.0472 84.0541 17.7017 83.9042C17.363 83.7572 17.6034 83.6327 18.2026 83.6449C18.6002 83.653 18.7037 83.6207 18.6472 83.5064C18.6012 83.4134 18.6814 83.3354 18.8598 83.2992C19.0175 83.2672 19.1463 83.1806 19.1463 83.1066C19.1463 83.0196 19.0394 82.9924 18.8437 83.0296L18.5411 83.0871L18.8597 82.8665C19.2939 82.5658 19.6885 82.4811 19.8472 82.6546C19.9419 82.7583 19.9595 82.7354 19.9128 82.5693C19.8671 82.4066 19.9019 82.3581 20.0356 82.3979C20.1382 82.4285 20.2221 82.3978 20.2221 82.3298C20.2221 82.2618 20.4673 82.0235 20.7669 81.8002C21.0665 81.5771 21.3013 81.3344 21.2888 81.261C21.2061 80.7753 21.2967 80.6581 21.756 80.6581C22.1411 80.6581 22.2034 80.6263 22.1468 80.4584C22.1009 80.3223 22.192 80.2016 22.4325 80.0792C22.6267 79.9806 22.819 79.9258 22.8599 79.9574C22.9535 80.03 23.3744 79.7076 23.6028 79.3885C23.7751 79.1476 23.804 79.0853 23.8362 78.8852C23.8455 78.8278 23.9741 78.7809 24.122 78.7809C24.275 78.7809 24.391 78.7113 24.391 78.6195C24.391 78.5309 24.5721 78.3783 24.7936 78.2806C25.2848 78.0639 25.3099 77.8867 24.8616 77.7994C24.6767 77.7634 24.5254 77.6613 24.5254 77.5725C24.5254 77.4587 24.6045 77.4305 24.7936 77.477C24.9934 77.5262 25.0424 77.504 24.986 77.39C24.8626 77.1408 24.3997 77.1042 24.2183 77.3293C24.1298 77.4394 23.971 77.5294 23.8656 77.5294C23.76 77.5294 23.7129 77.5597 23.7608 77.5968C23.8575 77.6719 22.9268 78.2519 22.7022 78.2565C22.5575 78.2594 22.1048 78.9598 22.1048 79.1809C22.1048 79.2477 22.203 79.3023 22.3229 79.3023C22.5017 79.3023 22.5109 79.3306 22.3738 79.4588C22.2817 79.5448 22.1079 79.616 21.9876 79.6168C21.8004 79.6181 21.7973 79.6324 21.9664 79.7154C22.0752 79.7688 22.1173 79.8488 22.06 79.8934C21.9305 79.9937 21.6909 79.7128 21.7947 79.5825C21.8648 79.4946 21.6095 79.3076 21.4145 79.3039C21.3676 79.3031 21.2978 79.396 21.2592 79.5104C21.2206 79.6248 21.0774 79.7516 20.9409 79.7921C20.5552 79.9066 20.2151 80.2703 20.2661 80.5135C20.3017 80.6837 20.2561 80.7225 20.0654 80.6839C19.9298 80.6564 19.8187 80.5913 19.8187 80.5393C19.8187 80.4873 19.6638 80.5235 19.4744 80.6197C19.2614 80.7279 19.1862 80.8215 19.2773 80.8651C19.5468 80.9943 19.2657 81.2714 18.8323 81.304C18.4462 81.333 18.4027 81.3724 18.3648 81.7275C18.3264 82.0889 18.3016 82.1099 18.0419 82.0021C17.7996 81.9015 17.7731 81.9105 17.8503 82.0665C17.9188 82.2049 17.883 82.2361 17.6986 82.1987C17.4013 82.1384 17.0784 82.3868 17.1821 82.5962C17.2318 82.6969 17.1381 82.7861 16.9135 82.8523C16.4806 82.98 16.2499 82.8851 16.477 82.6729C16.5693 82.5866 16.6534 82.3679 16.6641 82.1868C16.6954 81.6526 16.7172 81.5968 16.8947 81.5968C17.0569 81.5968 17.3981 80.9299 17.3981 80.6128C17.3981 80.5287 17.4859 80.4218 17.5931 80.3753C17.7061 80.3262 17.8113 80.0818 17.8432 79.7937C17.8734 79.5204 17.9349 79.2684 17.9797 79.2337C18.0243 79.199 18.0052 79.0898 17.937 78.9911C17.8326 78.8396 17.8647 78.8192 18.1435 78.8606C18.3428 78.8901 18.4739 78.8609 18.4739 78.7869C18.4739 78.7195 18.4134 78.6933 18.3394 78.7287C17.9834 78.8994 18.2558 78.4897 18.8149 78.0131C18.9791 77.8732 19.2728 77.1285 19.2525 76.9036C19.2061 76.3894 19.296 76.0693 19.4867 76.0693C19.6 76.0693 19.7302 75.9871 19.776 75.8868C19.822 75.7864 19.9355 75.6339 20.0285 75.5478C20.1213 75.4618 20.2169 75.2506 20.2408 75.0785C20.2647 74.9064 20.3936 74.6086 20.5271 74.4167C20.6607 74.2248 20.7334 73.9783 20.6888 73.8691C20.6434 73.7586 20.671 73.6706 20.751 73.6706C20.83 73.6706 20.8945 73.5532 20.8945 73.4098C20.8945 73.2664 20.9587 73.1491 21.0369 73.1491C21.1152 73.1491 21.1417 73.1018 21.0957 73.0441C21.0497 72.9863 21.1368 72.8031 21.2895 72.6369C21.4421 72.4707 21.5669 72.2833 21.5669 72.2205C21.5669 72.1576 21.6274 72.1062 21.7014 72.1062C21.7753 72.1062 21.8359 71.9982 21.8359 71.8663C21.8359 71.7344 21.8898 71.5818 21.9558 71.5274C22.0217 71.4728 22.2304 71.0313 22.4196 70.5461C22.6924 69.8467 22.7301 69.6318 22.6023 69.5092C22.4737 69.3859 22.4772 69.3714 22.6195 69.4377C22.8307 69.5364 23.2963 69.1944 23.2133 69.0014C23.1832 68.9311 23.2845 68.7153 23.4385 68.5221C23.5926 68.3287 23.7186 68.0405 23.7186 67.8815C23.7186 67.7226 23.8083 67.5404 23.9177 67.4766C24.0273 67.413 24.1392 67.267 24.1665 67.1523C24.1938 67.0376 24.2502 66.8733 24.2917 66.7873C24.5467 66.2595 24.6306 65.9405 24.5652 65.7466C24.5183 65.6077 24.5748 65.4786 24.718 65.3974C24.8436 65.3262 24.9507 65.1184 24.9575 64.9328C24.9642 64.7482 25.0276 64.5971 25.0982 64.5971C25.1688 64.5971 25.1943 64.5318 25.1548 64.4522C25.1154 64.3724 25.2063 64.2046 25.3569 64.0792C25.553 63.9159 25.6092 63.7674 25.5546 63.5557C25.5038 63.3585 25.5393 63.2421 25.6614 63.2058C25.7621 63.1757 25.9447 62.8078 26.0672 62.388C26.1896 61.9682 26.3795 61.5179 26.4891 61.3872C26.5987 61.2565 26.6565 61.1097 26.6177 61.0609C26.5788 61.0122 26.64 60.8276 26.7538 60.6507C26.9563 60.3358 26.9529 59.7401 26.7465 59.3564C26.6677 59.2098 26.7173 59.1739 26.9989 59.1739C27.2209 59.1739 27.3495 59.1166 27.3495 59.0175C27.3495 58.9314 27.4002 58.861 27.4622 58.861C27.5242 58.861 27.5831 58.6914 27.5932 58.4839C27.6033 58.2765 27.6774 58.0452 27.7581 57.9698C27.9259 57.8129 28.0534 57.2815 28.03 56.8354C28.0212 56.6677 28.0839 56.497 28.1692 56.4562C28.2545 56.4153 28.3511 56.13 28.3838 55.8224C28.4704 55.0073 28.4673 54.8718 28.3558 54.605C28.2767 54.4155 28.3118 54.3527 28.5204 54.3104C28.7921 54.2553 28.7941 54.2475 28.8947 52.9164C28.9353 52.3777 29.0053 52.1189 29.1386 52.0155C29.1901 51.9757 29.2322 51.7256 29.2322 51.4597C29.2322 51.194 29.2892 50.932 29.359 50.8775C29.4631 50.7961 29.5188 50.1346 29.4944 49.2661C29.492 49.1801 29.5552 48.8985 29.6348 48.6404C29.85 47.9433 29.8936 47.3534 29.7408 47.2077C29.665 47.1354 29.6529 46.9979 29.7134 46.8949C29.8575 46.6488 29.9037 44.6773 29.7653 44.6773C29.7053 44.6773 29.7403 44.5466 29.843 44.3869C29.9585 44.2073 30.0168 43.8392 29.9958 43.422C29.9605 42.7244 29.8418 42.4405 29.6278 42.543C29.5599 42.5756 29.5403 42.5295 29.5843 42.4404C29.6284 42.3514 29.7259 42.2786 29.8009 42.2786C29.8797 42.2786 29.8667 42.2123 29.7701 42.1221C29.6342 41.995 29.6401 41.9657 29.8023 41.9657C29.9662 41.9657 29.9934 41.8139 29.9546 41.1151C29.9287 40.6472 29.8786 40.2421 29.8435 40.2148C29.8083 40.1876 29.8275 40.0894 29.886 39.9965C29.9445 39.9036 29.9541 39.6619 29.9072 39.4591ZM26.5803 76.5125C26.5472 76.4409 26.3285 76.3876 26.0944 76.3943C25.8081 76.4024 25.7567 76.4231 25.9375 76.4577C26.0854 76.4858 26.2835 76.5575 26.3778 76.6168C26.5779 76.7428 26.6655 76.6976 26.5803 76.5125ZM26.2737 47.7018C26.1997 47.7018 26.1392 47.652 26.1392 47.5913C26.1392 47.5306 26.1997 47.5099 26.2737 47.5453C26.3476 47.5808 26.4081 47.6304 26.4081 47.6558C26.4081 47.6811 26.3476 47.7018 26.2737 47.7018ZM25.9083 77.0079C25.645 77.0079 25.3323 77.1924 25.3323 77.3478C25.3323 77.397 25.4079 77.4007 25.5004 77.3557C25.5928 77.3109 25.754 77.2729 25.8587 77.2714C26.1504 77.2672 26.1992 77.0079 25.9083 77.0079ZM25.6545 29.318C25.6099 29.2834 25.605 29.1934 25.6439 29.1182C25.6868 29.035 25.7187 29.0597 25.7251 29.1812C25.7309 29.2911 25.6992 29.3527 25.6545 29.318ZM25.4668 76.7472C25.3928 76.7117 25.3323 76.7559 25.3323 76.8453C25.3323 76.9347 25.3928 77.0079 25.4668 77.0079C25.5408 77.0079 25.6013 76.9638 25.6013 76.9098C25.6013 76.8558 25.5408 76.7826 25.4668 76.7472ZM25.0554 27.5733C24.9858 27.5733 24.9289 27.5264 24.9289 27.469C24.9289 27.4117 25.0233 27.3648 25.1385 27.3648C25.2538 27.3648 25.3108 27.4117 25.2651 27.469C25.2194 27.5264 25.1251 27.5733 25.0554 27.5733ZM25.0041 22.2544C24.9714 22.2544 24.9074 22.2075 24.8616 22.1501C24.8159 22.0928 24.8427 22.0458 24.9209 22.0458C24.9992 22.0458 25.0634 22.0928 25.0634 22.1501C25.0634 22.2075 25.0367 22.2544 25.0041 22.2544ZM23.685 22.0106C23.5924 21.9817 23.6681 21.958 23.853 21.958C24.038 21.958 24.1135 21.9817 24.0211 22.0106C23.9286 22.0396 23.7773 22.0396 23.685 22.0106ZM22.6427 20.7943C22.5688 20.7943 22.5092 20.7122 22.5103 20.6118C22.512 20.4558 22.5314 20.452 22.6427 20.5857C22.8068 20.7825 22.8068 20.7943 22.6427 20.7943ZM21.6649 68.1565C21.4463 67.9869 21.651 67.89 21.881 68.0543C21.9897 68.132 22.0186 68.2122 21.9453 68.233C21.8722 68.2538 21.746 68.2194 21.6649 68.1565ZM21.8359 18.8649C21.7619 18.9004 21.7014 18.8796 21.7014 18.8189C21.7014 18.7582 21.7619 18.7085 21.8359 18.7085C21.9098 18.7085 21.9703 18.7291 21.9703 18.7545C21.9703 18.7798 21.9098 18.8295 21.8359 18.8649ZM20.8273 80.241C20.7163 80.241 20.6256 80.194 20.6256 80.1367C20.6256 80.0793 20.7163 80.0324 20.8273 80.0324C20.9382 80.0324 21.029 80.0793 21.029 80.1367C21.029 80.194 20.9382 80.241 20.8273 80.241ZM15.9188 83.7869C15.8448 83.7869 15.7843 83.7663 15.7843 83.7409C15.7843 83.7156 15.8448 83.6659 15.9188 83.6305C15.9928 83.595 16.0533 83.6158 16.0533 83.6765C16.0533 83.7372 15.9928 83.7869 15.9188 83.7869ZM9.1276 83.2654C9.01665 83.2654 8.92588 83.2185 8.92588 83.1612C8.92588 83.1038 9.01665 83.0569 9.1276 83.0569C9.23854 83.0569 9.32932 83.1038 9.32932 83.1612C9.32932 83.2185 9.23854 83.2654 9.1276 83.2654ZM8.86658 3.79468C8.8339 3.79468 8.76989 3.74775 8.72416 3.69039C8.67844 3.63303 8.7052 3.5861 8.78347 3.5861C8.86173 3.5861 8.92588 3.63303 8.92588 3.69039C8.92588 3.74775 8.89926 3.79468 8.86658 3.79468ZM8.72416 83.8912C8.61322 83.8912 8.52244 83.8443 8.52244 83.7869C8.52244 83.7296 8.42158 83.6826 8.29827 83.6826C8.17508 83.6826 8.11175 83.6535 8.1576 83.618C8.27864 83.5241 8.92588 83.6681 8.92588 83.7889C8.92588 83.8452 8.83511 83.8912 8.72416 83.8912ZM8.12223 80.1407C7.95521 79.9311 8.09426 79.7984 8.31656 79.9552C8.43423 80.0381 8.45373 80.1217 8.37115 80.188C8.28657 80.2559 8.20104 80.2396 8.12223 80.1407ZM8.3378 81.0644C8.14294 81.1898 7.71557 81.1181 7.71557 80.9599C7.71557 80.9087 7.80634 80.8667 7.91729 80.8667C8.02823 80.8667 8.11901 80.7906 8.11901 80.6976C8.11901 80.559 8.15545 80.5518 8.32073 80.6581C8.57072 80.8191 8.57462 80.9119 8.3378 81.0644ZM8.21758 87.8672C8.08579 87.7642 8.10126 87.7523 8.29289 87.8088C8.42549 87.8481 8.50012 87.9064 8.4587 87.9385C8.41742 87.9706 8.30889 87.9386 8.21758 87.8672ZM8.01815 79.0906C7.70091 79.0879 7.68195 79.0723 7.88474 78.9806C8.01479 78.9219 8.18114 78.9027 8.25456 78.9378C8.47955 79.0457 8.40491 79.0939 8.01815 79.0906ZM7.70764 82.4311C7.5554 82.4311 7.46813 82.3842 7.51385 82.3268C7.55957 82.2695 7.6841 82.2225 7.79074 82.2225C7.89739 82.2225 7.98453 82.2695 7.98453 82.3268C7.98453 82.3842 7.85987 82.4311 7.70764 82.4311ZM7.51385 84.8298C7.40291 84.8298 7.31213 84.7609 7.31213 84.6766C7.31213 84.5834 7.39094 84.547 7.51385 84.5835C7.6248 84.6166 7.71557 84.6855 7.71557 84.7367C7.71557 84.7879 7.6248 84.8298 7.51385 84.8298ZM6.83823 1.91533C6.72554 1.84274 6.66099 1.76192 6.69474 1.73564C6.78807 1.66336 7.04317 1.81031 7.04317 1.93629C7.04317 2.00554 6.96598 1.99762 6.83823 1.91533ZM5.77356 2.85605C5.74088 2.85605 5.67687 2.80912 5.63115 2.75176C5.58542 2.6944 5.61218 2.64746 5.69045 2.64746C5.76872 2.64746 5.83286 2.6944 5.83286 2.75176C5.83286 2.80912 5.80624 2.85605 5.77356 2.85605Z" fill="#6966FF"/>
</svg>
