<svg width="326" height="99" viewBox="0 0 326 99" fill="none" xmlns="http://www.w3.org/2000/svg">
<path fill-rule="evenodd" clip-rule="evenodd" d="M135.625 0.860554C135.159 1.35712 134.781 1.41006 134.334 1.04002C133.46 0.317099 129.586 2.22171 128.967 3.67865C128.613 4.50896 128.573 4.29823 128.805 2.84331L129.117 0.897356L126.9 1.28453C123.658 1.85117 122.718 1.91217 122.161 1.59205C121.441 1.17917 118.209 1.52248 117.523 2.08459C117.141 2.39816 116.864 2.33917 116.717 1.91167C116.538 1.38888 116.165 1.38132 114.83 1.87235C113.695 2.28926 112.869 2.32556 112.233 1.98679C111.521 1.60717 111.056 1.7322 110.272 2.51411C109.416 3.3666 108.882 3.47801 107.098 3.17755C105.918 2.97841 104.726 2.8912 104.447 2.98345C104.169 3.07521 102.689 3.2204 101.159 3.30559C96.7364 3.55212 96.6059 3.57127 96.6059 3.9771C96.6059 4.18934 95.8885 4.2574 95.0113 4.12935C93.5856 3.92064 93.4465 4.01037 93.699 4.97276C93.8887 5.69569 93.7475 6.04959 93.27 6.04959C92.8789 6.04959 92.5587 5.7093 92.5587 5.29339C92.5587 4.78926 92.0528 4.53719 91.041 4.53719C90.1642 4.53719 89.5233 4.80337 89.5233 5.16736C89.5228 5.55655 88.7396 5.82323 87.4739 5.86507C85.1422 5.9417 84.4041 6.3929 85.4907 7.07751C85.9946 7.39512 86.031 7.54888 85.6025 7.55442C85.255 7.55846 84.9702 7.90227 84.9702 8.31818C84.9702 8.73409 84.6287 9.07438 84.2113 9.07438C83.7939 9.07438 83.4525 8.73409 83.4525 8.31818C83.4525 7.90227 83.6801 7.56198 83.9584 7.56198C84.2366 7.56198 84.4643 7.33512 84.4643 7.05785C84.4643 6.29762 83.0938 6.45289 82.7877 7.24741C82.6248 7.66987 82.0476 7.85136 81.3125 7.71121C80.1965 7.49897 80.1206 7.61593 80.3123 9.25184C80.5096 10.9351 81.7617 12.1138 82.4002 11.2169C82.5616 10.9906 83.3199 10.7652 84.0848 10.7168C84.8498 10.6684 85.7609 10.6029 86.1084 10.5712C86.4565 10.5394 87.2528 10.67 87.8791 10.861C88.729 11.1207 89.0174 11.0052 89.0174 10.4058C89.0174 9.75294 89.2587 9.69497 90.315 10.0952C92.2678 10.8348 94.0764 10.7078 94.0764 9.83058C94.0764 9.36022 94.5539 9.07438 95.3411 9.07438C96.0802 9.07438 96.6059 9.36426 96.6059 9.77109C96.6059 10.7259 100.608 10.7864 100.973 9.83713C101.119 9.45903 101.846 9.1616 102.59 9.17571C105.164 9.22512 105.712 9.07085 105.712 8.296C105.712 7.86799 105.997 7.55442 106.344 7.59979C106.692 7.64466 107.497 7.65474 108.133 7.62147C109.123 7.57055 109.212 7.41881 108.754 6.56531C108.317 5.75164 108.36 5.62259 108.989 5.86256C109.413 6.02489 109.759 6.47356 109.759 6.85973C109.759 7.24589 110.076 7.56198 110.464 7.56198C110.851 7.56198 111.298 7.89875 111.457 8.31012C111.88 9.40913 117.981 9.11723 119.371 7.93151C120.44 7.01954 121.657 6.73168 121.178 7.50451C121.026 7.75003 121.473 8.05956 122.172 8.19316C122.871 8.32625 123.567 8.235 123.719 7.9905C123.87 7.74549 124.206 7.67592 124.465 7.83573C124.724 7.99503 124.936 7.88513 124.936 7.59173C124.936 7.29832 125.405 7.05785 125.978 7.05785C126.551 7.05785 126.879 7.28471 126.707 7.56198C126.515 7.87203 127.233 8.03688 128.574 7.9905C130.028 7.94008 130.3 7.84581 129.391 7.70768C128.419 7.55997 128.112 7.27967 128.323 6.73269C128.485 6.31073 128.757 6.15445 128.927 6.38534C129.406 7.03617 131.418 8.06612 132.212 8.06612C132.604 8.06612 133.973 7.07953 135.254 5.87314C136.849 4.37184 137.584 3.9403 137.584 4.50442C137.584 4.95713 136.897 5.73249 136.057 6.22654C134.338 7.23833 134.484 8.06612 136.379 8.06612C137.188 8.06612 137.516 7.86144 137.291 7.49846C137.039 7.09163 137.195 7.07298 137.839 7.43242C138.978 8.06763 140.619 7.66281 140.619 6.7468C140.619 6.36366 140.847 6.04959 141.125 6.04959C141.403 6.04959 141.631 6.35207 141.631 6.7216C141.631 7.77624 147.589 7.65575 147.875 6.59556C148.052 5.93767 148.1 5.95229 148.149 6.67975C148.217 7.69608 149.244 7.84026 150.13 6.95703C150.59 6.49826 150.737 6.49574 150.737 6.94644C150.737 7.60584 159.622 7.57711 160.686 6.91468C161.009 6.71252 161.39 6.8325 161.532 7.18086C161.729 7.66432 161.91 7.64113 162.301 7.08205C162.582 6.67925 162.701 6.17159 162.566 5.9533C162.431 5.73551 162.673 5.69216 163.105 5.85701C163.537 6.02236 163.891 6.42466 163.891 6.75184C163.891 7.40167 164.857 7.54988 168.697 7.48939C170.088 7.46721 173.047 7.50098 175.273 7.564C182.364 7.76515 182.802 7.74145 183.001 7.14658C183.136 6.74176 183.427 6.79318 183.95 7.31445C184.903 8.26323 188.035 8.28289 190.267 7.35378C191.74 6.74025 192.113 6.74025 192.954 7.35378C194.149 8.22492 195.193 8.30507 194.346 7.46116C193.52 6.63791 193.583 6.04959 194.497 6.04959C194.915 6.04959 195.256 6.38988 195.256 6.80579C195.256 7.22169 195.655 7.58064 196.142 7.60282C196.628 7.62551 197.71 7.69759 198.545 7.76313C199.379 7.82867 200.23 7.64012 200.434 7.3442C200.683 6.98425 200.808 7.0145 200.814 7.43595C200.818 7.78279 201.333 8.06259 201.959 8.05855C202.751 8.05301 202.898 7.92446 202.442 7.63559C201.914 7.30236 201.932 7.09969 202.533 6.60262C203.142 6.09899 203.382 6.1736 203.829 7.00643C204.158 7.61794 204.682 7.91236 205.136 7.73894C205.552 7.57963 206.175 7.67945 206.519 7.96075C207.538 8.79308 209.206 8.87172 210.102 8.13014C210.646 7.68096 210.939 7.63659 210.939 8.00461C210.939 8.60503 212.574 8.78955 213.116 8.25013C213.844 7.52468 217.471 7.57207 217.887 8.31264C218.327 9.09656 220.494 9.31334 223.731 8.89743C224.785 8.76182 226.322 8.84399 227.146 9.07942C227.971 9.31536 228.646 9.32544 228.646 9.10211C228.646 8.87878 229.215 8.69628 229.91 8.69628C230.606 8.69628 231.175 8.98162 231.175 9.33048C231.175 10.0882 233.08 10.6881 233.31 10.0025C233.398 9.73983 234.319 9.33401 235.358 9.10059C237.052 8.71997 237.246 8.78047 237.246 9.68791C237.246 10.5827 237.464 10.6584 239.143 10.3458C240.187 10.1517 240.864 10.1699 240.648 10.3861C240.081 10.9558 243.448 12.0024 244.157 11.4771C244.501 11.2225 244.88 11.2613 245.072 11.5703C245.252 11.8612 246.259 12.0992 247.309 12.0992C248.36 12.0992 249.383 12.2625 249.583 12.4622C250.15 13.0268 255.13 13.0384 255.838 12.4773C256.292 12.1168 256.47 12.2131 256.47 12.8186C256.47 13.4926 256.951 13.6549 258.873 13.6282C260.195 13.6096 262.041 13.7411 262.977 13.9206C264.076 14.1313 264.809 14.032 265.053 13.6398C265.342 13.1745 265.594 13.1901 266.135 13.7063C267.161 14.6849 269.466 15.617 269.868 15.2162C270.497 14.5891 272.625 14.8129 272.903 15.5358C273.119 16.0949 273.332 16.1176 273.908 15.6417C274.637 15.0383 275.911 15.375 275.487 16.0586C275.29 16.3757 276.718 16.4458 278.603 16.2109C278.951 16.1675 279.254 15.735 279.276 15.25C279.307 14.5447 279.375 14.5195 279.611 15.124C279.773 15.5399 280.245 16.1292 280.66 16.4337C281.075 16.7382 281.265 17.2277 281.083 17.5211C280.878 17.8513 281.119 17.9592 281.717 17.8034C282.247 17.6653 283.509 17.9436 284.52 18.4215C285.532 18.8999 287.488 19.2916 288.868 19.2916C290.248 19.2916 291.377 19.4882 291.377 19.7282C291.377 19.9687 291.719 20.1653 292.136 20.1653C292.553 20.1653 292.895 19.9142 292.895 19.6072C292.895 19.3002 293.236 19.1797 293.654 19.3395C294.071 19.4988 294.413 19.4096 294.413 19.1414C294.413 18.3393 295.797 18.5889 296.129 19.4504C296.583 20.6291 296.55 20.6694 295.136 20.6694C293.899 20.6694 293.878 20.7128 294.715 21.5471C295.343 22.1722 295.656 22.2463 295.804 21.8042C295.945 21.3823 296.544 21.5885 297.675 22.4485C298.727 23.2486 299.661 23.5899 300.215 23.3781C300.734 23.18 301.27 23.3302 301.53 23.7466C301.77 24.1338 302.373 24.4509 302.87 24.4509C303.366 24.4514 303.8 24.7353 303.835 25.0811C303.87 25.4274 303.927 25.9013 303.961 26.1337C304.138 27.3159 308.578 28.2556 308.578 27.1107C308.578 26.7719 308.932 26.9993 309.366 27.6159C309.8 28.2329 310.03 28.9382 309.877 29.1832C309.509 29.7781 310.533 30.5363 312.26 30.9477C313.097 31.1473 314.222 32.085 315.042 33.2667C315.8 34.3581 316.7 35.2595 317.042 35.2701C317.385 35.2807 317.82 35.9053 318.01 36.659C318.2 37.4122 318.774 38.4769 319.287 39.0254C319.92 39.7024 320.1 40.3553 319.848 41.0591C319.644 41.6287 319.527 42.9889 319.588 44.0808C319.649 45.1733 319.359 46.5828 318.944 47.214C318.529 47.8452 318.19 48.7093 318.19 49.1353C318.19 49.5607 317.962 49.8521 317.683 49.7831C317.404 49.7135 316.888 50.2242 316.536 50.9174C316.184 51.6105 315.387 52.4015 314.766 52.6753C314.145 52.949 313.637 53.5615 313.637 54.0364C313.637 54.5118 313.315 55.0815 312.922 55.3033C312.528 55.5251 312.13 56.3872 312.037 57.219C311.913 58.3205 311.589 58.7455 310.847 58.7828C309.51 58.8504 307.119 60.1173 305.554 61.5873C304.865 62.2346 304.242 62.7141 304.168 62.652C303.794 62.3365 299.094 64.4412 298.088 65.3754C297.736 65.702 297.448 66.2389 297.448 66.5681C297.448 66.911 297.032 67.0587 296.475 66.9135C295.94 66.7743 294.797 67.0879 293.934 67.6112C293.07 68.134 292.036 68.562 291.636 68.562C291.235 68.562 290.064 69.299 289.035 70.1994C288.006 71.1003 286.746 71.7663 286.235 71.68C285.581 71.5696 285.306 71.8338 285.306 72.5729C285.306 73.4581 285.095 73.5695 283.959 73.2852C282.843 73.0064 282.666 73.0916 282.931 73.7798C283.145 74.3358 282.987 74.6116 282.454 74.6116C281.953 74.6116 281.765 74.3303 281.948 73.8554C282.146 73.3412 281.921 73.0992 281.244 73.0992C280.696 73.0992 280.247 73.2882 280.247 73.5191C280.247 73.7505 279.963 73.9779 279.615 74.0253C274.055 74.781 271.253 75.8477 271.045 77.2885C270.904 78.267 270.815 78.2968 270.151 77.5849C269.399 76.7788 269.374 76.7814 264.985 78.1158C263.964 78.4263 262.276 78.7893 261.233 78.9219C260.191 79.055 259.076 79.3807 258.756 79.6453C258.436 79.91 256.823 80.2755 255.172 80.4575C253.507 80.641 251.106 81.3533 249.781 82.0581C247.861 83.0775 247.245 83.207 246.651 82.7155C246.11 82.2683 245.639 82.2487 244.9 82.6429C244.344 82.9393 243.112 83.1818 242.163 83.1818C241.214 83.1818 239.731 83.5327 238.868 83.9617C237.902 84.4422 235.318 84.8369 232.144 84.9891C229.309 85.1253 226.596 85.4464 226.116 85.703C225.635 85.9591 223.674 86.2056 221.758 86.251C219.842 86.2964 217.359 86.6366 216.239 87.0077C215.119 87.3782 212.729 87.7225 210.927 87.773C208.633 87.8375 207.295 88.141 206.462 88.7863C205.43 89.5863 205.178 89.6125 204.548 88.9844C204.02 88.4581 203.487 88.388 202.591 88.7273C201.914 88.9839 200.499 89.176 199.447 89.1543C198.394 89.1326 197.305 89.1639 197.027 89.2239C196.749 89.2843 195.804 89.2949 194.928 89.2481C194.052 89.2012 193.185 89.4053 193.001 89.7013C192.817 89.9972 192.139 90.2397 191.494 90.2397C190.849 90.2397 190.043 90.5734 189.703 90.9818C189.194 91.5938 188.969 91.6079 188.422 91.0634C187.601 90.2442 181.804 90.4484 180.734 91.3342C180.16 91.8085 179.912 91.7949 179.587 91.2696C179.276 90.769 177.753 90.6218 173.55 90.6863C167.405 90.7806 165.416 91.2525 165.393 92.6217C165.378 93.4505 165.337 93.447 164.828 92.5738C164.383 91.8111 164.193 91.7632 163.831 92.3217C163.481 92.8637 163.323 92.7911 163.1 91.983C162.907 91.2842 162.338 90.9172 161.33 90.8406C160.512 90.7786 159.843 90.9283 159.843 91.1738C159.843 91.4193 159.16 91.5403 158.326 91.4435C157.491 91.3467 156.808 91.4733 156.808 91.7249C156.808 92.3787 155.258 92.6277 153.731 92.2199C152.748 91.9573 152.277 92.106 151.829 92.8198C151.502 93.3416 150.849 93.7686 150.379 93.7686C149.713 93.7686 149.658 93.634 150.13 93.1636C151.417 91.8811 150.716 91.5005 147.187 91.564C145.235 91.5988 143.519 91.4375 143.375 91.2046C142.99 90.5845 140.703 91.7566 140.448 92.7044C140.273 93.3587 140.219 93.3366 140.172 92.5899C140.119 91.7627 139.693 91.6775 136.193 91.799C134.036 91.8736 131.767 92.112 131.151 92.3283C130.492 92.5602 129.899 92.5083 129.709 92.2028C129.532 91.9169 129.04 91.8161 128.615 91.9784C128.191 92.1408 127.588 92.0757 127.275 91.8337C125.634 90.5633 123.465 91.011 122.782 92.7603C122.547 93.3613 122.479 93.3335 122.447 92.6262C122.418 91.9956 122.002 91.742 121.016 91.7571C120.251 91.7682 119.062 91.7153 118.375 91.6386C116.999 91.4859 116.241 93.087 117.363 93.7777C117.704 93.9879 117.827 94.4124 117.636 94.7204C117.134 95.5295 116.336 95.4096 116.336 94.5248C116.336 94.1089 116.1 93.7686 115.812 93.7686C115.466 93.7686 115.481 93.4102 115.858 92.7084C116.406 91.687 116.333 91.6553 113.851 91.8262C111.919 91.9598 111.276 91.8312 111.276 91.3125C111.277 90.7544 111.13 90.7418 110.518 91.2479C110.058 91.6286 109.759 91.6689 109.759 91.3503C109.759 91.0428 108.448 90.8225 106.597 90.8189C104.859 90.8154 100.894 90.7367 97.7881 90.6445C94.6819 90.5527 92.246 90.648 92.3755 90.8567C92.6892 91.3619 91.0835 90.7559 89.6002 89.8086C88.7386 89.2591 88.1826 89.1936 87.5766 89.5702C87.1106 89.8601 86.2931 89.9155 85.729 89.6962C84.2386 89.116 80.4464 89.1588 78.1972 89.7814C76.7149 90.1913 76.1377 90.1767 75.8554 89.7219C75.6424 89.3781 74.2006 89.0877 72.5104 89.0484C70.0492 88.9914 69.3455 89.1734 68.4019 90.1136C66.9859 91.5247 66.0111 91.619 66.861 90.2624C67.5773 89.1195 67.0264 88.2579 66.1421 89.1392C65.2704 90.0078 64.4979 89.8707 65.2401 88.9793C65.5866 88.5634 65.7849 88.2116 65.6812 88.1974C65.578 88.1838 64.0537 88.0462 62.2947 87.8919C59.4268 87.6404 58.9624 87.7336 57.7968 88.7994L56.4971 89.9876L56.831 88.6012C57.1948 87.0909 57.2281 87.1085 53.7309 86.9608C52.5481 86.9104 51.5808 87.0768 51.5808 87.3303C51.5808 87.5839 51.2231 87.4347 50.786 86.9986C50.3484 86.563 49.5896 86.2066 49.0993 86.2066C48.6091 86.2066 48.0628 86.0614 47.8847 85.8845C47.7071 85.707 46.7014 85.5044 45.6506 85.4343C40.7975 85.1086 37.6999 84.6342 37.0797 84.1215C36.5788 83.7071 36.1928 83.7369 35.5903 84.2355C34.9013 84.8051 34.6767 84.7719 34.1237 84.0182C33.633 83.3497 33.4043 83.2917 33.205 83.7853C32.9966 84.3005 32.8443 84.3081 32.4977 83.8211C32.2544 83.4798 31.5264 83.3018 30.8799 83.4258C30.2328 83.5503 28.4308 83.206 26.8747 82.6611C25.319 82.1156 23.6389 81.7985 23.1421 81.9558C22.5882 82.1307 22.2356 81.9845 22.231 81.5772C22.2249 81.0882 22.0909 81.1124 21.7211 81.6694C21.2916 82.3167 21.0922 82.2653 20.3379 81.314C19.8528 80.703 18.1474 79.7074 16.5472 79.1014C14.9471 78.4959 13.6383 77.8506 13.6383 77.6676C13.6383 77.4846 12.8415 77.4272 11.8677 77.5406C10.2397 77.7301 10.097 77.6394 10.097 76.4184C10.097 75.339 9.80612 75.0325 8.54087 74.7805C7.44256 74.5617 6.59872 73.8609 5.67242 72.3984C4.9505 71.2586 4.41374 70.2493 4.4795 70.1545C4.54578 70.0598 4.27006 69.7195 3.86686 69.3983C3.46416 69.0772 2.99216 67.5124 2.81762 65.9219C2.53938 63.378 2.62336 62.9535 3.51678 62.3975C4.07529 62.0501 4.53212 61.2531 4.53212 60.6264C4.53212 60.0003 4.74915 59.4876 5.01424 59.4876C5.27933 59.4876 5.87477 58.6936 6.33666 57.7231C6.79855 56.7527 7.49264 55.9587 7.87814 55.9587C8.26363 55.9587 8.57932 55.6728 8.57932 55.324C8.57932 54.9746 9.03463 54.4054 9.59111 54.0591C10.1476 53.7128 10.6029 53.004 10.6029 52.4842C10.6029 51.9448 11.0638 51.419 11.6774 51.2592C12.5415 51.0338 12.6882 50.7268 12.4267 49.6878C12.109 48.4274 12.7601 47.8931 13.3854 48.9008C13.5574 49.1781 13.8877 49.405 14.1199 49.405C14.7488 49.405 15.2137 47.888 14.7908 47.217C14.5884 46.8954 14.4877 46.2355 14.5682 45.75C14.6481 45.265 14.4584 44.8678 14.1462 44.8678C13.8341 44.8678 13.7152 45.0881 13.8822 45.3573C14.0491 45.6265 13.6155 45.989 12.9184 46.1634C12.2213 46.3378 11.5135 46.9115 11.3456 47.4383C11.1781 47.9657 10.8285 48.3967 10.569 48.3967C10.3095 48.3967 10.097 48.673 10.097 49.0107C10.097 49.3485 9.49145 50.1435 8.75183 50.7772C8.01169 51.4104 7.15673 52.4388 6.85217 53.0614C6.54762 53.6845 5.56415 54.5345 4.66719 54.9504C3.76872 55.3668 3.03162 56.0958 3.02555 56.5732C3.01847 57.1343 2.7468 57.337 2.25557 57.1494C1.3753 56.8127 1.29942 57.3919 1.98643 59.1937C2.39216 60.2559 2.30211 60.5705 1.46637 61.0161C0.910888 61.3126 0.596218 61.7799 0.767212 62.0557C0.938206 62.3309 0.787448 62.9051 0.432307 63.3316C-0.047792 63.9083 -0.0710631 64.3333 0.342257 64.9932C0.682727 65.5357 0.722693 66.1553 0.446472 66.5903C-0.168702 67.5588 -0.140878 70.0744 0.48492 70.0744C0.763165 70.0744 1.00903 70.6985 1.03079 71.4607C1.05254 72.223 1.18559 72.5638 1.32573 72.2169C1.65709 71.3997 2.4124 71.3997 2.34056 72.2169C2.24697 73.2807 4.17293 76.6281 4.87866 76.6281C5.24442 76.6281 5.54392 76.9472 5.54392 77.3369C5.54392 77.7821 5.89703 77.954 6.49147 77.7992C7.14003 77.6303 7.78859 78.0422 8.54947 79.1069C9.16009 79.9619 10.1 80.6612 10.6373 80.6612C11.1751 80.6612 11.6147 81.0014 11.6147 81.4174C11.6147 81.8333 11.9562 82.1736 12.3736 82.1736C12.7909 82.1736 13.1324 82.4196 13.1324 82.7195C13.1324 83.02 13.4172 83.1617 13.7648 83.0346C14.1128 82.9076 14.343 82.5567 14.2768 82.2547C14.2105 81.9528 14.4953 81.8353 14.9091 81.9936C15.323 82.1519 15.6619 82.5718 15.6619 82.9262C15.6619 83.5554 18.5521 85.1984 19.659 85.1984C19.9651 85.1984 20.215 85.3909 20.215 85.6259C20.215 85.8608 20.9207 86.073 21.7838 86.0977C22.6464 86.1219 23.7578 86.5081 24.2536 86.9553C24.8587 87.5007 25.5902 87.659 26.4791 87.4367C27.2561 87.2426 27.8035 87.3172 27.8035 87.6172C27.8035 87.8985 28.2588 88.0099 28.8153 87.8652C29.9571 87.5673 30.1423 86.9215 29.1947 86.5404C28.8472 86.4007 29.0748 86.2681 29.7006 86.2464C30.3588 86.2233 30.8389 86.5046 30.8389 86.9134C30.8389 87.7553 33.6563 88.9557 35.2655 88.7994C35.8913 88.7389 36.4038 88.9002 36.4038 89.1583C36.4038 89.9382 38.0024 90.2961 38.7446 89.6826C39.2824 89.2375 39.4392 89.2833 39.4392 89.8858C39.4392 90.4736 40.2117 90.7327 42.6011 90.9465C44.3404 91.1022 46.4115 91.2051 47.2048 91.1758C48.5039 91.1274 48.6187 90.9828 48.3648 89.7179C48.1665 88.7303 48.3137 88.2262 48.8616 88.0164C50.0434 87.5648 50.1992 87.6464 49.8567 88.5362C49.6149 89.1644 49.7778 89.2914 50.5614 89.0872C51.8605 88.749 51.8707 89.3045 50.5826 90.2296C49.6634 90.89 49.6488 91.0171 50.3934 91.8373C50.9641 92.4654 51.4523 92.5945 52.0513 92.2754C52.5324 92.0182 53.2062 92.0112 53.6074 92.2582C53.9965 92.4977 54.4776 92.594 54.6759 92.4715C54.8747 92.349 55.6821 92.4957 56.4708 92.7976C57.2595 93.0996 59.0428 93.448 60.434 93.5725C61.8253 93.6965 63.3905 93.9294 63.9121 94.0897C64.5298 94.2793 64.7402 94.186 64.5146 93.8225C63.9956 92.9857 65.021 93.1505 65.746 94.0207C66.6353 95.0889 67.2637 94.9589 67.2637 93.7071C67.2637 92.9242 67.4337 92.7694 67.896 93.1294C68.2441 93.4006 69.2686 93.8704 70.1726 94.1734C71.7156 94.6907 71.8168 94.6518 71.8168 93.5493C71.8168 92.7981 72.1815 92.2789 72.827 92.1105C73.6218 91.9033 73.7442 92.0127 73.4013 92.6237C72.6373 93.9834 74.4722 95.225 77.2264 95.2129C78.5639 95.2069 80.627 95.4232 81.8113 95.6929C83.0685 95.9792 84.0808 95.9959 84.2442 95.7322C84.398 95.4842 84.2826 95.281 83.9882 95.281C83.6938 95.281 83.4525 95.104 83.4525 94.8873C83.4525 94.2647 86.3174 93.3522 86.9836 93.7626C87.3782 94.0055 87.1789 94.2465 86.4044 94.4638L85.2231 94.7945L86.3745 95.7594C87.8366 96.9845 94.9769 97.1644 95.4301 95.9878C95.7919 95.0486 96.6059 95.0829 96.6059 96.0372C96.6059 96.502 97.0799 96.7934 97.8367 96.7934C98.8723 96.7934 99.061 96.557 99.0251 95.3062C98.9942 94.2193 98.7084 93.7782 97.9637 93.6678C97.0753 93.5357 97.0424 93.4364 97.7092 92.8894C98.3558 92.3585 98.6603 92.6242 99.6898 94.6196L100.906 96.9769L101.193 95.4988C101.351 94.6856 101.303 93.5211 101.088 92.9106C100.785 92.0505 100.862 91.864 101.434 92.0823C101.839 92.237 102.174 92.6232 102.178 92.9403C102.183 93.2851 102.364 93.2372 102.628 92.8218C103.249 91.8443 104.3 92.6434 103.928 93.811C103.759 94.3423 103.848 94.7769 104.126 94.7769C104.404 94.7769 104.777 95.2306 104.953 95.7851C105.13 96.3397 105.6 96.7934 105.999 96.7934C106.398 96.7934 106.724 97.0203 106.724 97.2975C106.724 97.9695 108.556 97.9393 109.857 97.2456C110.658 96.8186 111 96.8478 111.334 97.3716C111.671 97.9015 111.769 97.8571 111.775 97.1715C111.784 96.1199 113.154 96.0135 114.272 96.9774C114.712 97.3555 115.925 97.7951 116.968 97.9539C118.448 98.1787 118.865 98.0754 118.865 97.4841C118.865 96.7233 120.095 96.8579 121.874 97.8122C122.277 98.0285 123.123 98.0099 123.753 97.7704C124.442 97.5098 125.021 97.5299 125.201 97.8208C125.642 98.5321 128.863 98.4127 129.112 97.6756C129.266 97.2209 129.523 97.1937 130.039 97.5778C130.432 97.8712 132.062 98.1677 133.66 98.2372C136.231 98.3486 136.709 98.211 137.795 97.0429L139.023 95.7226L139.188 96.8882C139.344 97.9831 139.554 98.0472 142.643 97.9443C144.451 97.8843 146.159 97.8117 146.437 97.7825C146.715 97.7538 150.051 97.8869 153.85 98.0774C160.331 98.4031 160.773 98.3668 161.001 97.483C161.215 96.6517 161.251 96.6447 161.302 97.4236C161.354 98.2105 161.919 98.5291 162.983 98.3728C163.753 98.2594 178.389 97.6938 179.7 97.7265C180.465 97.7457 181.091 97.5491 181.091 97.2895C181.091 97.0041 181.557 96.9945 182.271 97.2658C182.921 97.5118 183.754 97.5269 184.123 97.2995C184.496 97.0702 185.174 97.1216 185.645 97.415C186.173 97.7437 187.243 97.7896 188.473 97.536C189.56 97.3116 190.657 97.178 190.91 97.2391C191.163 97.3006 191.532 97.0883 191.731 96.7682C192.003 96.3281 192.359 96.3276 193.179 96.7647C193.777 97.0833 194.473 97.2164 194.726 97.0606C194.979 96.9048 196.612 96.6664 198.354 96.5318C200.097 96.3966 201.67 96.0488 201.85 95.7584C202.03 95.468 202.612 95.2386 203.143 95.2492C204.474 95.2749 205.965 95.2724 207.018 95.2432C207.505 95.2296 207.904 94.8923 207.904 94.4935C207.904 94.0948 208.245 93.7686 208.663 93.7686C209.08 93.7686 209.421 93.9955 209.421 94.2727C209.421 94.55 209.749 94.7769 210.148 94.7769C210.666 94.7769 210.868 94.1875 210.848 92.7361C210.832 91.6134 210.96 90.5548 211.132 90.3834C211.304 90.212 211.445 90.6657 211.445 91.3921C211.445 92.8672 212.412 95.281 213.003 95.281C213.95 95.281 214.986 94.61 214.986 93.9965C214.986 92.8612 216.115 92.5557 216.81 93.5029C217.589 94.5651 219.29 94.1528 218.849 93.0084C218.68 92.5688 218.845 92.2562 219.248 92.2562C219.627 92.2562 220.068 92.5965 220.229 93.0124C220.388 93.4283 221.039 93.7424 221.674 93.7101C222.53 93.6668 222.6 93.5922 221.943 93.4213C220.915 93.1536 220.742 92.2562 221.719 92.2562C222.084 92.2562 222.823 92.5778 223.362 92.9706C224.054 93.4752 224.529 93.5312 224.976 93.1611C225.423 92.7921 225.61 92.8113 225.61 93.2257C225.61 93.6164 226.163 93.7111 227.254 93.508C229.01 93.1808 229.606 93.08 234.716 92.2451C236.525 91.9492 238.46 91.499 239.017 91.2434C239.573 90.9883 240.598 90.8033 241.293 90.8325C243.101 90.9092 246.52 90.2366 247.086 89.6932C247.35 89.4391 247.998 89.2314 248.525 89.2314C249.053 89.2314 250.089 88.8079 250.827 88.2897C251.742 87.6484 252.493 87.4765 253.182 87.7503C254.782 88.386 255.452 88.2887 255.136 87.4669C254.951 86.988 255.142 86.7108 255.657 86.7108C256.104 86.7108 256.47 86.9376 256.47 87.2149C256.47 87.4922 256.812 87.719 257.229 87.719C258.125 87.719 258.134 87.6636 257.495 85.9873C257.174 85.1469 257.174 84.6942 257.495 84.6942C257.766 84.6942 257.988 85.0345 257.988 85.4504C257.988 85.8663 258.424 86.2066 258.958 86.2066C259.491 86.2066 260.003 86.4264 260.096 86.6951C260.195 86.9815 261.229 86.8378 262.593 86.3483C264.354 85.7156 265.062 85.1394 265.5 83.9814L266.08 82.4508L266.851 83.5463C267.584 84.5894 267.72 84.607 269.688 83.9153C270.825 83.5156 271.925 83.2937 272.134 83.4223C272.342 83.5503 272.411 83.1218 272.285 82.4695C272.062 81.3044 273.19 79.9796 273.533 81.0045C273.629 81.2918 274.003 81.9291 274.364 82.4211C274.943 83.2106 275.253 83.2433 277.001 82.7004C278.091 82.3621 279.948 81.6518 281.127 81.1214C282.307 80.5911 283.62 80.157 284.046 80.157C284.472 80.157 285.722 79.5899 286.824 78.8967C287.926 78.2035 289.157 77.6364 289.561 77.6364C289.963 77.6364 290.594 77.3525 290.962 77.0062C291.329 76.6599 292.395 76.315 293.328 76.2409C294.263 76.1663 295.508 75.7696 296.097 75.3587C296.686 74.9478 297.572 74.6116 298.067 74.6116C298.561 74.6116 298.966 74.2713 298.966 73.8554C298.966 73.4314 299.417 73.0992 299.993 73.0992C300.559 73.0992 301.152 72.7589 301.312 72.343C301.472 71.9271 302.154 71.5868 302.827 71.5868C303.666 71.5868 304.201 71.191 304.531 70.3265C305.001 69.0933 306.048 68.5716 306.048 69.5703C306.048 70.3159 307.024 70.1823 307.891 69.3182C308.309 68.9023 309.035 68.562 309.506 68.562C309.977 68.562 310.586 68.07 310.861 67.469C311.136 66.8676 311.814 66.1306 312.369 65.8306C312.923 65.5306 313.88 64.7749 314.494 64.1508C315.109 63.5272 315.793 63.007 316.016 62.9954C316.238 62.9833 316.988 62.2613 317.684 61.3902C318.38 60.5191 319.577 59.2118 320.344 58.4859C322.205 56.724 325.163 50.8064 323.746 51.6791C322.722 52.3098 323.081 49.9267 324.387 47.4293C325.172 45.9264 325.636 44.5653 325.417 44.4045C325.198 44.2432 325.019 42.5422 325.019 40.6245C325.018 38.2868 324.809 37.0678 324.386 36.9272C324.039 36.8117 323.755 36.4205 323.755 36.0576C323.755 35.6941 323.435 35.2746 323.044 35.1254C322.652 34.9757 322.18 34.16 321.993 33.3126C321.806 32.4651 321.443 31.6424 321.186 31.4841C320.929 31.3263 320.711 30.6996 320.701 30.0922C320.691 29.4847 320.179 28.4114 319.563 27.7071C318.03 25.9532 314.649 23.5223 314.649 24.1726C314.649 24.464 314.307 24.7025 313.89 24.7025C313.472 24.7025 313.131 24.5119 313.131 24.2795C313.131 24.0466 312.562 23.5974 311.866 23.2818C311.171 22.9657 310.596 22.3058 310.589 21.8143C310.576 20.9018 307.701 19.157 306.21 19.157C305.765 19.157 305.077 18.7598 304.681 18.2748C304.186 17.6683 303.882 17.5796 303.709 17.9915C303.537 18.3968 303.125 18.2607 302.432 17.5695C301.72 16.8607 301.034 16.6424 300.186 16.8541C299.502 17.0256 298.966 16.9368 298.966 16.6525C298.966 15.8298 295.337 13.7961 293.148 13.3913C292.035 13.1856 290.891 12.8251 290.606 12.5907C289.558 11.7286 284.273 10.2425 280.58 9.7716C279.423 9.62439 277.737 9.31183 276.833 9.07741C275.719 8.78904 275.188 8.82937 275.188 9.20294C275.188 9.50592 274.676 9.28259 274.05 8.70586C273.336 8.04797 271.97 7.56501 270.382 7.40822C268.991 7.2706 266.715 6.90409 265.323 6.59304C263.932 6.2825 261.476 5.93969 259.864 5.83079C258.252 5.72241 256.658 5.41539 256.322 5.1487C255.987 4.88202 254.118 4.64306 252.17 4.61735C248.68 4.57147 247.851 4.46813 246.352 3.89493C244.99 3.37416 240.281 3.16141 240.281 3.62068C240.281 3.8672 239.861 3.84451 239.347 3.57027C238.704 3.22746 238.231 3.25317 237.829 3.65345C237.389 4.09255 237.246 4.0628 237.246 3.53346C237.246 3.02278 237.073 3.06815 236.609 3.69983C235.891 4.67885 233.854 4.58559 233.208 3.54455C232.932 3.0984 232.268 2.98345 231.201 3.1962C230.117 3.41197 229.716 3.33887 229.946 2.96682C230.159 2.62401 229.853 2.65073 229.126 3.03841C228.167 3.5501 227.868 3.52187 227.394 2.87557C226.88 2.17483 226.761 2.18138 226.245 2.93758C225.712 3.71949 225.667 3.71646 225.64 2.89876C225.623 2.41379 225.553 1.99586 225.484 1.97065C225.414 1.94595 223.095 1.82496 220.33 1.70246C217.565 1.57945 215.024 1.24874 214.684 0.96743C214.26 0.616554 213.952 0.636215 213.709 1.02893C213.477 1.403 212.713 1.4756 211.513 1.23714C208.381 0.614033 206.386 0.664951 206.386 1.36822C206.386 1.72464 206.158 2.01653 205.88 2.01653C205.602 2.01653 205.431 1.76144 205.501 1.44938C205.571 1.13732 205.058 0.820727 204.362 0.745612C203.667 0.670496 202.586 0.445653 201.959 0.245512C201.098 -0.0292399 200.821 0.0806608 200.821 0.697215C200.821 1.14589 201.087 1.5124 201.412 1.5124C201.736 1.5124 201.831 1.68229 201.623 1.88949C201.415 2.09719 200.958 1.87688 200.608 1.39998C199.744 0.221314 197.386 0.138637 195.325 1.21445C193.984 1.91369 193.5 1.97065 193.048 1.48114C192.614 1.0128 192.629 0.947769 193.106 1.21597C193.494 1.43426 193.739 1.2684 193.739 0.785942C193.739 0.353901 193.448 0 193.093 0C192.306 0 190.177 1.37326 189.312 2.43849C188.762 3.11604 188.68 3.06916 188.68 2.07904C188.68 1.16959 188.476 1.00474 187.668 1.26033C186.947 1.4882 186.656 1.35107 186.656 0.782413C186.656 0.198124 186.215 0.00957831 185.012 0.0791486C184.107 0.132082 182.999 0.354405 182.549 0.573703C182.098 0.793 181.592 0.835347 181.423 0.667471C181.255 0.499091 179.029 0.296934 176.476 0.217785C172.967 0.109396 171.547 0.262653 170.651 0.84795C169.656 1.49727 169.423 1.50887 169.196 0.920546C168.912 0.184008 167.053 0.05495 166.007 0.699231C165.668 0.907438 165.5 1.25226 165.632 1.46501C165.764 1.67775 165.561 2.29481 165.181 2.83524C164.591 3.67412 162.908 3.98365 161.361 3.538C160.934 3.41499 163.608 2.35631 164.079 2.46269C164.322 2.51713 164.379 2.19398 164.206 1.74379C164.032 1.29411 163.891 0.715868 163.891 0.459769C163.891 0.18905 162.246 0.117463 159.97 0.288868C155.345 0.636719 155.428 0.637727 153.646 0.213752C152.582 -0.0398266 152.255 0.0670493 152.255 0.667471C152.255 1.36317 152.096 1.37023 150.864 0.72948C148.959 -0.260636 145.173 -0.196612 143.672 0.850975C142.808 1.45442 142.395 1.52752 142.253 1.10304C141.959 0.224339 139.335 0.373058 138.553 1.31226C137.94 2.04728 137.807 2.03165 137.082 1.13884C136.404 0.304496 136.186 0.262653 135.625 0.860554ZM142.137 2.2686C142.137 2.6845 141.909 3.05303 141.631 3.08781C141.353 3.1226 140.889 3.17906 140.601 3.21384C140.312 3.24863 139.86 3.61715 139.597 4.03306C138.916 5.10535 138.941 3.76083 139.625 2.48739C140.242 1.33898 142.137 1.17412 142.137 2.2686ZM115.324 3.24712C115.324 3.36962 115.096 3.60959 114.818 3.78099C114.54 3.9524 114.312 3.85207 114.312 3.55867C114.312 3.26526 114.54 3.02479 114.818 3.02479C115.096 3.02479 115.324 3.12461 115.324 3.24712ZM100.422 6.01379C99.9251 6.81587 99.1237 6.16251 99.4773 5.24348C99.6721 4.73784 99.9478 4.64104 100.272 4.96369C100.544 5.23541 100.612 5.70779 100.422 6.01379ZM224.093 5.29339C224.093 5.7093 223.758 6.04959 223.349 6.04959C222.897 6.04959 222.721 5.75417 222.898 5.29339C223.058 4.87748 223.392 4.53719 223.641 4.53719C223.889 4.53719 224.093 4.87748 224.093 5.29339ZM229.368 4.91529C229.117 5.1235 228.74 5.52025 228.533 5.79752C228.317 6.08538 228.152 5.92305 228.147 5.41942C228.143 4.9289 228.514 4.53719 228.983 4.53719C229.447 4.53719 229.62 4.70708 229.368 4.91529ZM98.1236 6.04959C98.1236 6.32686 97.8959 6.55372 97.6177 6.55372C97.3394 6.55372 97.1118 6.32686 97.1118 6.04959C97.1118 5.77231 97.3394 5.54545 97.6177 5.54545C97.8959 5.54545 98.1236 5.77231 98.1236 6.04959ZM114.175 5.84995C114.007 6.01732 113.571 6.03547 113.206 5.88978C112.802 5.72896 112.922 5.60948 113.512 5.58528C114.045 5.5636 114.343 5.68258 114.175 5.84995ZM237.246 6.59203C237.246 6.83049 236.904 6.89552 236.487 6.73622C236.07 6.57641 235.728 6.25023 235.728 6.01127C235.728 5.77282 236.07 5.70779 236.487 5.86709C236.904 6.0269 237.246 6.35308 237.246 6.59203ZM247.87 6.04959C247.87 6.32686 247.471 6.55019 246.985 6.54616C246.228 6.5396 246.209 6.46701 246.858 6.04959C247.813 5.43455 247.87 5.43455 247.87 6.04959ZM88.7644 7.05785C88.9364 7.33512 88.8357 7.56198 88.5413 7.56198C88.2469 7.56198 88.0056 7.33512 88.0056 7.05785C88.0056 6.78058 88.1057 6.55372 88.2287 6.55372C88.3516 6.55372 88.5924 6.78058 88.7644 7.05785ZM221.057 7.05785C221.057 7.33512 220.816 7.56198 220.521 7.56198C220.227 7.56198 220.126 7.33512 220.298 7.05785C220.47 6.78058 220.711 6.55372 220.834 6.55372C220.957 6.55372 221.057 6.78058 221.057 7.05785ZM233.682 8.29045C234.142 8.84298 234.162 9.07438 233.751 9.07438C233.429 9.07438 233.036 8.73409 232.876 8.31818C232.716 7.90227 232.267 7.56198 231.88 7.56198C231.492 7.56198 231.175 7.32706 231.175 7.04021C231.175 6.38736 232.752 7.1733 233.682 8.29045ZM226.991 7.36235C226.823 7.52972 226.386 7.54787 226.022 7.40217C225.618 7.24136 225.738 7.12188 226.327 7.09768C226.86 7.076 227.159 7.19498 226.991 7.36235ZM78.7309 8.9065C78.0717 9.56289 78.4071 10.5868 79.2788 10.5792C79.979 10.5732 80.0184 10.4794 79.467 10.131C79.0835 9.88906 78.9262 9.43887 79.1174 9.13084C79.4999 8.51429 79.2626 8.37666 78.7309 8.9065ZM245.709 10.3871C245.541 10.5545 245.105 10.5727 244.74 10.427C244.336 10.2661 244.456 10.1467 245.045 10.1225C245.579 10.1008 245.877 10.2198 245.709 10.3871ZM247.364 11.0909C247.364 11.3682 247.136 11.595 246.858 11.595C246.58 11.595 246.352 11.3682 246.352 11.0909C246.352 10.8136 246.58 10.5868 246.858 10.5868C247.136 10.5868 247.364 10.8136 247.364 11.0909ZM252.929 11.343C252.929 11.7589 252.701 12.0992 252.423 12.0992C252.145 12.0992 251.917 11.7589 251.917 11.343C251.917 10.9271 252.145 10.5868 252.423 10.5868C252.701 10.5868 252.929 10.9271 252.929 11.343ZM267.094 12.381C267.094 12.813 266.866 13.0268 266.588 12.8554C266.31 12.684 266.082 12.3306 266.082 12.0694C266.082 11.8083 266.31 11.595 266.588 11.595C266.866 11.595 267.094 11.9489 267.094 12.381ZM285.812 16.8884C285.812 17.3043 285.471 17.6446 285.053 17.6446C284.636 17.6446 284.295 17.3043 284.295 16.8884C284.295 16.4725 284.636 16.1322 285.053 16.1322C285.471 16.1322 285.812 16.4725 285.812 16.8884ZM303.348 21.2996C303.208 21.6464 303.093 21.3626 303.093 20.6694C303.093 19.9762 303.208 19.6929 303.348 20.0393C303.488 20.3861 303.488 20.9532 303.348 21.2996ZM64.9871 27.2231C64.8151 27.5004 64.9158 27.7273 65.2102 27.7273C65.5047 27.7273 65.746 27.5004 65.746 27.2231C65.746 26.9459 65.6458 26.719 65.5229 26.719C65.3999 26.719 65.1591 26.9459 64.9871 27.2231ZM58.2374 29.2397C58.2374 29.9329 58.3523 30.2167 58.4924 29.8698C58.633 29.5235 58.633 28.9564 58.4924 28.6095C58.3523 28.2632 58.2374 28.5465 58.2374 29.2397ZM47.6277 29.8517C46.8395 30.6371 46.8587 31.4014 47.6601 31.112C48.0081 30.9865 48.6764 31.2164 49.1459 31.6232C49.6154 32.0305 50.2412 32.2141 50.5371 32.0321C51.258 31.5879 51.2221 30.7521 50.4825 30.7521C50.1567 30.7521 49.5157 30.4148 49.0589 30.0029C48.4179 29.4247 48.0906 29.3904 47.6277 29.8517ZM40.8233 32.0618C40.6569 32.2277 40.6427 32.6799 40.792 33.0676C41.0095 33.6327 40.6149 33.7108 38.8002 33.4628C37.3594 33.2662 36.4104 33.3589 36.1878 33.7174C35.9955 34.0274 36.0795 34.281 36.374 34.281C36.6684 34.281 36.9097 34.8199 36.9097 35.4783C36.9097 36.4195 37.1804 36.6756 38.1744 36.6756C39.0653 36.6756 39.4392 36.4014 39.4392 35.748C39.4392 34.7272 40.8481 33.7839 41.8427 34.1393C42.2657 34.2906 42.3628 34.0733 42.1361 33.4845C41.9044 32.8835 41.9849 32.7192 42.3886 32.9677C42.7144 33.1684 42.9805 33.1164 42.9805 32.8523C42.9805 32.5881 42.6203 32.2347 42.1802 32.0663C41.1982 31.6908 41.1952 31.6908 40.8233 32.0618ZM43.9923 33.1422C43.9923 34.0718 44.9272 34.3798 45.8854 33.7663C46.6027 33.3065 46.6154 33.245 45.9511 33.4472C45.4979 33.5853 44.8721 33.4436 44.5599 33.1326C44.1405 32.7147 43.9923 32.7172 43.9923 33.1422ZM33.1155 34.7851C32.9434 35.0624 33.0441 35.2893 33.3386 35.2893C33.633 35.2893 33.8743 35.6109 33.8743 36.0036C33.8743 37.0386 35.0429 37.272 35.7097 36.3701C36.1402 35.7878 36.118 35.4365 35.6191 34.9399C34.8345 34.1575 33.5536 34.0783 33.1155 34.7851ZM29.7006 36.1407C29.2134 36.2678 28.8153 36.781 28.8153 37.2811C28.8153 37.7812 28.4313 38.5021 27.9619 38.8827C27.2187 39.4846 27.1489 39.4655 27.4241 38.734C27.6118 38.2334 27.4458 37.7812 27.0128 37.6153C26.6131 37.4626 26.2858 37.5574 26.2858 37.8255C26.2858 38.0942 25.9443 38.3141 25.527 38.3141C25.1096 38.3141 24.7681 38.5339 24.7681 38.8026C24.7681 39.0708 24.4499 39.1691 24.0604 39.0198C22.9302 38.5878 22.7885 39.4872 23.8211 40.5448C24.6563 41.4009 24.7681 41.416 24.7681 40.6709C24.7681 40.2066 25.1096 39.8265 25.527 39.8265C25.9443 39.8265 26.2858 40.1824 26.2858 40.6179C26.2858 41.9418 28.4693 41.2733 28.8704 39.8265C29.0905 39.0335 29.2392 38.8933 29.2706 39.4483C29.3273 40.4334 30.0917 40.624 30.6133 39.7826C30.7999 39.4811 31.3787 39.3455 31.8993 39.4811C32.6723 39.6823 32.7573 39.5643 32.3657 38.8348C32.1021 38.3443 32.0247 37.8049 32.1937 37.6365C32.5301 37.3007 31.4146 35.7576 30.9037 35.8519C30.7286 35.8841 30.1878 36.0142 29.7006 36.1407ZM32.8625 37.8099C32.2139 38.2273 32.2322 38.2999 32.989 38.3065C33.4762 38.3105 33.8743 38.0872 33.8743 37.8099C33.8743 37.1949 33.8171 37.1949 32.8625 37.8099ZM19.61 41.5763C17.0056 43.2505 16.7324 43.68 18.0649 44.0062C18.5516 44.1252 18.2106 44.1307 17.3061 44.0183C15.6042 43.8066 15.0417 44.5229 16.4779 45.0719C16.996 45.2701 17.1983 45.7505 17.0314 46.3862C16.8867 46.9372 16.9747 47.3884 17.2272 47.3884C17.4791 47.3884 17.6855 46.9347 17.6855 46.3802C17.6855 45.2812 18.0584 45.144 19.1582 45.8377C19.9868 46.3605 21.7327 45.4601 21.7327 44.5103C21.7327 44.1484 22.101 44.0092 22.618 44.1751C23.3319 44.404 23.3627 44.3596 22.7769 43.9457C22.1845 43.5268 22.1693 43.2898 22.6944 42.6592C23.217 42.032 23.2109 41.7129 22.662 40.9678C22.019 40.0946 21.8683 40.1244 19.61 41.5763ZM9.33816 52.4298C9.5127 52.7111 9.13429 52.9304 8.48269 52.9263C7.54273 52.9198 7.46279 52.823 8.07341 52.4298C9.01489 51.8238 8.96228 51.8238 9.33816 52.4298ZM304.784 65.5372C304.956 65.8145 304.728 66.0413 304.278 66.0413C303.827 66.0413 303.6 65.8145 303.772 65.5372C303.944 65.2599 304.171 65.0331 304.278 65.0331C304.384 65.0331 304.612 65.2599 304.784 65.5372ZM296.105 70.8523C295.94 71.2803 295.697 71.5223 295.564 71.3902C295.432 71.2581 295.473 70.9077 295.657 70.6123C296.155 69.8077 296.447 69.964 296.105 70.8523ZM294.587 73.8771C294.422 74.3051 294.179 74.5471 294.046 74.415C293.914 74.2829 293.955 73.9325 294.139 73.6371C294.638 72.8325 294.929 72.9888 294.587 73.8771ZM282.777 75.6198C282.777 75.8971 282.536 76.124 282.241 76.124C281.947 76.124 281.846 75.8971 282.018 75.6198C282.19 75.3426 282.431 75.1157 282.554 75.1157C282.677 75.1157 282.777 75.3426 282.777 75.6198ZM284.548 75.6198C284.72 75.8971 284.505 76.124 284.072 76.124C283.638 76.124 283.283 75.8971 283.283 75.6198C283.283 75.3426 283.497 75.1157 283.759 75.1157C284.021 75.1157 284.376 75.3426 284.548 75.6198ZM250.905 85.7025C250.905 85.9798 250.678 86.2066 250.399 86.2066C250.121 86.2066 249.893 85.9798 249.893 85.7025C249.893 85.4252 250.121 85.1984 250.399 85.1984C250.678 85.1984 250.905 85.4252 250.905 85.7025ZM55.2911 90.2896C55.5228 90.4625 55.3523 90.7413 54.9116 90.9097C54.3344 91.1305 54.1103 90.9147 54.1103 90.1399C54.1103 89.548 54.2813 89.2687 54.4897 89.5198C54.6981 89.7703 55.0588 90.1172 55.2911 90.2896ZM64.0912 91.0483C63.9232 91.2157 63.4866 91.2338 63.1219 91.0881C62.7182 90.9273 62.8381 90.8078 63.4274 90.7836C63.9607 90.762 64.2591 90.8809 64.0912 91.0483ZM188.174 93.0124C188.174 93.447 187.717 93.7686 187.1 93.7686C186.203 93.7686 186.13 93.6441 186.656 93.0124C187.003 92.5965 187.486 92.2562 187.73 92.2562C187.974 92.2562 188.174 92.5965 188.174 93.0124ZM132.778 93.2645C132.95 93.5417 132.722 93.7686 132.272 93.7686C131.822 93.7686 131.594 93.5417 131.766 93.2645C131.938 92.9872 132.166 92.7603 132.272 92.7603C132.378 92.7603 132.606 92.9872 132.778 93.2645ZM112.795 93.455C112.795 93.5594 112.453 93.9274 112.036 94.2727C111.414 94.7869 111.277 94.7522 111.277 94.0822C111.277 93.6325 111.618 93.2645 112.036 93.2645C112.453 93.2645 112.795 93.3502 112.795 93.455ZM146.184 93.4868C146.184 93.6093 145.956 93.8493 145.678 94.0207C145.4 94.1921 145.172 94.0918 145.172 93.7983C145.172 93.5049 145.4 93.2645 145.678 93.2645C145.956 93.2645 146.184 93.3643 146.184 93.4868ZM123.713 94.7769C124.108 94.7769 124.43 95.2306 124.43 95.7851C124.43 96.3397 124.3 96.7934 124.141 96.7934C123.56 96.7934 122.657 95.5069 122.548 94.5248C122.487 93.9703 122.563 93.8004 122.716 94.1467C122.871 94.4935 123.319 94.7769 123.713 94.7769ZM102.677 95.7851C102.677 96.435 102.933 96.7924 103.309 96.6674C103.657 96.5519 103.941 96.1547 103.941 95.7851C103.941 95.4156 103.657 95.0183 103.309 94.9029C102.933 94.7779 102.677 95.1353 102.677 95.7851ZM134.894 95.8799C134.732 96.2817 134.613 96.1622 134.588 95.5749C134.567 95.0435 134.686 94.7461 134.854 94.9135C135.022 95.0809 135.04 95.5159 134.894 95.8799ZM136.319 97.2975C136.491 97.5748 136.276 97.8017 135.843 97.8017C135.409 97.8017 135.054 97.5748 135.054 97.2975C135.054 97.0203 135.268 96.7934 135.53 96.7934C135.792 96.7934 136.147 97.0203 136.319 97.2975Z" fill="#6966FF"/>
</svg>
