<svg width="20" height="50" viewBox="0 0 20 50" fill="none" xmlns="http://www.w3.org/2000/svg">
<path fill-rule="evenodd" clip-rule="evenodd" d="M8.66398 0.296517C8.57262 0.735902 8.57985 0.757728 8.84978 0.856471C8.98604 0.906318 9.09752 0.99105 9.09752 1.04471C9.09752 1.18358 9.51075 1.16023 9.71686 1.00973C9.97609 0.820443 9.92684 0.602085 9.59299 0.459976C9.42949 0.390303 9.29571 0.284507 9.29571 0.224843C9.29571 0.133248 9.00506 0.00457819 8.78785 3.25163e-06C8.75376 -0.000759239 8.69807 0.132677 8.66398 0.296517ZM9.64393 1.42681C9.48042 1.60066 9.47348 1.64355 9.59696 1.71866C9.67653 1.76708 9.77513 1.8073 9.81596 1.80815C9.85678 1.80892 9.89028 1.86992 9.89028 1.94359C9.89028 2.09609 9.49113 2.03766 9.37538 1.86839C9.33753 1.81282 9.28253 1.79052 9.2532 1.81864C9.17045 1.89832 9.37627 2.50154 9.51689 2.59095C9.61341 2.65233 9.60241 2.6936 9.46913 2.76918C9.3737 2.82322 9.29571 2.91081 9.29571 2.96371C9.29571 3.01661 9.33525 3.03634 9.38361 3.00765C9.54771 2.91005 9.71825 3.23249 9.6574 3.52538C9.62034 3.70323 9.63878 3.81112 9.70616 3.81112C9.76809 3.81112 9.79406 3.91291 9.76691 4.0494C9.73074 4.23173 9.76116 4.28768 9.89672 4.28768C9.99423 4.28768 10.0943 4.21267 10.1193 4.12088C10.161 3.96724 10.1655 3.96772 10.1761 4.12717C10.1824 4.22229 10.1339 4.39385 10.0682 4.50842C10.0026 4.62289 9.93269 4.82304 9.91307 4.95305C9.89345 5.08315 9.83805 5.21296 9.78999 5.24155C9.74005 5.2712 9.74223 5.35383 9.79485 5.43389C9.84569 5.51119 9.8879 5.5273 9.88879 5.46973C9.88958 5.41216 10.0241 5.36145 10.1876 5.35698C10.3835 5.35164 10.4848 5.39539 10.4848 5.48546C10.4848 5.56056 10.418 5.62204 10.3362 5.62204C10.2544 5.62204 10.1876 5.69095 10.1876 5.7752C10.1876 5.87728 10.134 5.90854 10.0269 5.86908C9.89682 5.82105 9.88057 5.85069 9.94101 6.02568C9.98204 6.14444 10.014 6.45601 10.0123 6.71812C10.0104 6.98022 10.0602 7.22622 10.123 7.26473C10.1981 7.31076 10.1813 7.33526 10.0743 7.33621C9.76453 7.33897 9.76225 7.81153 10.0719 7.81725C10.2221 7.82001 10.2214 7.83173 10.0637 7.94687C9.96826 8.01654 9.89028 8.12234 9.89028 8.1821C9.89028 8.24186 9.84261 8.29075 9.78425 8.29075C9.72598 8.29075 9.69258 8.3873 9.70992 8.5052C9.72737 8.6231 9.78405 8.70574 9.83578 8.68877C9.8876 8.67181 9.96807 8.75673 10.0145 8.87768C10.0684 9.01779 10.061 9.10967 9.99403 9.13121C9.93626 9.1497 9.92248 9.2148 9.96331 9.27579C10.0687 9.43334 10.0654 9.81573 9.95855 9.81573C9.9094 9.81573 9.89384 9.87788 9.92417 9.95384C9.96103 10.0462 9.9317 10.0744 9.83568 10.039C9.74699 10.0063 9.69209 10.0446 9.69209 10.1391C9.69209 10.2234 9.73113 10.2923 9.7788 10.2923C9.89553 10.2923 9.88988 10.7578 9.77236 10.8277C9.72053 10.8585 9.75204 10.9605 9.8434 11.0576C9.99799 11.222 9.99552 11.2291 9.8003 11.18C9.68139 11.1501 9.59299 11.1733 9.59299 11.2343C9.59299 11.2929 9.65988 11.3407 9.74164 11.3407C9.84073 11.3407 9.89028 11.436 9.89028 11.6266C9.89028 11.849 9.93428 11.9126 10.0885 11.9126C10.1975 11.9126 10.2867 11.9555 10.2867 12.0079C10.2867 12.0603 10.2394 12.1032 10.1817 12.1032C10.124 12.1032 10.109 12.1533 10.1484 12.2147C10.196 12.2887 10.1669 12.3066 10.0624 12.268C9.84103 12.1863 9.65443 12.4274 9.77047 12.6451C9.93428 12.9525 9.89216 13.5189 9.6797 13.8652L9.47517 14.1986L9.78028 14.3661C9.94805 14.4583 10.1108 14.5968 10.1419 14.6741C10.2061 14.8337 9.90653 15.0843 9.72965 15.019C9.65364 14.9909 9.61281 15.0925 9.61281 15.3095C9.61281 15.5103 9.669 15.6637 9.75412 15.6952C9.9313 15.7606 9.7457 16.011 9.51996 16.011C9.39391 16.011 9.39688 16.0475 9.53978 16.2573C9.69823 16.4898 9.69764 16.5142 9.53037 16.6921C9.40917 16.8208 9.38797 16.9012 9.46338 16.9461C9.52392 16.9822 9.60013 17.2262 9.63273 17.4883C9.66523 17.7504 9.66593 17.9113 9.63412 17.8457C9.60241 17.7801 9.49846 17.7266 9.40313 17.7266C9.18581 17.7266 9.19543 18.034 9.42027 18.2728C9.51927 18.378 9.57456 18.5828 9.56277 18.8002C9.54672 19.0959 9.50728 19.1555 9.32712 19.1559C9.19671 19.1561 9.08543 19.2334 9.04669 19.3509C8.96919 19.5856 9.07869 20.2776 9.20524 20.3528C9.36894 20.4501 9.30007 20.5685 9.0232 20.6658C8.87327 20.7184 8.80648 20.7649 8.87456 20.769C8.94273 20.7731 8.99843 20.8838 8.99843 21.0148C8.99843 21.1631 9.05461 21.2531 9.14707 21.2531C9.22882 21.2531 9.29571 21.296 9.29571 21.3484C9.29571 21.4008 9.22882 21.4437 9.14707 21.4437C8.98792 21.4437 8.97464 21.5331 8.99674 22.4503C9.00962 22.9838 8.99129 23.0366 8.75683 23.1393C8.4758 23.2624 8.4102 23.6077 8.651 23.6965C8.73246 23.7266 8.77635 23.7866 8.74851 23.8299C8.72066 23.8732 8.74801 23.9384 8.80916 23.9748C8.89091 24.0234 8.89002 24.0591 8.80589 24.1091C8.74276 24.1466 8.68568 24.2806 8.67885 24.4069C8.67211 24.5332 8.5963 24.7174 8.51039 24.8161C8.36392 24.9844 8.36809 24.9915 8.57727 24.9289C8.75901 24.8744 8.80024 24.8986 8.80024 25.0592C8.80024 25.1675 8.76318 25.2562 8.71779 25.2562C8.59541 25.2562 8.40743 25.9156 8.47749 26.0987C8.51078 26.1857 8.5859 26.2885 8.64436 26.327C8.70907 26.3696 8.68509 26.3975 8.58312 26.3985C8.32488 26.4007 8.28168 26.5571 8.45192 26.8737C8.55151 27.0589 8.56776 27.1624 8.49721 27.1624C8.43676 27.1624 8.40733 27.2161 8.4318 27.2815C8.4867 27.4291 8.32161 27.7555 8.22192 27.6962C8.18189 27.6724 8.14314 27.7248 8.13601 27.8127C8.1147 28.0733 8.05088 28.2961 7.97736 28.3669C7.9394 28.4033 7.90839 28.5505 7.90839 28.6939C7.90839 28.8818 7.99836 29.0128 8.23044 29.1628C8.4652 29.3144 8.49542 29.359 8.34212 29.3272C8.17545 29.2925 8.14175 29.3205 8.1802 29.462C8.20696 29.5601 8.17743 29.6405 8.1146 29.6405C8.03087 29.6405 8.02898 29.6917 8.10767 29.8331C8.25383 30.0958 8.1366 30.2403 7.83605 30.1677C7.61487 30.1143 7.60367 30.1235 7.73576 30.2506C8.07625 30.578 8.05802 31.8793 7.70831 32.2157C7.5569 32.3613 7.51369 32.4827 7.56175 32.6277C7.68047 32.9863 7.69731 33.4018 7.59554 33.4622C7.53648 33.4973 7.55947 33.5803 7.65332 33.6705C7.85438 33.8639 7.8526 34.0248 7.64945 34.0248C7.52836 34.0248 7.50002 34.0938 7.53282 34.3085C7.5566 34.4644 7.52816 34.6093 7.46969 34.6303C7.40419 34.654 7.45255 34.8236 7.59545 35.0719C7.76321 35.3634 7.7975 35.5039 7.71931 35.5791C7.65976 35.6364 7.6111 35.8033 7.6111 35.9501C7.6111 36.1396 7.56086 36.2178 7.43769 36.2198C7.27359 36.2226 7.27368 36.228 7.43937 36.3208C7.56284 36.39 7.58851 36.4632 7.52657 36.5697C7.42322 36.7474 7.49239 37.0748 7.6333 37.0748C7.68721 37.0748 7.70385 37.1439 7.67016 37.2283C7.62626 37.3382 7.65143 37.3662 7.75865 37.3267C7.95357 37.2547 7.94901 37.3502 7.74706 37.5648C7.63687 37.6819 7.58187 37.9295 7.57364 38.3456C7.56482 38.79 7.52796 38.9429 7.43769 38.9102C7.27616 38.8517 7.2721 39.284 7.43273 39.4385C7.50041 39.5036 7.50854 39.5529 7.45156 39.5529C7.39438 39.5529 7.34137 39.8803 7.32789 40.3153C7.31223 40.8247 7.34097 41.0778 7.4146 41.0778C7.47514 41.0778 7.51548 41.1958 7.50428 41.3399C7.4797 41.6559 7.59961 42.031 7.72526 42.031C7.77708 42.031 7.77292 41.9531 7.71545 41.8499C7.63796 41.7106 7.65114 41.6553 7.77253 41.6105C7.90561 41.5614 7.92067 41.6083 7.86865 41.9108C7.83466 42.108 7.80473 42.3442 7.80196 42.436C7.79918 42.5277 7.76074 42.6028 7.71644 42.6028C7.67214 42.6028 7.63588 42.71 7.63588 42.8411C7.63588 42.9722 7.67492 43.0794 7.72258 43.0794C7.77025 43.0794 7.80929 43.1437 7.80929 43.2223C7.80929 43.301 7.87618 43.3653 7.95793 43.3653C8.13858 43.3653 8.15226 43.5687 7.98271 43.7334C7.88351 43.8298 7.89332 43.8725 8.03225 43.9479C8.12768 43.9996 8.20567 44.1471 8.20567 44.2755C8.20567 44.4039 8.2572 44.509 8.32012 44.509C8.38691 44.509 8.36353 44.5845 8.26384 44.6905C8.11718 44.8464 8.11153 44.903 8.22371 45.0912C8.29555 45.2119 8.44042 45.3813 8.54566 45.4679C8.80103 45.6779 8.86405 46.5456 8.64714 46.8642C8.49641 47.0853 8.49027 47.0861 8.19051 46.9186C8.02343 46.8252 7.85814 46.6794 7.82316 46.5944C7.70722 46.3121 7.04587 45.6805 6.80546 45.6225C6.67515 45.591 6.4949 45.4456 6.40482 45.2993C6.08514 44.7803 5.77736 44.509 5.50782 44.509C5.35184 44.509 5.18427 44.4269 5.09776 44.3081C5.0172 44.1976 4.90324 44.1358 4.84438 44.1708C4.78552 44.2058 4.73736 44.1843 4.73736 44.1232C4.73736 44.0621 4.67047 44.0368 4.58872 44.067C4.48764 44.1043 4.44007 44.0618 4.44007 43.9342C4.44007 43.831 4.39865 43.7466 4.34801 43.7466C4.29748 43.7466 4.17965 43.6732 4.08641 43.5834C3.99306 43.4936 3.84947 43.4107 3.76722 43.3991C3.68487 43.3875 3.59083 43.3425 3.55813 43.2993C3.44507 43.1495 2.67143 42.7054 2.41666 42.6439C2.27595 42.61 2.1609 42.5453 2.1609 42.5005C2.1609 42.4556 2.02712 42.2872 1.86361 42.1263C1.70011 41.9654 1.56633 41.7724 1.56633 41.6975C1.56633 41.5356 1.20751 41.3302 1.06878 41.4127C1.01546 41.4444 0.971762 41.4218 0.971762 41.3626C0.971762 41.1639 0.670416 40.9624 0.35252 40.9486C-0.0311742 40.9319 -0.131557 41.1759 0.201203 41.3163C0.325269 41.3686 0.433183 41.4972 0.441012 41.6021C0.44884 41.7069 0.459939 41.8843 0.465785 41.9963C0.479163 42.2555 1.30274 43.0792 1.78929 43.32C1.99363 43.4212 2.1609 43.5697 2.1609 43.65C2.1609 43.8353 2.50416 44.0461 2.69264 43.9765C2.79144 43.94 2.85644 44.0142 2.90262 44.2163C2.96465 44.4883 3.08099 44.5571 3.41365 44.5185C3.47588 44.5113 3.52048 44.5795 3.51275 44.6699C3.50462 44.7645 3.61908 44.8912 3.78159 44.9677C4.10791 45.1213 4.44007 45.4188 4.44007 45.5575C4.44007 45.6099 4.51965 45.6528 4.61696 45.6528C4.71427 45.6528 4.99272 45.8687 5.2357 46.1325C5.47878 46.3964 5.84514 46.7239 6.04977 46.8603C6.2545 46.9968 6.42197 47.1651 6.42197 47.2345C6.42197 47.5664 6.78673 48.0363 7.16518 48.1917C7.38318 48.2812 7.59505 48.347 7.63588 48.338C7.6767 48.3289 7.7102 48.4073 7.7102 48.5121C7.7102 48.617 7.75479 48.7027 7.80929 48.7027C7.86379 48.7027 7.90839 48.81 7.90839 48.941C7.90839 49.0893 7.96457 49.1793 8.05703 49.1793C8.13878 49.1793 8.29485 49.2651 8.40386 49.3699C8.51286 49.4748 8.64664 49.5605 8.70114 49.5605C8.75564 49.5605 8.80024 49.6034 8.80024 49.6559C8.80024 49.7083 8.86336 49.7512 8.94065 49.7512C9.01785 49.7512 9.09762 49.7992 9.11803 49.858C9.13835 49.9167 9.32048 49.9745 9.52264 49.9863C9.79336 50.0021 9.89028 49.97 9.89028 49.8647C9.89028 49.7453 9.92159 49.7489 10.0802 49.887C10.2323 50.0193 10.3116 50.0309 10.4779 49.9454C10.6429 49.8604 10.6651 49.8017 10.586 49.6596C10.5151 49.5321 10.5206 49.4696 10.6053 49.4425C10.6707 49.4215 10.7354 49.2364 10.749 49.0311C10.7627 48.8257 10.8203 48.6429 10.8771 48.6247C10.9338 48.6065 10.9803 48.4879 10.9803 48.3612C10.9803 48.2345 11.026 48.1309 11.0819 48.1309C11.1377 48.1309 11.2258 48.0237 11.2776 47.8926C11.3294 47.7615 11.4145 47.6543 11.4667 47.6543C11.5188 47.6543 11.5898 47.5685 11.6244 47.4637C11.659 47.3589 11.744 47.2731 11.8134 47.2731C11.8828 47.2731 11.9903 47.1658 12.0523 47.0348C12.1145 46.9037 12.2027 46.7965 12.2484 46.7965C12.2942 46.7965 12.5071 46.5394 12.7213 46.2251C12.9356 45.9109 13.1434 45.6535 13.183 45.6533C13.2955 45.6525 14.448 44.5739 14.4538 44.464C14.4567 44.4101 14.731 44.1516 15.0636 43.8895C15.3961 43.6274 15.7983 43.2414 15.9574 43.0317C16.1165 42.822 16.2657 42.6612 16.289 42.6743C16.4034 42.7386 16.5295 42.6693 16.8967 42.3407C17.1163 42.1442 17.5217 41.7945 17.7976 41.5636C18.0736 41.3329 18.3257 41.0433 18.3578 40.9203C18.4162 40.6968 18.5832 40.6435 19.0898 40.6867C19.4134 40.7142 19.6399 40.5224 19.4896 40.348C19.3466 40.1824 19.398 40.1309 19.7334 40.1042C20.0121 40.082 20.1107 39.8388 19.8411 39.8388C19.7547 39.8388 19.7025 39.7856 19.7251 39.7205C19.7477 39.6554 19.718 39.555 19.659 39.4973C19.6002 39.4396 19.4472 39.2597 19.3189 39.0974C19.075 38.7884 18.5666 38.5557 18.3791 38.6672C18.3188 38.7031 18.1512 38.7237 18.0067 38.7132C17.8622 38.7026 17.6883 38.7584 17.6202 38.8375C17.5521 38.9164 17.4364 38.981 17.3633 38.981C17.2901 38.981 17.1826 39.0668 17.1242 39.1716C17.0658 39.2765 16.9639 39.3616 16.8978 39.3608C16.8138 39.3598 16.8181 39.3345 16.9118 39.2774C17.007 39.2194 17.0138 39.1761 16.9351 39.1294C16.7466 39.0173 15.9528 39.5707 15.9171 39.8388C15.8933 40.0178 15.8239 40.0796 15.6378 40.0874C15.1094 40.1095 15.0432 40.1292 15.0432 40.2647C15.0432 40.3417 14.9875 40.3845 14.9193 40.3599C14.7776 40.3086 14.1518 40.8386 14.1504 41.0112C14.1498 41.074 14.0362 41.2113 13.8981 41.3161C13.7598 41.421 13.5135 41.6247 13.3507 41.7688C13.1877 41.9131 13.0093 42.031 12.9541 42.031C12.8571 42.031 12.6744 42.201 12.1854 42.7466C12.0181 42.9331 11.9837 43.0341 12.0615 43.109C12.2829 43.3219 12.1851 43.4791 11.8723 43.413C11.6266 43.3611 11.5856 43.3765 11.6355 43.5018C11.6815 43.6168 11.6537 43.6378 11.5201 43.5884C11.4075 43.5469 11.3677 43.5601 11.4095 43.6251C11.4454 43.681 11.3873 43.8277 11.2804 43.9511C11.1735 44.0745 11.0846 44.1418 11.0827 44.1006C11.0809 44.0595 10.9919 44.0708 10.8849 44.1259C10.778 44.181 10.7137 44.2842 10.742 44.3554C10.7757 44.4397 10.6967 44.5027 10.5154 44.5361C10.3624 44.5644 10.2315 44.5806 10.2246 44.5721C10.2178 44.5637 10.1795 44.4548 10.1397 44.3303C10.0937 44.1865 10.1036 44.1256 10.167 44.1633C10.2592 44.2181 10.2642 44.1 10.2036 43.2938C10.1924 43.1442 10.1244 43.0794 9.97877 43.0794C9.83568 43.0794 9.78762 43.0352 9.82597 42.9392C9.85668 42.8621 9.81685 42.7364 9.73747 42.66C9.65681 42.5825 9.59299 42.3444 9.59299 42.1214C9.59299 41.7769 9.61351 41.7381 9.74164 41.8403C9.82339 41.9056 9.89394 41.943 9.8985 41.9234C9.94448 41.726 9.94448 41.4591 9.8985 41.459C9.82696 41.4589 9.8328 40.4856 9.90514 40.3595C9.93408 40.309 9.95122 39.9437 9.94319 39.5477C9.93299 39.0435 9.87839 38.7585 9.76086 38.5972C9.65106 38.4465 9.59299 38.1799 9.59299 37.8272C9.59299 37.3516 9.61945 37.2795 9.81596 37.2188C10.0191 37.156 10.0223 37.1457 9.85114 37.1027C9.70061 37.0649 9.6908 37.039 9.80159 36.9727C9.91465 36.905 9.91713 36.8547 9.81516 36.6965C9.74649 36.59 9.72578 36.5029 9.76908 36.5029C9.81239 36.5029 9.85649 36.4278 9.86709 36.3361C9.87769 36.2444 9.90554 36.0228 9.92912 35.8436C9.95271 35.6645 9.9314 35.4155 9.88185 35.2902C9.83231 35.1648 9.82507 35.0823 9.8658 35.1067C9.90653 35.1311 9.92516 34.8332 9.90722 34.4449C9.88077 33.8726 9.90227 33.7389 10.0205 33.7389C10.2223 33.7389 10.3032 33.4894 10.1429 33.3614C9.94775 33.2058 9.88126 32.8811 10.0445 32.8811C10.151 32.8811 10.179 32.6648 10.1752 31.8732C10.1712 31.0443 10.201 30.8326 10.3429 30.6818C10.5038 30.5109 10.5044 30.4864 10.3516 30.324C10.2614 30.2281 10.1876 30.078 10.1876 29.9904C10.1876 29.9028 10.1501 29.8311 10.1044 29.8311C10.0586 29.8311 9.96787 29.7186 9.90276 29.5811C9.7898 29.3427 9.79614 29.3332 10.0389 29.3779C10.1789 29.4036 10.2718 29.4038 10.2452 29.3783C10.2187 29.3527 10.2618 29.2695 10.341 29.1935C10.5316 29.01 10.5232 28.878 10.3208 28.878C10.1734 28.878 10.1749 28.8588 10.3362 28.6874C10.4975 28.5159 10.499 28.4967 10.3516 28.4967C10.1456 28.4967 10.1419 28.4069 10.3421 28.2662C10.4607 28.1827 10.4744 28.1017 10.4015 27.9171C10.3411 27.7643 10.341 27.6173 10.401 27.514C10.453 27.4247 10.4651 27.3041 10.428 27.2463C10.3908 27.1884 10.4218 27.0997 10.4969 27.0492C10.5923 26.985 10.5993 26.9437 10.5201 26.9123C10.3957 26.8629 10.447 26.5863 10.6502 26.2119C10.8094 25.9185 10.8231 25.4468 10.6724 25.4468C10.6121 25.4468 10.5884 25.3825 10.6198 25.3038C10.6511 25.2252 10.6336 25.1609 10.5809 25.1609C10.528 25.1609 10.4848 25.118 10.4848 25.0655C10.4848 25.0131 10.5448 24.9702 10.6181 24.9702C10.6915 24.9702 10.8273 24.8895 10.9201 24.7909C11.0724 24.6291 11.0739 24.5973 10.9354 24.4641C10.8511 24.383 10.7821 24.2707 10.7821 24.2145C10.7821 24.1584 10.7083 24.1124 10.6181 24.1124C10.4688 24.1124 10.4697 24.0959 10.6277 23.9279C10.7584 23.789 10.805 23.5596 10.8165 22.9986C10.8283 22.4213 10.8624 22.2601 10.9682 22.2818C11.0686 22.3023 11.0854 22.2519 11.0314 22.0912C10.9189 21.7564 10.9464 21.4277 11.0945 21.3374C11.1961 21.2755 11.198 21.2557 11.1023 21.2545C11.0178 21.2536 10.997 21.1749 11.0387 21.0148C11.0762 20.8711 11.0585 20.7765 10.9942 20.7765C10.9354 20.7765 10.912 20.7149 10.9421 20.6396C10.9724 20.5636 11.0638 20.5274 11.1472 20.5582C11.2559 20.5983 11.2864 20.5635 11.257 20.433C11.2346 20.3336 11.1631 20.2631 11.0983 20.2761C11.0334 20.2893 10.9803 20.2356 10.9803 20.157C10.9803 20.0784 10.9357 20.014 10.8812 20.014C10.7344 20.014 10.761 19.8301 10.9317 19.666C11.0139 19.5869 11.059 19.4875 11.0318 19.4453C11.0047 19.403 11.0477 19.3165 11.1273 19.2529C11.254 19.1518 11.2532 19.1192 11.1208 18.9918C11.0376 18.9118 10.9831 18.7338 10.9997 18.5962C11.0244 18.3915 11.0748 18.3511 11.2776 18.3742C11.4596 18.3948 11.4886 18.3784 11.3868 18.3122C11.2691 18.2356 11.2724 18.1638 11.4096 17.8342C11.5982 17.3808 11.5391 17.1225 11.2659 17.206C10.9711 17.296 11.0297 16.883 11.3531 16.5913C11.6008 16.3679 11.6283 16.2769 11.6434 15.6297C11.6525 15.2366 11.6913 14.7541 11.7295 14.5575C11.7755 14.3213 11.7622 14.2001 11.6904 14.2001C11.6307 14.2001 11.5305 14.1078 11.4678 13.9949C11.3711 13.8213 11.3777 13.7988 11.5107 13.8479C11.7439 13.9339 11.8087 13.7506 11.664 13.4143C11.5657 13.186 11.5634 13.1077 11.6544 13.0785C11.8021 13.0312 11.812 12.7704 11.6662 12.7704C11.5995 12.7704 11.5831 12.6654 11.6227 12.4918C11.6805 12.2388 11.6653 12.2174 11.4572 12.2588C11.2997 12.29 11.3257 12.2607 11.5402 12.1647C11.8061 12.0458 11.8524 11.974 11.8524 11.6802C11.8524 11.4904 11.7867 11.2722 11.7066 11.195C11.6263 11.1179 11.5986 11.0548 11.6447 11.0548C11.7567 11.0548 11.6788 10.2769 11.5516 10.1255C11.4857 10.0471 11.4853 10.0064 11.5504 10.0064C11.7333 10.0064 11.7342 8.99234 11.5515 8.71136C11.3979 8.47528 11.3006 7.82268 11.413 7.78274C11.4948 7.75358 11.4925 7.70926 11.4049 7.61976C11.3098 7.52264 11.3194 7.47222 11.4507 7.37986C11.5911 7.28112 11.5964 7.23918 11.4847 7.10965C11.412 7.0254 11.3856 6.95639 11.4262 6.95639C11.4669 6.95639 11.4429 6.89015 11.3729 6.80904C11.3031 6.72803 11.1884 6.68304 11.1182 6.70897C11.0381 6.73851 11.0109 6.70458 11.0455 6.61794C11.1075 6.46259 11.3767 6.4278 11.3767 6.57515C11.3767 6.62757 11.4282 6.67046 11.4912 6.67046C11.5596 6.67046 11.5397 6.60041 11.4416 6.49614C11.3514 6.40025 11.2776 6.22869 11.2776 6.11489C11.2776 6.00109 11.233 5.90797 11.1785 5.90797C11.124 5.90797 11.0794 5.85774 11.0794 5.79636C11.0794 5.73498 11.0056 5.60631 10.9154 5.51043C10.7613 5.34668 10.7644 5.3361 10.965 5.3361C11.0824 5.3361 11.1822 5.30389 11.1866 5.26462C11.1911 5.22535 11.215 5.07523 11.2395 4.93103C11.2643 4.78625 11.2385 4.66892 11.1819 4.66892C11.1255 4.66892 11.0794 4.60459 11.0794 4.52596C11.0794 4.44732 11.0125 4.38299 10.9308 4.38299C10.849 4.38299 10.7821 4.3401 10.7821 4.28768C10.7821 4.23526 10.8232 4.19237 10.8734 4.19237C10.9235 4.19237 10.9957 4.05607 11.0337 3.88956C11.0852 3.66453 11.0617 3.55778 10.9425 3.474C10.8543 3.41196 10.7821 3.31236 10.7821 3.2526C10.7821 3.19284 10.7182 3.14394 10.6401 3.14394C10.5465 3.14394 10.501 3.04644 10.5065 2.85801C10.5112 2.70074 10.5518 2.57207 10.5969 2.57207C10.6992 2.57207 10.4854 2.0959 10.2993 1.90918C10.2045 1.81406 10.1961 1.75916 10.2726 1.73467C10.3531 1.70884 10.3547 1.64603 10.2782 1.50859C10.2201 1.40384 10.1118 1.34065 10.0377 1.36791C9.96371 1.39527 9.8879 1.37382 9.86937 1.32035C9.85084 1.26688 9.74937 1.31482 9.64393 1.42681ZM10.3319 9.42791C10.3634 9.47671 10.3436 9.54352 10.2882 9.5765C10.2328 9.60938 10.1876 9.56945 10.1876 9.48777C10.1876 9.3203 10.247 9.29571 10.3319 9.42791ZM11.1173 10.1543C11.1511 10.2391 11.1344 10.2773 11.0783 10.244C11.0244 10.2119 10.9803 10.1454 10.9803 10.096C10.9803 9.95899 11.0514 9.9892 11.1173 10.1543ZM11.5749 10.5422C11.5749 10.7545 11.5523 10.7742 11.4251 10.6726C11.311 10.5816 11.3021 10.5217 11.3876 10.4226C11.5459 10.2392 11.5749 10.2577 11.5749 10.5422ZM10.7326 10.5782C10.6989 10.6306 10.6294 10.6735 10.5781 10.6735C10.5268 10.6735 10.4848 10.6306 10.4848 10.5782C10.4848 10.5258 10.5544 10.4829 10.6393 10.4829C10.7243 10.4829 10.7663 10.5258 10.7326 10.5782ZM11.3053 11.8445C11.3338 11.9159 11.281 11.967 11.1785 11.967C11.076 11.967 11.0232 11.9159 11.0518 11.8445C11.0786 11.7771 11.1357 11.722 11.1785 11.722C11.2213 11.722 11.2784 11.7771 11.3053 11.8445ZM9.82388 26.7256C9.85351 26.7999 9.81368 26.8844 9.73539 26.9132C9.64135 26.9479 9.59299 26.9021 9.59299 26.7782C9.59299 26.5613 9.74451 26.5268 9.82388 26.7256ZM8.95146 29.4315C8.92103 29.4608 8.84106 29.4316 8.77378 29.3664C8.67667 29.2722 8.68806 29.2613 8.82927 29.313C8.92698 29.3488 8.98198 29.4021 8.95146 29.4315ZM9.79118 30.117C9.90663 30.1888 9.87759 30.2098 9.66147 30.2109C9.50084 30.2118 9.40898 30.172 9.44435 30.117C9.52036 29.9987 9.60082 29.9987 9.79118 30.117ZM7.90839 40.9247C7.90839 40.9453 7.8415 40.9868 7.75974 41.017C7.67799 41.0471 7.6111 41.0303 7.6111 40.9796C7.6111 40.9288 7.67799 40.8872 7.75974 40.8872C7.8415 40.8872 7.90839 40.9041 7.90839 40.9247ZM9.79118 40.9293C9.79118 40.9524 9.74659 40.9978 9.69209 41.0302C9.63759 41.0626 9.59299 41.0436 9.59299 40.9882C9.59299 40.9327 9.63759 40.8872 9.69209 40.8872C9.74659 40.8872 9.79118 40.9061 9.79118 40.9293Z" fill="#6966FF"/>
</svg>
