<svg width="30" height="90" viewBox="0 0 30 90" fill="none" xmlns="http://www.w3.org/2000/svg">
<path fill-rule="evenodd" clip-rule="evenodd" d="M0.0928418 39.4591C0.139775 39.2564 0.221 39.0367 0.273446 38.9709C0.325893 38.9051 0.307201 38.8219 0.232027 38.7858C0.0572044 38.702 0.0530352 38.3155 0.227051 38.3155C0.306931 38.3155 0.298191 38.2127 0.204863 38.0538C0.0845042 37.8491 0.0924378 37.732 0.241441 37.5153C0.384392 37.3072 0.39152 37.228 0.270488 37.1964C0.147575 37.1644 0.145692 37.0923 0.262823 36.8931C0.367582 36.7147 0.372154 36.6094 0.276943 36.561C0.20029 36.5221 0.128613 36.2932 0.11772 36.0523C0.102121 35.7079 0.161426 35.5798 0.395554 35.4526C0.559215 35.3638 0.629951 35.291 0.552894 35.291C0.398243 35.291 0.312714 34.0843 0.45459 33.9063C0.502733 33.8459 0.527881 33.4941 0.510667 33.1245C0.48404 32.554 0.524384 32.4153 0.777743 32.2061C1.00958 32.0147 1.04186 31.9275 0.922174 31.8157C0.700283 31.6085 0.769405 30.7792 1.02061 30.6352C1.18938 30.5385 1.19664 30.4865 1.05975 30.3585C0.939252 30.246 0.934277 30.1897 1.04226 30.1619C1.13801 30.1371 1.19436 29.7989 1.19611 29.2391C1.19759 28.7532 1.29387 28.0974 1.4102 27.7819C1.52652 27.4664 1.60613 27.0534 1.58731 26.8642C1.56835 26.6749 1.61555 26.4615 1.69193 26.39C1.76845 26.3186 1.83313 26.1684 1.83569 26.0563C1.84551 25.6302 2.02208 25.0109 2.19098 24.81C2.28767 24.6951 2.36312 24.4086 2.35854 24.1735C2.35411 23.9383 2.41193 23.6567 2.48711 23.5478C2.56241 23.4387 2.66704 23.1266 2.71975 22.8541C2.77247 22.5816 2.86916 22.3587 2.93479 22.3587C3.00028 22.3587 3.05393 22.2753 3.05393 22.1734C3.05393 22.0714 3.14471 21.8874 3.25565 21.7647C3.3666 21.6418 3.42079 21.4674 3.37601 21.3771C3.33136 21.2868 3.41999 21.0266 3.57302 20.7989C3.7469 20.5403 3.80016 20.3604 3.71503 20.3196C3.63219 20.2799 3.62641 20.2069 3.70051 20.1332C3.76748 20.0666 4.01277 19.6203 4.24569 19.1414C4.47847 18.6625 4.78643 18.155 4.92978 18.0136C5.07327 17.8723 5.15719 17.6891 5.11644 17.6067C5.06574 17.5042 5.13688 17.457 5.34209 17.457C5.5664 17.457 5.60702 17.4241 5.50307 17.3266C5.40637 17.2359 5.42117 17.0696 5.55188 16.7791C5.65503 16.5496 5.74042 16.3501 5.7415 16.3358C5.74257 16.3215 5.87974 16.309 6.04609 16.3082C6.26462 16.3071 6.29851 16.2819 6.1682 16.2179C6.01758 16.1438 6.01745 16.0922 6.16685 15.9066C6.26543 15.7841 6.38431 15.684 6.4311 15.684C6.47777 15.684 6.55604 15.4846 6.60499 15.2408C6.73435 14.5958 7.09651 13.911 7.30831 13.911C7.40917 13.911 7.49174 13.843 7.49174 13.76C7.49174 13.6769 7.64195 13.4832 7.82538 13.3297C8.00895 13.1761 8.12742 13.0107 8.08869 12.9621C8.04996 12.9135 8.14181 12.7916 8.29283 12.6912C8.44399 12.591 8.56757 12.402 8.56757 12.2714C8.56757 12.128 8.64893 12.0338 8.77265 12.0338C8.88535 12.0338 9.03516 11.9164 9.10549 11.773C9.17582 11.6296 9.34069 11.5116 9.47194 11.5107C9.64865 11.5095 9.66533 11.4869 9.53623 11.4234C9.39731 11.3549 9.41089 11.2709 9.60347 11.0085C9.73646 10.8274 9.92083 10.679 10.0132 10.6786C10.1057 10.6783 10.1813 10.5841 10.1813 10.4694C10.1813 10.3547 10.2297 10.2608 10.289 10.2608C10.3482 10.2608 10.5289 10.0496 10.6907 9.79149C10.8524 9.53337 11.046 9.32218 11.1209 9.32218C11.1958 9.32218 11.2572 9.25178 11.2572 9.16574C11.2572 9.07886 11.3767 9.0093 11.5261 9.0093C11.6755 9.0093 11.7951 8.93974 11.7951 8.85286C11.7951 8.76682 11.8556 8.69642 11.9295 8.69642C12.0035 8.69642 12.0642 8.63781 12.0643 8.56606C12.0648 8.37134 12.869 7.67425 12.8765 7.86208C12.8799 7.94812 12.959 7.85426 13.0522 7.6535C13.1452 7.45273 13.3847 7.15258 13.5842 6.98644C13.7836 6.82031 13.9467 6.64437 13.9467 6.59535C13.9467 6.54633 14.0359 6.50628 14.145 6.50628C14.254 6.50628 14.4305 6.3755 14.5371 6.21552C14.6437 6.05563 15.0084 5.7414 15.3475 5.51728C15.6865 5.29315 15.9639 5.05902 15.9639 4.99696C15.9639 4.85492 16.7454 4.31635 16.9527 4.31552C17.0376 4.3151 17.2088 4.17597 17.3333 4.00639C17.4577 3.83671 17.715 3.66765 17.9049 3.63063C18.0947 3.59371 18.2501 3.51247 18.2501 3.4501C18.2501 3.26696 18.9524 2.75176 19.2022 2.75176C19.3283 2.75176 19.4664 2.68136 19.5091 2.59532C19.5515 2.50928 19.6871 2.43888 19.8102 2.43888C19.9333 2.43888 20.1325 2.3568 20.2529 2.25637C20.5518 2.00711 21.0193 1.81313 21.3206 1.81313C21.4583 1.81313 21.706 1.72218 21.8713 1.61101C22.0366 1.49994 22.2516 1.43277 22.3491 1.46176C22.457 1.49389 22.5187 1.44466 22.5063 1.33609C22.4754 1.06222 22.7582 1.04825 22.9388 1.31482C23.0273 1.44549 23.0727 1.4772 23.0401 1.38521C22.9887 1.24119 23.3664 0.874494 23.5661 0.874494C23.6038 0.874494 23.8865 0.751221 24.1942 0.600518C24.6581 0.37337 24.7976 0.347609 25.009 0.450024C25.1919 0.538673 25.3133 0.541906 25.4382 0.461497C25.6248 0.341352 26.0498 0.418737 26.0498 0.572777C26.0498 0.623984 26.1047 0.66591 26.1717 0.66591C26.2388 0.66591 26.2619 0.572047 26.2233 0.457325C26.1761 0.317469 26.2191 0.24874 26.3539 0.24874C26.4644 0.24874 26.6294 0.178969 26.7206 0.0937617C26.8657 -0.0418183 26.9287 -0.0353522 27.2259 0.145908C27.5962 0.371909 28.067 0.422283 28.067 0.236016C28.067 0.151644 28.116 0.150392 28.2421 0.231636C28.3384 0.293586 28.5481 0.317782 28.708 0.285347C29.0947 0.206919 29.4593 0.490073 29.3416 0.777398C29.2884 0.907659 29.1776 0.971382 29.0635 0.937487C28.958 0.906095 28.8739 0.943536 28.8739 1.02207C28.8739 1.17454 29.2409 1.28478 29.5127 1.21386C29.6052 1.18977 29.6808 1.10352 29.6808 1.02228C29.6808 0.834237 29.8988 0.829544 29.9907 1.0156C30.0292 1.0932 29.9442 1.23399 29.8019 1.32848C29.5197 1.51589 29.1429 1.55823 29.1429 1.40242C29.1429 1.28426 28.5694 1.29855 28.4606 1.41942C28.4181 1.46656 28.2397 1.52663 28.0639 1.55281C27.8882 1.57909 27.6929 1.67191 27.6301 1.759C27.5672 1.84608 27.3486 1.91742 27.1445 1.91742C26.9088 1.91742 26.6137 2.0384 26.3363 2.24875C26.0244 2.48519 25.7666 2.58239 25.437 2.58771C25.0903 2.59344 24.9747 2.64089 24.9744 2.77783C24.974 2.94418 24.8424 3.00227 24.6197 2.93427C24.5726 2.91988 24.4865 3.008 24.4284 3.12992C24.3473 3.29971 24.2414 3.33965 23.9759 3.30033C23.7189 3.26216 23.6292 3.29251 23.6292 3.41746C23.6292 3.51028 23.5687 3.5861 23.4947 3.5861C23.4208 3.5861 23.3603 3.65649 23.3603 3.74253C23.3603 3.82858 23.2954 3.89897 23.2162 3.89897C23.1369 3.89897 22.9774 3.97239 22.8617 4.06209C22.713 4.17743 22.6095 4.19276 22.5082 4.11423C22.2921 3.94663 22.1333 3.98095 22.1777 4.18578C22.2006 4.29205 22.133 4.36829 22.0155 4.36829C21.9045 4.36829 21.7781 4.46215 21.7345 4.57687C21.6911 4.69159 21.5851 4.77378 21.4992 4.75938C21.4134 4.7451 21.3431 4.79557 21.3431 4.8716C21.3431 4.94763 21.1973 5.11606 21.0191 5.24591C20.7168 5.46607 20.6907 5.46909 20.6313 5.29013C20.5869 5.15695 20.5627 5.18333 20.5518 5.37638C20.5409 5.57109 20.3655 5.75861 19.9671 6.00213C19.1126 6.52412 18.909 6.70433 18.9512 6.90113C18.9765 7.01877 18.8863 7.09126 18.6871 7.11326C18.5046 7.13329 18.3845 7.21912 18.3845 7.32956C18.3845 7.4348 18.1704 7.59989 17.8802 7.71847C17.6029 7.83173 17.3677 7.96909 17.3578 8.02363C17.2936 8.37572 17.0909 8.6231 16.786 8.72124C16.5927 8.78351 16.3891 8.82679 16.3337 8.8175C16.2783 8.80833 16.2236 8.85933 16.2124 8.93108C16.2011 9.00273 16.1779 9.10838 16.1607 9.16574C16.1434 9.2231 16.1225 9.35763 16.1139 9.46474C16.1027 9.60595 16.0246 9.64444 15.8294 9.60481C15.6155 9.56142 15.5605 9.60168 15.5605 9.80129C15.5605 9.93927 15.4918 10.0522 15.4078 10.0522C15.2102 10.0522 14.6732 10.503 14.4221 10.8796C14.314 11.0415 14.1326 11.2018 14.0189 11.2356C13.9053 11.2695 13.8123 11.3898 13.8123 11.5029C13.8123 11.616 13.7657 11.7309 13.709 11.7581C13.6521 11.7854 13.622 11.6121 13.642 11.3732C13.6744 10.9851 13.6616 10.9639 13.522 11.1751C13.4143 11.338 13.2889 11.3926 13.1183 11.3506C12.8156 11.2761 12.8008 11.3837 13.0807 11.6235C13.2725 11.7879 13.2605 11.8264 12.94 12.075C12.7473 12.2244 12.653 12.3467 12.7304 12.3467C12.9141 12.3467 12.913 12.6313 12.7292 12.6788C12.6512 12.699 12.5694 12.8085 12.5476 12.9221C12.5227 13.0514 12.404 13.1288 12.2308 13.1288C11.8458 13.1288 11.7258 13.2513 11.9269 13.4392C12.04 13.545 12.0472 13.5982 11.9485 13.5982C11.867 13.5982 11.7623 13.7155 11.7159 13.8589C11.6695 14.0023 11.5472 14.1196 11.4443 14.1196C11.3251 14.1196 11.2572 14.2358 11.2572 14.4398C11.2572 14.7505 10.7038 15.4952 10.2613 15.7801C10.145 15.8549 10.0806 15.9549 10.1181 16.002C10.1558 16.0491 10.0653 16.255 9.9172 16.4594C9.76914 16.6639 9.67877 16.8312 9.71643 16.8312C9.85575 16.8312 9.32563 17.5139 9.08317 17.6466C8.94506 17.7223 8.86854 17.8299 8.91305 17.8858C8.9577 17.9418 8.93524 18.0441 8.86329 18.1134C8.79135 18.1825 8.68995 18.4504 8.63804 18.7085C8.586 18.9666 8.39759 19.3528 8.21941 19.5667C8.04109 19.7805 7.89518 20.0519 7.89518 20.1697C7.89518 20.2875 7.79513 20.5583 7.67275 20.7716C7.55037 20.9849 7.46229 21.201 7.47708 21.2519C7.49188 21.3028 7.37703 21.4492 7.22198 21.5773C7.01784 21.7458 6.96391 21.8843 7.02685 22.0787C7.08252 22.2508 7.03666 22.4328 6.89936 22.5848C6.78142 22.7154 6.68487 23.0245 6.68487 23.2717C6.68487 23.564 6.61803 23.7409 6.4935 23.778C6.38834 23.8093 6.26798 23.9041 6.22616 23.9887C6.1838 24.0742 6.20841 24.1146 6.28143 24.0795C6.35593 24.0439 6.37812 24.0866 6.3328 24.1784C6.28869 24.2675 6.15327 24.344 6.0317 24.3485C5.91013 24.353 5.87288 24.3769 5.94873 24.4015C6.11239 24.4547 6.03668 25.2789 5.86804 25.2789C5.80416 25.2789 5.78856 25.3528 5.83335 25.4434C5.9018 25.5818 5.78386 25.965 5.37033 26.9476C5.27983 27.1626 5.22416 27.5097 5.15477 28.2913C5.12236 28.6576 5.03723 28.9861 4.96569 29.0213C4.8421 29.0823 4.80606 29.3448 4.75644 30.5457C4.7446 30.8325 4.67858 31.0986 4.60972 31.1371C4.54087 31.1756 4.46852 31.4103 4.44902 31.6586C4.42939 31.9069 4.41015 32.138 4.40612 32.172C4.40209 32.2061 4.25255 32.366 4.07382 32.5272C3.80177 32.7727 3.77837 32.8432 3.9298 32.9607C4.02918 33.0377 4.17186 33.1008 4.24676 33.1008C4.43893 33.1008 4.27016 34.5618 4.04921 34.8117C3.92132 34.9563 3.91178 35.0656 4.01398 35.2138C4.09467 35.3306 4.11336 35.579 4.05795 35.7973C4.00497 36.0064 3.94257 37.3273 3.91944 38.7326C3.89618 40.138 3.87291 41.3938 3.86767 41.5235C3.86229 41.6532 3.72243 41.8644 3.55689 41.9928L3.25565 42.2264L3.57396 42.2614C3.85812 42.2925 3.88394 42.3359 3.81509 42.6654C3.77259 42.8683 3.63515 43.1225 3.50955 43.2301C3.29344 43.4153 3.29573 43.4258 3.55339 43.4258C3.77474 43.4258 3.82947 43.499 3.84615 43.8169C3.89429 44.7352 3.85099 45.2388 3.71275 45.3679C3.60315 45.4702 3.61848 45.5472 3.77219 45.6664C4.02904 45.8656 4.06414 47.8099 3.81307 47.9349C3.71449 47.9839 3.74368 48.012 3.89443 48.0131C4.14671 48.0147 4.19593 48.3148 4.00591 48.6924C3.938 48.8275 3.96463 48.9377 4.08135 49.0053C4.18046 49.0628 4.29598 49.3913 4.33807 49.7355C4.38017 50.0796 4.43624 50.5016 4.46274 50.6733C4.48923 50.8449 4.4509 51.0141 4.37761 51.0492C4.29477 51.089 4.31172 51.1681 4.42239 51.2587C4.63083 51.429 4.72685 52.1863 4.53993 52.1863C4.46986 52.1863 4.5055 52.3589 4.61913 52.57C4.73277 52.781 4.80445 53.1273 4.77836 53.3395C4.74407 53.6185 4.77809 53.7113 4.901 53.6747C5.05216 53.6297 5.14226 53.8406 5.08268 54.0999C5.07152 54.1486 5.16283 54.4771 5.28561 54.8299C5.40839 55.1829 5.52472 55.7062 5.54408 55.993C5.56345 56.2798 5.61912 56.6083 5.66807 56.723C5.7384 56.8884 5.65651 56.9735 5.27297 57.1332C4.88244 57.296 4.82959 57.3525 4.9985 57.4257C5.11361 57.4756 5.26773 57.4877 5.34115 57.4526C5.41458 57.4174 5.47456 57.4441 5.47456 57.5118C5.47456 57.6047 5.52028 57.6057 5.65987 57.5158C5.80632 57.4215 5.86226 57.4461 5.92694 57.6334C6.05403 58.0013 6.03157 58.0455 5.75239 57.9767C5.53252 57.9226 5.49406 57.962 5.50387 58.2304C5.51342 58.4917 5.57152 58.5482 5.83119 58.5482C6.29676 58.5482 6.70813 58.9093 6.60512 59.2276C6.55832 59.3723 6.61306 59.6649 6.72911 59.8897C6.88376 60.1895 6.89802 60.3227 6.78478 60.4105C6.67155 60.4983 6.70827 60.5832 6.92827 60.7422C7.15312 60.9046 7.21014 61.042 7.1663 61.3157C7.13309 61.5237 7.17531 61.7087 7.26662 61.7544C7.3535 61.7978 7.50075 61.9976 7.59408 62.1984C7.73703 62.5063 7.73246 62.5812 7.56503 62.6766C7.41401 62.7627 7.40406 62.8187 7.52334 62.9112C7.60954 62.9781 7.75196 63.0327 7.84004 63.0327C8.06946 63.0327 8.55964 63.8944 8.65821 64.4711C8.70434 64.7411 8.82389 65.0548 8.92381 65.1679C9.02373 65.281 9.10549 65.4422 9.10549 65.5261C9.10549 65.6099 9.24104 65.8927 9.40672 66.1546C9.59809 66.457 9.70849 66.8248 9.7093 67.1621C9.71038 67.5688 9.75798 67.6911 9.91236 67.6835C10.0366 67.6775 10.1305 67.784 10.1566 67.9605C10.18 68.1183 10.2491 68.2474 10.3102 68.2474C10.462 68.2474 10.8537 69.0289 10.8537 69.3318C10.8537 69.4669 10.9445 69.636 11.0554 69.7074C11.2754 69.849 11.3326 70.2289 11.1338 70.2289C11.0661 70.2289 10.9801 70.1703 10.9427 70.0985C10.9011 70.0183 10.8708 70.0362 10.8643 70.1447C10.8586 70.2419 11.0365 70.4052 11.2598 70.5075C11.4832 70.6098 11.6364 70.7532 11.6002 70.8262C11.5642 70.8992 11.5872 70.959 11.6514 70.959C11.7159 70.959 11.7621 71.1318 11.7545 71.343C11.7465 71.5584 11.8115 71.7454 11.9022 71.7689C11.9911 71.7918 12.064 71.8714 12.064 71.9457C12.064 72.0199 12.1548 72.139 12.2657 72.2105C12.3767 72.2819 12.4675 72.4284 12.4675 72.5361C12.4675 72.6438 12.5944 72.8304 12.7496 72.9507C12.9314 73.0917 13.0101 73.2572 12.9708 73.4164C12.9373 73.5522 12.9769 73.6848 13.0585 73.7111C13.158 73.7431 13.1466 73.7918 13.0238 73.8586C12.869 73.9427 12.869 73.9683 13.0238 74.023C13.1646 74.0727 13.1685 74.1017 13.0402 74.1482C12.9119 74.1947 12.9185 74.2438 13.068 74.3598C13.1752 74.4429 13.2296 74.5917 13.1887 74.6904C13.1318 74.828 13.145 74.8369 13.2449 74.7284C13.3546 74.6093 13.3938 74.6093 13.4929 74.7284C13.5576 74.8062 13.6167 74.9403 13.6243 75.0264C13.6318 75.1124 13.647 75.265 13.6579 75.3653C13.6688 75.4656 13.7685 75.5478 13.8795 75.5478C14.0199 75.5478 14.0812 75.6573 14.0812 75.9076C14.0812 76.1255 14.1642 76.3035 14.2914 76.3587C14.4069 76.4089 14.5156 76.5238 14.5327 76.6141C14.5497 76.7044 14.6417 76.8512 14.7369 76.9402C14.8323 77.0293 14.8737 77.1917 14.8289 77.3011C14.7809 77.4185 14.8315 77.5539 14.9522 77.6317C15.0649 77.7042 15.1574 77.8399 15.158 77.9332C15.1584 78.0266 15.279 78.2438 15.426 78.4159C15.573 78.5879 15.6936 78.8109 15.694 78.9112C15.6946 79.0116 15.7426 79.0938 15.8007 79.0938C15.9061 79.0938 15.9607 79.3377 15.9623 79.8153C15.9628 79.954 16.0601 80.1504 16.1784 80.2519C16.2969 80.3534 16.3608 80.4777 16.3206 80.5283C16.2802 80.5788 16.3651 80.686 16.5091 80.7665C16.653 80.8469 16.7708 80.9671 16.7708 81.0334C16.7708 81.0998 16.8616 81.2125 16.9725 81.2839C17.2326 81.4513 17.2326 81.7011 16.9725 81.7011C16.8616 81.7011 16.7708 81.6541 16.7708 81.5968C16.7708 81.5394 16.7159 81.4925 16.649 81.4925C16.582 81.4925 16.5964 81.6063 16.681 81.7454C16.795 81.9327 16.8789 81.9699 17.0045 81.889C17.0978 81.8289 17.1804 81.8208 17.1881 81.8709C17.1957 81.9208 17.2213 82.1402 17.2448 82.3584C17.2911 82.7885 17.5029 83.0569 17.7958 83.0569C17.8977 83.0569 17.9811 83.1055 17.9811 83.1648C17.9811 83.2243 18.0848 83.3955 18.2115 83.5455C18.3383 83.6956 18.4553 83.8886 18.4715 83.9746C18.4878 84.0607 18.5746 84.1662 18.6641 84.2092C18.7538 84.2522 18.7897 84.3629 18.7441 84.4552C18.6924 84.5597 18.7611 84.6716 18.9262 84.7516C19.0721 84.8222 19.1914 84.9575 19.1914 85.0522C19.1914 85.1489 19.3388 85.2531 19.5276 85.2899C19.7125 85.3259 19.8638 85.4282 19.8638 85.5171C19.8638 85.661 19.8863 85.6617 20.0655 85.5227C20.1765 85.4366 20.2672 85.3159 20.2672 85.2544C20.2672 85.193 20.3294 85.1427 20.4052 85.1427C20.4836 85.1427 20.4528 85.0075 20.3338 84.8289C20.1835 84.6034 20.1622 84.4605 20.2584 84.3211C20.3321 84.2145 20.3508 84.095 20.3001 84.0557C20.2494 84.0164 20.2951 83.9423 20.4019 83.8911C20.5702 83.8104 20.5697 83.7904 20.398 83.7395C20.232 83.6903 20.2109 83.4406 20.2672 82.1955C20.3042 81.3787 20.3876 80.6464 20.4526 80.5682C20.5285 80.4769 20.5046 80.3938 20.3853 80.3353C20.2377 80.2627 20.236 80.2439 20.3777 80.2425C20.4754 80.2417 20.6341 80.18 20.7303 80.1054C20.8736 79.9942 20.8629 79.9295 20.6703 79.7451C20.4815 79.5642 20.4574 79.4327 20.5474 79.0724C20.6087 78.826 20.6615 78.5893 20.6648 78.5462C20.668 78.5032 20.7615 78.468 20.8724 78.468C20.9833 78.468 21.0741 78.4196 21.0741 78.3605C21.0741 78.3012 20.9833 78.2258 20.8724 78.1929C20.6329 78.1215 20.611 77.9303 20.8235 77.7655C21.0014 77.6275 21.3716 77.8516 21.3338 78.0746C21.2814 78.3834 21.3602 78.4819 21.6457 78.4639C22.3482 78.4198 22.5472 78.4635 22.4586 78.6426C22.3931 78.7748 22.4267 78.8009 22.5972 78.7501C22.7316 78.7102 22.8232 78.7344 22.8242 78.8102C22.8252 78.8802 22.8626 79.043 22.9071 79.172C22.9668 79.3445 22.9306 79.4066 22.7708 79.4066C22.523 79.4066 22.4945 79.5435 22.6846 79.8191C22.7885 79.9697 22.7605 80.0206 22.5502 80.0633C22.404 80.0929 22.2844 80.1716 22.2844 80.2383C22.2844 80.3117 22.3899 80.3334 22.5526 80.2933C22.7637 80.2414 22.8024 80.2642 22.7347 80.4012C22.6873 80.4967 22.7239 80.6109 22.8158 80.655C22.9076 80.699 22.9931 80.9054 23.0058 81.1138C23.0239 81.413 22.9789 81.4925 22.791 81.4925C22.4666 81.4925 22.4894 81.768 22.8194 81.835C23.0602 81.8838 23.08 81.9601 23.0297 82.6474C22.9919 83.1629 23.0335 83.495 23.1592 83.6837C23.3166 83.9196 23.3164 84.0032 23.1585 84.2392C23.0563 84.3919 23.0192 84.517 23.076 84.517C23.1327 84.517 23.1525 84.6578 23.1199 84.8298C23.0874 85.0019 22.9833 85.1427 22.8886 85.1427C22.6313 85.1427 22.5395 85.4291 22.7746 85.4991C23.0625 85.5848 23.1194 85.5752 23.025 85.4567C22.977 85.3966 23.0343 85.3809 23.1628 85.4192C23.3391 85.4717 23.3472 85.5024 23.2035 85.5744C23.0566 85.6479 23.0606 85.6831 23.2258 85.7685C23.3931 85.8549 23.3963 85.8883 23.245 85.964C23.1221 86.0256 23.1097 86.0778 23.2071 86.1245C23.2866 86.1627 23.3464 86.3445 23.3398 86.5287C23.3334 86.7128 23.3425 86.9105 23.3601 86.9678C23.4266 87.1843 23.3539 87.25 23.1754 87.1351C23.027 87.0397 22.9904 87.0664 22.9904 87.27C22.9904 87.4306 23.0831 87.5427 23.2426 87.575C23.5895 87.6454 23.5596 87.8301 23.1922 87.885L22.8896 87.9302L23.1922 87.9444C23.6034 87.9637 23.6358 88.4801 23.2258 88.4801C23.0779 88.4801 22.9568 88.5226 22.9568 88.5746C22.9568 88.6266 23.067 88.6468 23.2016 88.6195C23.4981 88.5593 23.803 88.8169 23.7404 89.0747C23.7154 89.1779 23.5597 89.3084 23.3944 89.3648C23.2291 89.4212 23.1004 89.5151 23.1085 89.5734C23.1455 89.8412 23.0628 89.9185 22.6751 89.9787C22.3451 90.0299 22.2084 89.9948 22.0145 89.8092C21.7949 89.599 21.7267 89.5878 21.3463 89.6989C20.9706 89.8088 20.8896 89.7971 20.6305 89.5961C20.4698 89.4715 20.2164 89.3826 20.0674 89.3988C19.8653 89.4206 19.843 89.4037 19.9791 89.3321C20.1064 89.2652 20.1166 89.2147 20.0127 89.1649C19.9308 89.1256 19.8638 89.0075 19.8638 88.9022C19.8638 88.6824 19.6091 88.5844 19.038 88.5844C18.8178 88.5844 18.6683 88.5458 18.7059 88.4986C18.7823 88.4028 18.3207 88.0629 18.1141 88.0629C18.0409 88.0629 17.9811 87.999 17.9811 87.921C17.9811 87.8262 17.8706 87.7953 17.6488 87.8282C17.3942 87.866 17.229 87.7964 16.9428 87.5313C16.2401 86.8805 15.8254 86.5924 15.687 86.6587C15.4998 86.7485 14.8881 86.4268 14.8881 86.2386C14.8881 86.1475 14.8083 86.1116 14.6864 86.1479C14.5523 86.1878 14.4832 86.143 14.4803 86.0143C14.4736 85.7075 14.1501 85.4556 13.7626 85.4556C13.4393 85.4556 13.4221 85.4362 13.5757 85.2456C13.7243 85.061 13.6959 85.0035 13.3414 84.7709C13.1197 84.6254 12.7414 84.4377 12.5011 84.3538C12.0108 84.1827 11.9528 84.0541 12.2983 83.9042C12.637 83.7572 12.3966 83.6327 11.7974 83.6449C11.3998 83.653 11.2963 83.6207 11.3528 83.5064C11.3988 83.4134 11.3186 83.3354 11.1402 83.2992C10.9825 83.2672 10.8537 83.1806 10.8537 83.1066C10.8537 83.0196 10.9606 82.9924 11.1563 83.0296L11.4589 83.0871L11.1403 82.8665C10.7061 82.5658 10.3115 82.4811 10.1528 82.6546C10.0581 82.7583 10.0405 82.7354 10.0872 82.5693C10.1329 82.4066 10.0981 82.3581 9.96441 82.3979C9.8618 82.4285 9.77788 82.3979 9.77788 82.3298C9.77788 82.2618 9.53273 82.0235 9.23311 81.8002C8.93349 81.5771 8.69869 81.3344 8.7112 81.261C8.7939 80.7753 8.70326 80.6581 8.24402 80.6581C7.85887 80.6581 7.7966 80.6263 7.85322 80.4584C7.89908 80.3223 7.80804 80.2016 7.56745 80.0792C7.37327 79.9806 7.18096 79.9258 7.14008 79.9574C7.04648 80.03 6.62556 79.7076 6.39722 79.3885C6.22495 79.1476 6.19604 79.0853 6.16376 78.8852C6.15448 78.8278 6.02592 78.7809 5.87799 78.7809C5.72496 78.7809 5.60903 78.7113 5.60903 78.6195C5.60903 78.5309 5.42789 78.3783 5.2064 78.2806C4.71515 78.0639 4.69014 77.8867 5.13836 77.7994C5.32327 77.7634 5.47456 77.6613 5.47456 77.5725C5.47456 77.4587 5.39548 77.4305 5.2064 77.477C5.00657 77.5262 4.95762 77.504 5.01396 77.39C5.13742 77.1408 5.60029 77.1042 5.78171 77.3293C5.87019 77.4394 6.02901 77.5294 6.13444 77.5294C6.24001 77.5294 6.28708 77.5597 6.2392 77.5968C6.14251 77.6719 7.07324 78.2519 7.29782 78.2565C7.44252 78.2594 7.89518 78.9598 7.89518 79.1809C7.89518 79.2477 7.79701 79.3023 7.67705 79.3023C7.49833 79.3023 7.48905 79.3306 7.62622 79.4588C7.71834 79.5448 7.89209 79.616 8.01244 79.6168C8.19964 79.6181 8.20273 79.6324 8.03356 79.7154C7.92476 79.7688 7.88267 79.8488 7.93996 79.8934C8.06946 79.9937 8.3091 79.7128 8.20529 79.5825C8.13522 79.4946 8.39046 79.3076 8.58546 79.3039C8.63239 79.3031 8.70219 79.396 8.74078 79.5104C8.77938 79.6248 8.9226 79.7516 9.05909 79.7921C9.44478 79.9066 9.78488 80.2703 9.73391 80.5135C9.69827 80.6837 9.74386 80.7225 9.93455 80.6839C10.0702 80.6564 10.1813 80.5913 10.1813 80.5393C10.1813 80.4873 10.3362 80.5235 10.5256 80.6197C10.7386 80.7279 10.8138 80.8215 10.7227 80.8651C10.4532 80.9943 10.7343 81.2714 11.1677 81.304C11.5538 81.333 11.5973 81.3724 11.6352 81.7275C11.6736 82.0889 11.6984 82.1099 11.9581 82.0021C12.2004 81.9015 12.2269 81.9105 12.1497 82.0665C12.0812 82.2049 12.117 82.2361 12.3014 82.1987C12.5987 82.1384 12.9216 82.3868 12.8179 82.5962C12.7682 82.6968 12.8619 82.7861 13.0865 82.8523C13.5194 82.98 13.7501 82.8851 13.523 82.6729C13.4307 82.5866 13.3466 82.3679 13.3359 82.1868C13.3046 81.6526 13.2828 81.5968 13.1053 81.5968C12.9431 81.5968 12.6019 80.9299 12.6019 80.6128C12.6019 80.5287 12.5141 80.4218 12.4069 80.3753C12.2939 80.3262 12.1887 80.0818 12.1568 79.7937C12.1266 79.5204 12.0651 79.2684 12.0203 79.2337C11.9757 79.199 11.9948 79.0898 12.063 78.9911C12.1674 78.8396 12.1353 78.8192 11.8565 78.8606C11.6572 78.8901 11.5261 78.8609 11.5261 78.7869C11.5261 78.7195 11.5866 78.6933 11.6606 78.7287C12.0166 78.8994 11.7442 78.4897 11.1851 78.0131C11.0209 77.8732 10.7272 77.1285 10.7475 76.9036C10.7939 76.3894 10.704 76.0693 10.5133 76.0693C10.4 76.0693 10.2698 75.9871 10.224 75.8868C10.178 75.7864 10.0645 75.6339 9.97153 75.5478C9.87874 75.4618 9.78313 75.2506 9.75919 75.0785C9.73525 74.9064 9.60642 74.6086 9.47289 74.4167C9.33935 74.2248 9.26659 73.9783 9.31124 73.8691C9.35656 73.7586 9.32899 73.6706 9.24898 73.6706C9.17004 73.6706 9.10549 73.5532 9.10549 73.4098C9.10549 73.2664 9.04134 73.1491 8.96307 73.1491C8.88481 73.1491 8.85832 73.1018 8.90431 73.0441C8.9503 72.9863 8.86316 72.8031 8.71052 72.6369C8.55789 72.4707 8.43309 72.2833 8.43309 72.2205C8.43309 72.1576 8.37258 72.1062 8.29861 72.1062C8.22465 72.1062 8.16414 71.9982 8.16414 71.8663C8.16414 71.7344 8.11021 71.5818 8.04418 71.5274C7.97829 71.4728 7.76957 71.0313 7.58036 70.5461C7.30764 69.8467 7.26985 69.6318 7.39774 69.5092C7.5263 69.3859 7.5228 69.3714 7.38053 69.4377C7.16926 69.5364 6.70369 69.1944 6.78667 69.0014C6.81679 68.9311 6.71553 68.7153 6.56155 68.5221C6.40744 68.3287 6.28143 68.0405 6.28143 67.8815C6.28143 67.7226 6.19173 67.5404 6.08227 67.4766C5.97267 67.413 5.86078 67.267 5.83348 67.1523C5.80618 67.0376 5.74983 66.8733 5.70828 66.7873C5.45331 66.2595 5.36939 65.9405 5.43475 65.7466C5.48168 65.6077 5.4252 65.4786 5.28198 65.3974C5.15638 65.3262 5.04933 65.1184 5.04248 64.9328C5.03575 64.7482 4.97241 64.5971 4.90181 64.5971C4.83121 64.5971 4.80566 64.5318 4.84519 64.4522C4.8846 64.3724 4.79369 64.2046 4.64307 64.0792C4.447 63.9159 4.39079 63.7674 4.44539 63.5557C4.49622 63.3585 4.46072 63.2421 4.33861 63.2058C4.23789 63.1757 4.05527 62.8078 3.93275 62.388C3.81038 61.9682 3.62049 61.5179 3.51089 61.3872C3.40129 61.2565 3.34347 61.1097 3.38233 61.0609C3.4212 61.0122 3.36001 60.8276 3.24624 60.6507C3.04371 60.3358 3.04708 59.7401 3.2535 59.3564C3.33231 59.2098 3.28268 59.1739 3.00108 59.1739C2.77906 59.1739 2.6505 59.1166 2.6505 59.0175C2.6505 58.9314 2.5998 58.861 2.5378 58.861C2.47581 58.861 2.41691 58.6914 2.40682 58.4839C2.39674 58.2765 2.32264 58.0452 2.24195 57.9698C2.07412 57.8129 1.94663 57.2815 1.97003 56.8354C1.97878 56.6677 1.91611 56.497 1.83085 56.4562C1.74545 56.4153 1.6489 56.13 1.61622 55.8224C1.52961 55.0073 1.53271 54.8718 1.64419 54.605C1.72326 54.4155 1.68817 54.3527 1.47959 54.3104C1.20794 54.2553 1.20592 54.2475 1.10533 52.9164C1.06472 52.3777 0.994657 52.1189 0.861389 52.0155C0.809883 51.9757 0.767791 51.7256 0.767791 51.4597C0.767791 51.194 0.710772 50.932 0.640978 50.8775C0.536891 50.7961 0.481217 50.1346 0.505558 49.2661C0.507978 49.1801 0.444773 48.8985 0.365161 48.6404C0.149995 47.9433 0.106424 47.3534 0.259192 47.2077C0.335038 47.1353 0.347141 46.9979 0.286625 46.8949C0.142464 46.6488 0.0963383 44.6773 0.234717 44.6773C0.294695 44.6773 0.25973 44.5466 0.156988 44.3869C0.0414705 44.2073 -0.0167591 43.8392 0.0042196 43.422C0.0394531 42.7244 0.158198 42.4405 0.372154 42.543C0.440066 42.5756 0.459701 42.5295 0.415726 42.4404C0.371617 42.3514 0.27412 42.2786 0.19908 42.2786C0.120276 42.2786 0.13332 42.2123 0.229876 42.1221C0.365834 41.995 0.359917 41.9657 0.197735 41.9657C0.0338054 41.9657 0.00664019 41.8139 0.0453701 41.1151C0.0713246 40.6472 0.121351 40.2421 0.15645 40.2148C0.191684 40.1876 0.172453 40.0894 0.113955 39.9965C0.0554563 39.9036 0.0459087 39.6619 0.0928418 39.4591ZM3.41972 76.5125C3.4528 76.4409 3.67146 76.3876 3.90559 76.3943C4.1919 76.4024 4.24327 76.4231 4.06253 76.4577C3.9146 76.4858 3.71651 76.5575 3.62224 76.6168C3.42214 76.7428 3.33446 76.6976 3.41972 76.5125ZM3.72633 47.7018C3.80029 47.7018 3.86081 47.652 3.86081 47.5913C3.86081 47.5306 3.80029 47.5099 3.72633 47.5453C3.65237 47.5808 3.59185 47.6304 3.59185 47.6558C3.59185 47.6811 3.65237 47.7018 3.72633 47.7018ZM4.09171 77.0079C4.35502 77.0079 4.66768 77.1924 4.66768 77.3478C4.66768 77.397 4.5921 77.4007 4.49958 77.3557C4.4072 77.3109 4.24596 77.2729 4.14133 77.2714C3.84965 77.2672 3.80083 77.0079 4.09171 77.0079ZM4.34547 29.318C4.39012 29.2834 4.39496 29.1934 4.35609 29.1182C4.3132 29.035 4.28132 29.0597 4.27487 29.1812C4.26909 29.2911 4.30082 29.3527 4.34547 29.318ZM4.5332 76.7472C4.60717 76.7117 4.66768 76.7559 4.66768 76.8453C4.66768 76.9347 4.60717 77.0079 4.5332 77.0079C4.45924 77.0079 4.39872 76.9638 4.39872 76.9098C4.39872 76.8558 4.45924 76.7826 4.5332 76.7472ZM4.94457 27.5733C5.01423 27.5733 5.07112 27.5264 5.07112 27.469C5.07112 27.4117 4.97672 27.3648 4.86147 27.3648C4.74622 27.3648 4.6892 27.4117 4.73492 27.469C4.78064 27.5264 4.87491 27.5733 4.94457 27.5733ZM4.99595 22.2544C5.02862 22.2544 5.09264 22.2075 5.13836 22.1501C5.18408 22.0928 5.15732 22.0458 5.07905 22.0458C5.00079 22.0458 4.93664 22.0928 4.93664 22.1501C4.93664 22.2075 4.96327 22.2544 4.99595 22.2544ZM6.31505 22.0106C6.40757 21.9817 6.33186 21.958 6.14695 21.958C5.96204 21.958 5.88646 21.9817 5.97885 22.0106C6.07137 22.0396 6.22266 22.0396 6.31505 22.0106ZM7.35726 20.7943C7.43123 20.7943 7.4908 20.7122 7.48972 20.6118C7.48798 20.4558 7.46861 20.452 7.35726 20.5857C7.1932 20.7825 7.1932 20.7943 7.35726 20.7943ZM8.33506 68.1565C8.55372 67.9869 8.34904 67.89 8.11895 68.0543C8.01029 68.132 7.98138 68.2122 8.05467 68.233C8.12783 68.2538 8.25397 68.2194 8.33506 68.1565ZM8.16414 18.8649C8.2381 18.9004 8.29861 18.8796 8.29861 18.8189C8.29861 18.7582 8.2381 18.7085 8.16414 18.7085C8.09017 18.7085 8.02966 18.7291 8.02966 18.7545C8.02966 18.7798 8.09017 18.8295 8.16414 18.8649ZM9.17273 80.241C9.28367 80.241 9.37445 80.194 9.37445 80.1367C9.37445 80.0793 9.28367 80.0324 9.17273 80.0324C9.06178 80.0324 8.97101 80.0793 8.97101 80.1367C8.97101 80.194 9.06178 80.241 9.17273 80.241ZM14.0812 83.7869C14.1552 83.7869 14.2157 83.7663 14.2157 83.7409C14.2157 83.7156 14.1552 83.6659 14.0812 83.6305C14.0072 83.595 13.9467 83.6158 13.9467 83.6765C13.9467 83.7372 14.0072 83.7869 14.0812 83.7869ZM20.8724 83.2654C20.9833 83.2654 21.0741 83.2185 21.0741 83.1612C21.0741 83.1038 20.9833 83.0569 20.8724 83.0569C20.7615 83.0569 20.6707 83.1038 20.6707 83.1612C20.6707 83.2185 20.7615 83.2654 20.8724 83.2654ZM21.1334 3.79468C21.1661 3.79468 21.2301 3.74775 21.2758 3.69039C21.3216 3.63303 21.2948 3.5861 21.2165 3.5861C21.1383 3.5861 21.0741 3.63303 21.0741 3.69039C21.0741 3.74775 21.1007 3.79468 21.1334 3.79468ZM21.2758 83.8912C21.3868 83.8912 21.4776 83.8443 21.4776 83.7869C21.4776 83.7296 21.5784 83.6826 21.7017 83.6826C21.8249 83.6826 21.8883 83.6535 21.8424 83.618C21.7214 83.5241 21.0741 83.6681 21.0741 83.7889C21.0741 83.8452 21.1649 83.8912 21.2758 83.8912ZM21.8778 80.1407C22.0448 79.9311 21.9057 79.7984 21.6834 79.9552C21.5658 80.0381 21.5463 80.1217 21.6288 80.188C21.7134 80.2559 21.799 80.2396 21.8778 80.1407ZM21.6622 81.0644C21.8571 81.1898 22.2844 81.1181 22.2844 80.9599C22.2844 80.9087 22.1937 80.8667 22.0827 80.8667C21.9718 80.8667 21.881 80.7906 21.881 80.6976C21.881 80.559 21.8445 80.5518 21.6793 80.6581C21.4293 80.8191 21.4254 80.9119 21.6622 81.0644ZM21.7824 87.8672C21.9142 87.7642 21.8987 87.7523 21.7071 87.8088C21.5745 87.8481 21.4999 87.9064 21.5413 87.9385C21.5826 87.9706 21.6911 87.9386 21.7824 87.8672ZM21.9819 79.0906C22.2991 79.0879 22.3181 79.0723 22.1153 78.9806C21.9852 78.9219 21.8189 78.9027 21.7454 78.9378C21.5205 79.0457 21.5951 79.0939 21.9819 79.0906ZM22.2924 82.4311C22.4446 82.4311 22.5319 82.3842 22.4861 82.3268C22.4404 82.2695 22.3159 82.2225 22.2093 82.2225C22.1026 82.2225 22.0155 82.2695 22.0155 82.3268C22.0155 82.3842 22.1401 82.4311 22.2924 82.4311ZM22.4861 84.8298C22.5971 84.8298 22.6879 84.7609 22.6879 84.6766C22.6879 84.5834 22.6091 84.547 22.4861 84.5835C22.3752 84.6166 22.2844 84.6855 22.2844 84.7367C22.2844 84.7879 22.3752 84.8298 22.4861 84.8298ZM23.1618 1.91533C23.2745 1.84274 23.339 1.76192 23.3053 1.73564C23.2119 1.66336 22.9568 1.81031 22.9568 1.93629C22.9568 2.00555 23.034 1.99762 23.1618 1.91533ZM24.2264 2.85605C24.2591 2.85605 24.3231 2.80912 24.3689 2.75176C24.4146 2.6944 24.3878 2.64746 24.3095 2.64746C24.2313 2.64746 24.1671 2.6944 24.1671 2.75176C24.1671 2.80912 24.1938 2.85605 24.2264 2.85605Z" fill="#6966FF"/>
</svg>
