<svg width="81" height="8" viewBox="0 0 81 8" fill="none" xmlns="http://www.w3.org/2000/svg">
<path fill-rule="evenodd" clip-rule="evenodd" d="M41.1327 0.180536C40.6202 0.285539 40.0563 0.418304 39.8796 0.475579C39.7028 0.532941 39.184 0.672011 38.7266 0.784546C37.9361 0.979052 36.5554 1.37647 36.1341 1.53069C36.0265 1.57001 35.5203 1.72625 35.0091 1.87784C34.4979 2.02944 34.0122 2.18532 33.9297 2.22421C33.8473 2.26318 33.6333 2.32387 33.4543 2.35898C32.9677 2.45471 32.0742 2.82717 32.0742 2.93436C32.0742 2.98603 32.0273 3.00232 31.9702 2.9707C31.8796 2.92061 31.0457 3.14384 30.46 3.37495C30.3524 3.41743 30.1432 3.49143 29.9953 3.53942C29.8474 3.58732 29.7263 3.66702 29.7263 3.71632C29.7263 3.76572 29.6042 3.80609 29.455 3.80609C29.2122 3.80609 27.9652 4.19046 27.5072 4.4066C27.1988 4.55206 25.8673 5.05194 25.7425 5.06911C25.6768 5.07813 25.5925 5.11289 25.555 5.14635C25.5176 5.17989 25.4295 5.2073 25.3592 5.2073C25.2889 5.2073 24.9991 5.30346 24.7151 5.4209C23.9805 5.72487 23.432 5.93182 23.3184 5.94784C23.2646 5.95546 23.1325 5.99146 23.0249 6.02789C22.9173 6.06432 22.5871 6.17388 22.2912 6.27135C21.9953 6.36891 21.6651 6.48232 21.5575 6.52348C20.8198 6.80547 18.7605 6.83989 18.2313 6.57909C18.0698 6.49957 17.8639 6.43424 17.7737 6.43389C17.5924 6.43327 17.204 6.03883 17.204 5.85536C17.204 5.79134 17.127 5.70149 17.0328 5.65569C16.9386 5.60989 16.7516 5.38315 16.6171 5.15178C16.4825 4.9204 16.2536 4.54418 16.1082 4.31578C15.963 4.08738 15.7937 3.73147 15.7323 3.52488C15.6709 3.31829 15.5653 3.09016 15.4978 3.01791C15.3679 2.87892 15.2366 2.61987 15.1896 2.40995C15.1742 2.34051 14.9276 2.08978 14.6419 1.8528C14.1259 1.42481 14.1174 1.42166 13.3887 1.39583C12.9851 1.38155 12.6109 1.4002 12.5571 1.43734C12.5033 1.47447 12.2982 1.52693 12.1011 1.55399C11.645 1.6166 9.8668 2.23603 9.8668 2.33227C9.8668 2.37221 9.75801 2.40487 9.62506 2.40487C9.49201 2.40487 9.12887 2.50637 8.81797 2.63047C8.50696 2.75456 7.87391 2.99093 7.41117 3.15575C6.70885 3.40578 5.53245 3.92072 3.3122 4.95009C3.12387 5.0374 2.85063 5.20975 2.70506 5.33324C2.55939 5.45663 2.40023 5.5576 2.35141 5.5576C2.30249 5.5576 2.15555 5.63283 2.02495 5.72487C1.82205 5.86771 1.71767 5.88041 1.30766 5.81184C0.846882 5.73477 0.816946 5.7423 0.553686 6.0003C0.36732 6.1829 0.279469 6.3633 0.279469 6.56306C0.279469 6.72473 0.204433 6.97414 0.112668 7.11715C-0.0490444 7.36946 -0.0468923 7.3868 0.186041 7.69288C0.549675 8.17078 0.646233 8.14258 1.7387 7.23871C2.20926 6.84935 2.52956 6.73979 2.52956 6.96819C2.52956 7.01119 2.59559 7.04639 2.6763 7.04639C2.85063 7.04639 2.8659 6.94463 2.71221 6.80705C2.55499 6.66631 2.65605 6.49475 2.98241 6.34815C3.13688 6.27879 3.32932 6.1751 3.41003 6.11783C3.49074 6.06055 3.86493 5.86876 4.24158 5.69168C4.61823 5.51452 5.03645 5.31423 5.17096 5.24645C5.68545 4.98731 7.32899 4.33154 7.4638 4.33154C7.54158 4.33154 7.63031 4.2952 7.66093 4.25071C7.69165 4.20622 7.84837 4.14396 8.00911 4.11234C8.16994 4.08073 8.30152 4.01863 8.30152 3.97432C8.30152 3.92992 8.37 3.89366 8.45374 3.89366C8.53749 3.89366 8.85729 3.782 9.16458 3.64556C9.47176 3.50912 9.85301 3.3683 10.0119 3.33265C10.1708 3.29692 10.5223 3.17721 10.7931 3.0666C11.2119 2.89547 11.9749 2.66848 12.8735 2.4477C13.594 2.27062 14.3669 2.48746 14.3671 2.86666C14.3672 2.97394 14.4772 3.17615 14.6116 3.31619C14.7485 3.45859 14.8561 3.68033 14.8561 3.81975C14.8561 3.95672 14.9001 4.06882 14.954 4.06882C15.0078 4.06882 15.0518 4.14098 15.0518 4.22917C15.0518 4.31727 15.1616 4.58332 15.296 4.8203C15.4303 5.0572 15.5403 5.28384 15.5405 5.32395C15.5407 5.36397 15.706 5.57959 15.9078 5.80308C16.1095 6.02649 16.3627 6.30778 16.4703 6.42811C16.7926 6.78831 17.6363 7.48112 17.7546 7.4827C17.8153 7.48357 17.9153 7.53866 17.9769 7.60504C18.221 7.86829 19.9044 8.01726 20.9216 7.86558C21.2761 7.81277 22.4647 7.49723 22.6295 7.4122C22.681 7.38566 22.8176 7.35484 22.9332 7.3438C23.0486 7.33285 23.5567 7.16742 24.0623 6.97642C24.5679 6.78533 25.0916 6.60002 25.2261 6.56464C25.3606 6.52917 25.5367 6.45254 25.6174 6.39422C25.6981 6.33598 25.9843 6.22668 26.2533 6.15137C26.5223 6.07605 27.3808 5.78031 28.161 5.4942C28.9412 5.20809 29.9537 4.8443 30.4111 4.68579C30.8684 4.52727 31.2845 4.36298 31.3356 4.32077C31.3867 4.27856 31.4968 4.24414 31.5802 4.2444C31.7085 4.24475 33.66 3.60589 34.2754 3.36208C34.383 3.31943 34.8193 3.18474 35.2449 3.06266C35.6705 2.94066 36.0731 2.80054 36.1395 2.75115C36.2059 2.70184 36.2979 2.66909 36.344 2.67846C36.39 2.68774 36.4937 2.67277 36.5744 2.64518C36.6551 2.61751 37.4255 2.39077 38.2864 2.14127C39.1473 1.89177 39.9963 1.63219 40.1729 1.56458C40.3496 1.49689 40.5999 1.44154 40.7291 1.44154C40.8582 1.44154 41.078 1.40274 41.2174 1.35528C41.6365 1.21262 42.7499 1.07976 43.043 1.13739C43.5226 1.23162 43.8431 1.98477 43.8368 3.00284C43.836 3.13158 43.8799 3.28615 43.9344 3.34631C43.9888 3.40657 44.0035 3.45578 43.967 3.45578C43.9304 3.45578 43.969 3.54336 44.0528 3.65047C44.1365 3.75748 44.2051 3.93596 44.2051 4.04701C44.2051 4.34302 44.727 5.21685 45.055 5.47003C45.6449 5.92516 46.0104 6.02946 46.9977 6.02447C47.5734 6.02158 47.9729 5.97954 48.0631 5.91255C48.1426 5.85352 48.2431 5.82497 48.2866 5.84897C48.3665 5.8932 49.973 5.56522 50.5151 5.3941C50.8018 5.30355 52.2773 4.87267 52.4717 4.82267C52.5255 4.80883 52.7457 4.76872 52.9609 4.73343C53.1761 4.69813 53.4402 4.63666 53.5479 4.5969C53.746 4.5236 54.8108 4.28697 55.2599 4.21647C55.3944 4.19536 55.8346 4.11479 56.2382 4.03746C57.314 3.8314 57.6096 3.80749 59.1731 3.80022C60.5067 3.79391 60.6223 3.80705 61.1052 4.01898C61.3878 4.1429 61.6188 4.30072 61.6188 4.36964C61.6188 4.43856 61.7069 4.51992 61.8145 4.55048C61.9221 4.58105 62.0101 4.64279 62.0101 4.68771C62.0101 4.73264 62.0736 4.76942 62.1513 4.76942C62.229 4.76942 62.3504 4.84334 62.4211 4.9338C62.5304 5.0734 62.8719 5.34409 63.5754 5.84879C63.9532 6.11984 64.5371 6.36549 65.2228 6.54204C65.8844 6.71238 66.2072 6.73524 67.9778 6.73725C69.0808 6.73839 70.8638 6.70537 71.9399 6.66377C73.016 6.62218 74.3587 6.58285 74.9237 6.57637C75.4887 6.56998 76.0037 6.53407 76.0684 6.4965C76.133 6.45902 76.3091 6.44913 76.4597 6.47452C76.6103 6.49983 77.0637 6.54353 77.4673 6.57156C78.6471 6.65344 78.8564 6.67647 79.4239 6.78673C80.0248 6.90347 80.5 6.8046 80.5 6.56289C80.5 6.35507 80.0502 5.99548 79.7902 5.99548C79.664 5.99548 79.5181 5.95721 79.4657 5.91036C79.4135 5.86359 79.1075 5.80422 78.7858 5.77856C78.4642 5.75281 78.003 5.69606 77.761 5.65245C77.2776 5.5654 72.6005 5.59482 70.8148 5.69624C68.3196 5.83793 65.6194 5.73976 65.0809 5.48781C64.9793 5.44025 64.7861 5.35863 64.6516 5.30644C64.1986 5.13067 63.4368 4.70357 63.3999 4.60469C63.3799 4.55083 63.304 4.50669 63.2315 4.50669C63.1589 4.50669 63.0715 4.42788 63.0374 4.33154C63.0032 4.23521 62.9182 4.15639 62.8484 4.15639C62.7786 4.15639 62.5996 3.99875 62.4504 3.80609C62.2672 3.56955 62.1062 3.45578 61.9545 3.45578C61.8191 3.45578 61.7062 3.38914 61.6704 3.28808C61.577 3.02456 59.9217 2.61847 59.0752 2.6514C58.9407 2.65657 58.6513 2.66095 58.4319 2.66103C57.989 2.66112 56.0687 2.87691 55.3088 3.01186C55.0398 3.05968 54.4234 3.20225 53.9392 3.3288C53.4549 3.45526 52.8826 3.59021 52.6674 3.62857C52.2595 3.70126 50.9318 4.05787 50.1727 4.29853C49.9306 4.37533 49.6444 4.44924 49.5368 4.46291C49.2826 4.49513 48.1954 4.77599 48.0716 4.84141C48.019 4.86917 47.5438 4.90779 47.0156 4.92723C45.8027 4.9719 45.5231 4.88029 45.2721 4.35633C45.0759 3.94647 44.8631 2.9524 44.946 2.83233C44.9735 2.79266 44.9323 2.67032 44.8545 2.56058C44.7767 2.45085 44.6826 2.18375 44.6454 1.967C44.6083 1.75024 44.494 1.44259 44.3915 1.28329C44.2889 1.12399 44.2051 0.920114 44.2051 0.830261C44.2051 0.59582 43.7373 0.126064 43.5633 0.18579C43.4845 0.212939 43.3482 0.181762 43.2606 0.116605C43.0233 -0.0595971 42.1822 -0.0343753 41.1327 0.180536ZM1.20885 6.34579C1.11151 6.44212 0.994214 6.52094 0.948332 6.52094C0.902352 6.52094 0.919765 6.44212 0.986974 6.34579C1.05418 6.24945 1.17148 6.17064 1.24759 6.17064C1.35393 6.17064 1.34493 6.21109 1.20885 6.34579Z" fill="#6966FF"/>
</svg>
