<svg width="125" height="120" viewBox="0 0 125 120" fill="none" xmlns="http://www.w3.org/2000/svg">
<path fill-rule="evenodd" clip-rule="evenodd" d="M2.08038 3.07405C1.58094 4.98066 1.16475 6.92872 0.998268 8.87679C0.457215 15.7572 -0.167076 38.8438 0.0410215 43.486C0.0410215 44.8952 0.290738 46.4703 0.873411 47.7552C1.9139 50.0348 4.57755 50.2006 6.03423 48.0867C6.57528 47.3407 6.90824 46.3459 7.07472 45.3926C7.53253 42.6156 7.90711 39.8386 8.1152 37.0615C8.69788 28.689 9.23893 20.275 9.61351 11.9025C9.73837 9.12548 9.44703 6.307 9.11407 3.52998C8.86436 1.45757 7.15796 -0.117461 5.57642 0.00688381C3.70354 0.172676 2.53819 1.37467 2.08038 3.07405ZM59.0152 58.2813C59.1747 57.6457 59.3131 57.0481 59.4451 56.4779C59.7263 55.2631 59.9788 54.1721 60.347 53.1003C65.7575 37.1842 74.456 23.0089 84.3615 9.5383C85.5268 7.96327 86.9835 6.47114 88.6067 5.47638C89.4807 4.93755 91.2287 5.02045 92.2276 5.55928C92.9767 5.97376 93.5178 7.59023 93.3513 8.50209C93.06 10.2429 92.4357 12.0252 91.5617 13.6002C85.8182 24.0037 80.033 34.3657 74.1647 44.6863C72.4384 47.7031 70.6356 50.6944 68.8361 53.6802C68.3363 54.5096 67.8367 55.3385 67.3391 56.1675C66.5899 57.4524 65.7575 58.6958 64.8835 59.8563C63.9263 61.1827 62.4696 61.9702 61.0129 61.0998C60.921 61.044 60.8282 60.9898 60.7357 60.9358L60.7357 60.9357C59.8653 60.4269 59.0152 59.9298 59.0152 58.2813ZM117.95 120C117.282 119.889 116.577 119.788 115.85 119.683C114.403 119.474 112.87 119.253 111.374 118.922C102.509 116.933 93.6438 114.943 84.8204 112.871C82.9059 112.415 81.0331 111.627 79.3267 110.716C77.0376 109.514 76.2468 107.814 76.6214 105.949C76.996 104.084 78.4943 102.923 81.1163 102.882C82.9059 102.84 84.8204 102.882 86.5269 103.296C97.7225 106.115 108.918 109.016 120.072 111.959C121.321 112.291 122.611 112.871 123.568 113.7C125.982 115.731 125.233 118.922 122.153 119.71C121.39 119.893 120.561 119.911 119.644 119.931H119.644C119.11 119.942 118.547 119.954 117.95 120Z" fill="#6966FF"/>
</svg>
